<mxfile host="app.diagrams.net" agent="Mozilla/5.0 (X11; Linux x86_64; rv:133.0) Gecko/20100101 Firefox/133.0" version="25.0.3">
  <diagram name="Page-1" id="Bkviz_M7NQmLbxUC_tDc">
    <mxGraphModel dx="1863" dy="1039" grid="1" gridSize="10" guides="1" tooltips="1" connect="1" arrows="1" fold="1" page="1" pageScale="1" pageWidth="850" pageHeight="1100" math="0" shadow="0">
      <root>
        <mxCell id="0" />
        <mxCell id="1" parent="0" />
        <mxCell id="F5btuEF4g0F6uqBdUG4N-15" value="data" style="rounded=0;whiteSpace=wrap;html=1;" vertex="1" parent="1">
          <mxGeometry x="230" y="410" width="50" height="60" as="geometry" />
        </mxCell>
        <mxCell id="F5btuEF4g0F6uqBdUG4N-16" value="" style="verticalLabelPosition=bottom;verticalAlign=top;html=1;shape=mxgraph.basic.pie;startAngle=0.0015914963824541276;endAngle=0.4968173254495136;" vertex="1" parent="1">
          <mxGeometry x="250" y="410" width="60" height="60" as="geometry" />
        </mxCell>
        <mxCell id="F5btuEF4g0F6uqBdUG4N-17" value="" style="verticalLabelPosition=bottom;verticalAlign=top;html=1;shape=mxgraph.basic.pie;startAngle=0.0015914963824541276;endAngle=0.4968173254495136;rotation=-180;" vertex="1" parent="1">
          <mxGeometry x="200" y="410" width="60" height="60" as="geometry" />
        </mxCell>
        <mxCell id="F5btuEF4g0F6uqBdUG4N-18" value="n" style="text;html=1;align=center;verticalAlign=middle;resizable=0;points=[];autosize=1;strokeColor=none;fillColor=none;" vertex="1" parent="1">
          <mxGeometry x="280" y="425" width="30" height="30" as="geometry" />
        </mxCell>
        <mxCell id="F5btuEF4g0F6uqBdUG4N-19" value="p" style="text;html=1;align=center;verticalAlign=middle;resizable=0;points=[];autosize=1;strokeColor=none;fillColor=none;" vertex="1" parent="1">
          <mxGeometry x="200" y="425" width="30" height="30" as="geometry" />
        </mxCell>
        <mxCell id="F5btuEF4g0F6uqBdUG4N-20" value="data" style="rounded=0;whiteSpace=wrap;html=1;" vertex="1" parent="1">
          <mxGeometry x="230" y="540" width="50" height="60" as="geometry" />
        </mxCell>
        <mxCell id="F5btuEF4g0F6uqBdUG4N-21" value="" style="verticalLabelPosition=bottom;verticalAlign=top;html=1;shape=mxgraph.basic.pie;startAngle=0.0015914963824541276;endAngle=0.4968173254495136;" vertex="1" parent="1">
          <mxGeometry x="250" y="540" width="60" height="60" as="geometry" />
        </mxCell>
        <mxCell id="F5btuEF4g0F6uqBdUG4N-22" value="" style="verticalLabelPosition=bottom;verticalAlign=top;html=1;shape=mxgraph.basic.pie;startAngle=0.0015914963824541276;endAngle=0.4968173254495136;rotation=-180;" vertex="1" parent="1">
          <mxGeometry x="200" y="540" width="60" height="60" as="geometry" />
        </mxCell>
        <mxCell id="F5btuEF4g0F6uqBdUG4N-23" value="n" style="text;html=1;align=center;verticalAlign=middle;resizable=0;points=[];autosize=1;strokeColor=none;fillColor=none;" vertex="1" parent="1">
          <mxGeometry x="280" y="555" width="30" height="30" as="geometry" />
        </mxCell>
        <mxCell id="F5btuEF4g0F6uqBdUG4N-27" style="edgeStyle=orthogonalEdgeStyle;rounded=0;orthogonalLoop=1;jettySize=auto;html=1;" edge="1" parent="1" source="F5btuEF4g0F6uqBdUG4N-24" target="F5btuEF4g0F6uqBdUG4N-17">
          <mxGeometry relative="1" as="geometry" />
        </mxCell>
        <mxCell id="F5btuEF4g0F6uqBdUG4N-24" value="p" style="text;html=1;align=center;verticalAlign=middle;resizable=0;points=[];autosize=1;strokeColor=none;fillColor=none;" vertex="1" parent="1">
          <mxGeometry x="200" y="555" width="30" height="30" as="geometry" />
        </mxCell>
        <mxCell id="F5btuEF4g0F6uqBdUG4N-28" style="edgeStyle=orthogonalEdgeStyle;rounded=0;orthogonalLoop=1;jettySize=auto;html=1;entryX=0.493;entryY=0.013;entryDx=0;entryDy=0;entryPerimeter=0;" edge="1" parent="1" source="F5btuEF4g0F6uqBdUG4N-18" target="F5btuEF4g0F6uqBdUG4N-21">
          <mxGeometry relative="1" as="geometry" />
        </mxCell>
        <mxCell id="F5btuEF4g0F6uqBdUG4N-29" value="data" style="rounded=0;whiteSpace=wrap;html=1;" vertex="1" parent="1">
          <mxGeometry x="230" y="170" width="50" height="60" as="geometry" />
        </mxCell>
        <mxCell id="F5btuEF4g0F6uqBdUG4N-30" value="" style="verticalLabelPosition=bottom;verticalAlign=top;html=1;shape=mxgraph.basic.pie;startAngle=0.0015914963824541276;endAngle=0.4968173254495136;" vertex="1" parent="1">
          <mxGeometry x="250" y="170" width="60" height="60" as="geometry" />
        </mxCell>
        <mxCell id="F5btuEF4g0F6uqBdUG4N-31" value="" style="verticalLabelPosition=bottom;verticalAlign=top;html=1;shape=mxgraph.basic.pie;startAngle=0.0015914963824541276;endAngle=0.4968173254495136;rotation=-180;" vertex="1" parent="1">
          <mxGeometry x="200" y="170" width="60" height="60" as="geometry" />
        </mxCell>
        <mxCell id="F5btuEF4g0F6uqBdUG4N-32" value="n" style="text;html=1;align=center;verticalAlign=middle;resizable=0;points=[];autosize=1;strokeColor=none;fillColor=none;" vertex="1" parent="1">
          <mxGeometry x="280" y="185" width="30" height="30" as="geometry" />
        </mxCell>
        <mxCell id="F5btuEF4g0F6uqBdUG4N-92" style="edgeStyle=orthogonalEdgeStyle;rounded=0;orthogonalLoop=1;jettySize=auto;html=1;entryX=0;entryY=1;entryDx=0;entryDy=0;" edge="1" parent="1" source="F5btuEF4g0F6uqBdUG4N-33" target="F5btuEF4g0F6uqBdUG4N-20">
          <mxGeometry relative="1" as="geometry">
            <Array as="points">
              <mxPoint x="170" y="200" />
              <mxPoint x="170" y="620" />
              <mxPoint x="230" y="620" />
            </Array>
          </mxGeometry>
        </mxCell>
        <mxCell id="F5btuEF4g0F6uqBdUG4N-33" value="p" style="text;html=1;align=center;verticalAlign=middle;resizable=0;points=[];autosize=1;strokeColor=none;fillColor=none;" vertex="1" parent="1">
          <mxGeometry x="200" y="185" width="30" height="30" as="geometry" />
        </mxCell>
        <mxCell id="F5btuEF4g0F6uqBdUG4N-34" value="data" style="rounded=0;whiteSpace=wrap;html=1;" vertex="1" parent="1">
          <mxGeometry x="230" y="300" width="50" height="60" as="geometry" />
        </mxCell>
        <mxCell id="F5btuEF4g0F6uqBdUG4N-35" value="" style="verticalLabelPosition=bottom;verticalAlign=top;html=1;shape=mxgraph.basic.pie;startAngle=0.0015914963824541276;endAngle=0.4968173254495136;" vertex="1" parent="1">
          <mxGeometry x="250" y="300" width="60" height="60" as="geometry" />
        </mxCell>
        <mxCell id="F5btuEF4g0F6uqBdUG4N-36" value="" style="verticalLabelPosition=bottom;verticalAlign=top;html=1;shape=mxgraph.basic.pie;startAngle=0.0015914963824541276;endAngle=0.4968173254495136;rotation=-180;" vertex="1" parent="1">
          <mxGeometry x="200" y="300" width="60" height="60" as="geometry" />
        </mxCell>
        <mxCell id="F5btuEF4g0F6uqBdUG4N-37" value="n" style="text;html=1;align=center;verticalAlign=middle;resizable=0;points=[];autosize=1;strokeColor=none;fillColor=none;" vertex="1" parent="1">
          <mxGeometry x="280" y="315" width="30" height="30" as="geometry" />
        </mxCell>
        <mxCell id="F5btuEF4g0F6uqBdUG4N-38" style="edgeStyle=orthogonalEdgeStyle;rounded=0;orthogonalLoop=1;jettySize=auto;html=1;" edge="1" parent="1" source="F5btuEF4g0F6uqBdUG4N-39" target="F5btuEF4g0F6uqBdUG4N-31">
          <mxGeometry relative="1" as="geometry" />
        </mxCell>
        <mxCell id="F5btuEF4g0F6uqBdUG4N-39" value="p" style="text;html=1;align=center;verticalAlign=middle;resizable=0;points=[];autosize=1;strokeColor=none;fillColor=none;" vertex="1" parent="1">
          <mxGeometry x="200" y="315" width="30" height="30" as="geometry" />
        </mxCell>
        <mxCell id="F5btuEF4g0F6uqBdUG4N-40" style="edgeStyle=orthogonalEdgeStyle;rounded=0;orthogonalLoop=1;jettySize=auto;html=1;entryX=0.493;entryY=0.013;entryDx=0;entryDy=0;entryPerimeter=0;" edge="1" parent="1" source="F5btuEF4g0F6uqBdUG4N-32" target="F5btuEF4g0F6uqBdUG4N-35">
          <mxGeometry relative="1" as="geometry" />
        </mxCell>
        <mxCell id="F5btuEF4g0F6uqBdUG4N-41" style="edgeStyle=orthogonalEdgeStyle;rounded=0;orthogonalLoop=1;jettySize=auto;html=1;entryX=0.5;entryY=0;entryDx=0;entryDy=0;entryPerimeter=0;" edge="1" parent="1" source="F5btuEF4g0F6uqBdUG4N-37" target="F5btuEF4g0F6uqBdUG4N-16">
          <mxGeometry relative="1" as="geometry" />
        </mxCell>
        <mxCell id="F5btuEF4g0F6uqBdUG4N-42" style="edgeStyle=orthogonalEdgeStyle;rounded=0;orthogonalLoop=1;jettySize=auto;html=1;entryX=0.5;entryY=0;entryDx=0;entryDy=0;entryPerimeter=0;" edge="1" parent="1" source="F5btuEF4g0F6uqBdUG4N-19" target="F5btuEF4g0F6uqBdUG4N-36">
          <mxGeometry relative="1" as="geometry" />
        </mxCell>
        <mxCell id="F5btuEF4g0F6uqBdUG4N-93" style="edgeStyle=orthogonalEdgeStyle;rounded=0;orthogonalLoop=1;jettySize=auto;html=1;entryX=0.5;entryY=0;entryDx=0;entryDy=0;entryPerimeter=0;" edge="1" parent="1" source="F5btuEF4g0F6uqBdUG4N-23" target="F5btuEF4g0F6uqBdUG4N-30">
          <mxGeometry relative="1" as="geometry">
            <Array as="points">
              <mxPoint x="340" y="570" />
              <mxPoint x="340" y="150" />
              <mxPoint x="280" y="150" />
            </Array>
          </mxGeometry>
        </mxCell>
        <mxCell id="F5btuEF4g0F6uqBdUG4N-94" value="data" style="rounded=0;whiteSpace=wrap;html=1;" vertex="1" parent="1">
          <mxGeometry x="510" y="410" width="50" height="60" as="geometry" />
        </mxCell>
        <mxCell id="F5btuEF4g0F6uqBdUG4N-95" value="" style="verticalLabelPosition=bottom;verticalAlign=top;html=1;shape=mxgraph.basic.pie;startAngle=0.0015914963824541276;endAngle=0.4968173254495136;" vertex="1" parent="1">
          <mxGeometry x="530" y="410" width="60" height="60" as="geometry" />
        </mxCell>
        <mxCell id="F5btuEF4g0F6uqBdUG4N-96" value="" style="verticalLabelPosition=bottom;verticalAlign=top;html=1;shape=mxgraph.basic.pie;startAngle=0.0015914963824541276;endAngle=0.4968173254495136;rotation=-180;" vertex="1" parent="1">
          <mxGeometry x="480" y="410" width="60" height="60" as="geometry" />
        </mxCell>
        <mxCell id="F5btuEF4g0F6uqBdUG4N-97" value="n" style="text;html=1;align=center;verticalAlign=middle;resizable=0;points=[];autosize=1;strokeColor=none;fillColor=none;" vertex="1" parent="1">
          <mxGeometry x="560" y="425" width="30" height="30" as="geometry" />
        </mxCell>
        <mxCell id="F5btuEF4g0F6uqBdUG4N-98" value="p" style="text;html=1;align=center;verticalAlign=middle;resizable=0;points=[];autosize=1;strokeColor=none;fillColor=none;" vertex="1" parent="1">
          <mxGeometry x="480" y="425" width="30" height="30" as="geometry" />
        </mxCell>
        <mxCell id="F5btuEF4g0F6uqBdUG4N-99" value="data" style="rounded=0;whiteSpace=wrap;html=1;" vertex="1" parent="1">
          <mxGeometry x="510" y="540" width="50" height="60" as="geometry" />
        </mxCell>
        <mxCell id="F5btuEF4g0F6uqBdUG4N-100" value="" style="verticalLabelPosition=bottom;verticalAlign=top;html=1;shape=mxgraph.basic.pie;startAngle=0.0015914963824541276;endAngle=0.4968173254495136;" vertex="1" parent="1">
          <mxGeometry x="530" y="540" width="60" height="60" as="geometry" />
        </mxCell>
        <mxCell id="F5btuEF4g0F6uqBdUG4N-101" value="" style="verticalLabelPosition=bottom;verticalAlign=top;html=1;shape=mxgraph.basic.pie;startAngle=0.0015914963824541276;endAngle=0.4968173254495136;rotation=-180;" vertex="1" parent="1">
          <mxGeometry x="480" y="540" width="60" height="60" as="geometry" />
        </mxCell>
        <mxCell id="F5btuEF4g0F6uqBdUG4N-102" value="n" style="text;html=1;align=center;verticalAlign=middle;resizable=0;points=[];autosize=1;strokeColor=none;fillColor=none;" vertex="1" parent="1">
          <mxGeometry x="560" y="555" width="30" height="30" as="geometry" />
        </mxCell>
        <mxCell id="F5btuEF4g0F6uqBdUG4N-103" style="edgeStyle=orthogonalEdgeStyle;rounded=0;orthogonalLoop=1;jettySize=auto;html=1;" edge="1" parent="1" source="F5btuEF4g0F6uqBdUG4N-104" target="F5btuEF4g0F6uqBdUG4N-96">
          <mxGeometry relative="1" as="geometry" />
        </mxCell>
        <mxCell id="F5btuEF4g0F6uqBdUG4N-104" value="p" style="text;html=1;align=center;verticalAlign=middle;resizable=0;points=[];autosize=1;strokeColor=none;fillColor=none;" vertex="1" parent="1">
          <mxGeometry x="480" y="555" width="30" height="30" as="geometry" />
        </mxCell>
        <mxCell id="F5btuEF4g0F6uqBdUG4N-105" style="edgeStyle=orthogonalEdgeStyle;rounded=0;orthogonalLoop=1;jettySize=auto;html=1;entryX=0.493;entryY=0.013;entryDx=0;entryDy=0;entryPerimeter=0;" edge="1" parent="1" source="F5btuEF4g0F6uqBdUG4N-97" target="F5btuEF4g0F6uqBdUG4N-100">
          <mxGeometry relative="1" as="geometry" />
        </mxCell>
        <mxCell id="F5btuEF4g0F6uqBdUG4N-106" value="data" style="rounded=0;whiteSpace=wrap;html=1;" vertex="1" parent="1">
          <mxGeometry x="510" y="170" width="50" height="60" as="geometry" />
        </mxCell>
        <mxCell id="F5btuEF4g0F6uqBdUG4N-107" value="" style="verticalLabelPosition=bottom;verticalAlign=top;html=1;shape=mxgraph.basic.pie;startAngle=0.0015914963824541276;endAngle=0.4968173254495136;" vertex="1" parent="1">
          <mxGeometry x="530" y="170" width="60" height="60" as="geometry" />
        </mxCell>
        <mxCell id="F5btuEF4g0F6uqBdUG4N-108" value="" style="verticalLabelPosition=bottom;verticalAlign=top;html=1;shape=mxgraph.basic.pie;startAngle=0.0015914963824541276;endAngle=0.4968173254495136;rotation=-180;" vertex="1" parent="1">
          <mxGeometry x="480" y="170" width="60" height="60" as="geometry" />
        </mxCell>
        <mxCell id="F5btuEF4g0F6uqBdUG4N-109" value="n" style="text;html=1;align=center;verticalAlign=middle;resizable=0;points=[];autosize=1;strokeColor=none;fillColor=none;" vertex="1" parent="1">
          <mxGeometry x="560" y="185" width="30" height="30" as="geometry" />
        </mxCell>
        <mxCell id="F5btuEF4g0F6uqBdUG4N-110" style="edgeStyle=orthogonalEdgeStyle;rounded=0;orthogonalLoop=1;jettySize=auto;html=1;entryX=0;entryY=1;entryDx=0;entryDy=0;" edge="1" parent="1" source="F5btuEF4g0F6uqBdUG4N-111" target="F5btuEF4g0F6uqBdUG4N-99">
          <mxGeometry relative="1" as="geometry">
            <Array as="points">
              <mxPoint x="450" y="200" />
              <mxPoint x="450" y="620" />
              <mxPoint x="510" y="620" />
            </Array>
          </mxGeometry>
        </mxCell>
        <mxCell id="F5btuEF4g0F6uqBdUG4N-111" value="p" style="text;html=1;align=center;verticalAlign=middle;resizable=0;points=[];autosize=1;strokeColor=none;fillColor=none;" vertex="1" parent="1">
          <mxGeometry x="480" y="185" width="30" height="30" as="geometry" />
        </mxCell>
        <mxCell id="F5btuEF4g0F6uqBdUG4N-112" value="data" style="rounded=0;whiteSpace=wrap;html=1;" vertex="1" parent="1">
          <mxGeometry x="510" y="300" width="50" height="60" as="geometry" />
        </mxCell>
        <mxCell id="F5btuEF4g0F6uqBdUG4N-113" value="" style="verticalLabelPosition=bottom;verticalAlign=top;html=1;shape=mxgraph.basic.pie;startAngle=0.0015914963824541276;endAngle=0.4968173254495136;" vertex="1" parent="1">
          <mxGeometry x="530" y="300" width="60" height="60" as="geometry" />
        </mxCell>
        <mxCell id="F5btuEF4g0F6uqBdUG4N-114" value="" style="verticalLabelPosition=bottom;verticalAlign=top;html=1;shape=mxgraph.basic.pie;startAngle=0.0015914963824541276;endAngle=0.4968173254495136;rotation=-180;" vertex="1" parent="1">
          <mxGeometry x="480" y="300" width="60" height="60" as="geometry" />
        </mxCell>
        <mxCell id="F5btuEF4g0F6uqBdUG4N-115" value="n" style="text;html=1;align=center;verticalAlign=middle;resizable=0;points=[];autosize=1;strokeColor=none;fillColor=none;" vertex="1" parent="1">
          <mxGeometry x="560" y="315" width="30" height="30" as="geometry" />
        </mxCell>
        <mxCell id="F5btuEF4g0F6uqBdUG4N-116" style="edgeStyle=orthogonalEdgeStyle;rounded=0;orthogonalLoop=1;jettySize=auto;html=1;" edge="1" parent="1" source="F5btuEF4g0F6uqBdUG4N-117" target="F5btuEF4g0F6uqBdUG4N-108">
          <mxGeometry relative="1" as="geometry" />
        </mxCell>
        <mxCell id="F5btuEF4g0F6uqBdUG4N-117" value="p" style="text;html=1;align=center;verticalAlign=middle;resizable=0;points=[];autosize=1;strokeColor=none;fillColor=none;" vertex="1" parent="1">
          <mxGeometry x="480" y="315" width="30" height="30" as="geometry" />
        </mxCell>
        <mxCell id="F5btuEF4g0F6uqBdUG4N-118" style="edgeStyle=orthogonalEdgeStyle;rounded=0;orthogonalLoop=1;jettySize=auto;html=1;entryX=0.493;entryY=0.013;entryDx=0;entryDy=0;entryPerimeter=0;" edge="1" parent="1" source="F5btuEF4g0F6uqBdUG4N-109" target="F5btuEF4g0F6uqBdUG4N-113">
          <mxGeometry relative="1" as="geometry" />
        </mxCell>
        <mxCell id="F5btuEF4g0F6uqBdUG4N-119" style="edgeStyle=orthogonalEdgeStyle;rounded=0;orthogonalLoop=1;jettySize=auto;html=1;entryX=0.5;entryY=0;entryDx=0;entryDy=0;entryPerimeter=0;" edge="1" parent="1" source="F5btuEF4g0F6uqBdUG4N-115" target="F5btuEF4g0F6uqBdUG4N-95">
          <mxGeometry relative="1" as="geometry" />
        </mxCell>
        <mxCell id="F5btuEF4g0F6uqBdUG4N-120" style="edgeStyle=orthogonalEdgeStyle;rounded=0;orthogonalLoop=1;jettySize=auto;html=1;entryX=0.5;entryY=0;entryDx=0;entryDy=0;entryPerimeter=0;" edge="1" parent="1" source="F5btuEF4g0F6uqBdUG4N-98" target="F5btuEF4g0F6uqBdUG4N-114">
          <mxGeometry relative="1" as="geometry" />
        </mxCell>
        <mxCell id="F5btuEF4g0F6uqBdUG4N-121" style="edgeStyle=orthogonalEdgeStyle;rounded=0;orthogonalLoop=1;jettySize=auto;html=1;entryX=0.5;entryY=0;entryDx=0;entryDy=0;entryPerimeter=0;" edge="1" parent="1" source="F5btuEF4g0F6uqBdUG4N-102" target="F5btuEF4g0F6uqBdUG4N-107">
          <mxGeometry relative="1" as="geometry">
            <Array as="points">
              <mxPoint x="620" y="570" />
              <mxPoint x="620" y="150" />
              <mxPoint x="560" y="150" />
            </Array>
          </mxGeometry>
        </mxCell>
        <mxCell id="F5btuEF4g0F6uqBdUG4N-122" value="" style="endArrow=classic;html=1;rounded=0;" edge="1" parent="1">
          <mxGeometry width="50" height="50" relative="1" as="geometry">
            <mxPoint x="20" y="199.8" as="sourcePoint" />
            <mxPoint x="140" y="199.8" as="targetPoint" />
          </mxGeometry>
        </mxCell>
        <mxCell id="F5btuEF4g0F6uqBdUG4N-124" value="first" style="edgeLabel;html=1;align=center;verticalAlign=middle;resizable=0;points=[];" vertex="1" connectable="0" parent="F5btuEF4g0F6uqBdUG4N-122">
          <mxGeometry x="-0.0533" y="2" relative="1" as="geometry">
            <mxPoint as="offset" />
          </mxGeometry>
        </mxCell>
        <mxCell id="F5btuEF4g0F6uqBdUG4N-125" value="data" style="rounded=0;whiteSpace=wrap;html=1;" vertex="1" parent="1">
          <mxGeometry x="1280" y="1629.95" width="50" height="60" as="geometry" />
        </mxCell>
        <mxCell id="F5btuEF4g0F6uqBdUG4N-126" value="" style="verticalLabelPosition=bottom;verticalAlign=top;html=1;shape=mxgraph.basic.pie;startAngle=0.0015914963824541276;endAngle=0.4968173254495136;" vertex="1" parent="1">
          <mxGeometry x="1300" y="1629.95" width="60" height="60" as="geometry" />
        </mxCell>
        <mxCell id="F5btuEF4g0F6uqBdUG4N-127" value="" style="verticalLabelPosition=bottom;verticalAlign=top;html=1;shape=mxgraph.basic.pie;startAngle=0.0015914963824541276;endAngle=0.4968173254495136;rotation=-180;" vertex="1" parent="1">
          <mxGeometry x="1250" y="1629.95" width="60" height="60" as="geometry" />
        </mxCell>
        <mxCell id="F5btuEF4g0F6uqBdUG4N-128" value="n" style="text;html=1;align=center;verticalAlign=middle;resizable=0;points=[];autosize=1;strokeColor=none;fillColor=none;" vertex="1" parent="1">
          <mxGeometry x="1330" y="1644.95" width="30" height="30" as="geometry" />
        </mxCell>
        <mxCell id="F5btuEF4g0F6uqBdUG4N-129" value="p" style="text;html=1;align=center;verticalAlign=middle;resizable=0;points=[];autosize=1;strokeColor=none;fillColor=none;" vertex="1" parent="1">
          <mxGeometry x="1250" y="1644.95" width="30" height="30" as="geometry" />
        </mxCell>
        <mxCell id="F5btuEF4g0F6uqBdUG4N-130" value="data" style="rounded=0;whiteSpace=wrap;html=1;" vertex="1" parent="1">
          <mxGeometry x="1280" y="1759.95" width="50" height="60" as="geometry" />
        </mxCell>
        <mxCell id="F5btuEF4g0F6uqBdUG4N-131" value="" style="verticalLabelPosition=bottom;verticalAlign=top;html=1;shape=mxgraph.basic.pie;startAngle=0.0015914963824541276;endAngle=0.4968173254495136;" vertex="1" parent="1">
          <mxGeometry x="1300" y="1759.95" width="60" height="60" as="geometry" />
        </mxCell>
        <mxCell id="F5btuEF4g0F6uqBdUG4N-132" value="" style="verticalLabelPosition=bottom;verticalAlign=top;html=1;shape=mxgraph.basic.pie;startAngle=0.0015914963824541276;endAngle=0.4968173254495136;rotation=-180;" vertex="1" parent="1">
          <mxGeometry x="1250" y="1759.95" width="60" height="60" as="geometry" />
        </mxCell>
        <mxCell id="F5btuEF4g0F6uqBdUG4N-133" value="n" style="text;html=1;align=center;verticalAlign=middle;resizable=0;points=[];autosize=1;strokeColor=none;fillColor=none;" vertex="1" parent="1">
          <mxGeometry x="1330" y="1774.95" width="30" height="30" as="geometry" />
        </mxCell>
        <mxCell id="F5btuEF4g0F6uqBdUG4N-134" style="edgeStyle=orthogonalEdgeStyle;rounded=0;orthogonalLoop=1;jettySize=auto;html=1;" edge="1" parent="1" source="F5btuEF4g0F6uqBdUG4N-135" target="F5btuEF4g0F6uqBdUG4N-127">
          <mxGeometry relative="1" as="geometry" />
        </mxCell>
        <mxCell id="F5btuEF4g0F6uqBdUG4N-135" value="p" style="text;html=1;align=center;verticalAlign=middle;resizable=0;points=[];autosize=1;strokeColor=none;fillColor=none;" vertex="1" parent="1">
          <mxGeometry x="1250" y="1774.95" width="30" height="30" as="geometry" />
        </mxCell>
        <mxCell id="F5btuEF4g0F6uqBdUG4N-136" style="edgeStyle=orthogonalEdgeStyle;rounded=0;orthogonalLoop=1;jettySize=auto;html=1;entryX=0.493;entryY=0.013;entryDx=0;entryDy=0;entryPerimeter=0;" edge="1" parent="1" source="F5btuEF4g0F6uqBdUG4N-128" target="F5btuEF4g0F6uqBdUG4N-131">
          <mxGeometry relative="1" as="geometry" />
        </mxCell>
        <mxCell id="F5btuEF4g0F6uqBdUG4N-137" value="data" style="rounded=0;whiteSpace=wrap;html=1;" vertex="1" parent="1">
          <mxGeometry x="1280" y="1389.95" width="50" height="60" as="geometry" />
        </mxCell>
        <mxCell id="F5btuEF4g0F6uqBdUG4N-138" value="" style="verticalLabelPosition=bottom;verticalAlign=top;html=1;shape=mxgraph.basic.pie;startAngle=0.0015914963824541276;endAngle=0.4968173254495136;" vertex="1" parent="1">
          <mxGeometry x="1300" y="1389.95" width="60" height="60" as="geometry" />
        </mxCell>
        <mxCell id="F5btuEF4g0F6uqBdUG4N-139" value="" style="verticalLabelPosition=bottom;verticalAlign=top;html=1;shape=mxgraph.basic.pie;startAngle=0.0015914963824541276;endAngle=0.4968173254495136;rotation=-180;" vertex="1" parent="1">
          <mxGeometry x="1250" y="1389.95" width="60" height="60" as="geometry" />
        </mxCell>
        <mxCell id="F5btuEF4g0F6uqBdUG4N-140" value="n" style="text;html=1;align=center;verticalAlign=middle;resizable=0;points=[];autosize=1;strokeColor=none;fillColor=none;" vertex="1" parent="1">
          <mxGeometry x="1330" y="1404.95" width="30" height="30" as="geometry" />
        </mxCell>
        <mxCell id="F5btuEF4g0F6uqBdUG4N-450" style="edgeStyle=orthogonalEdgeStyle;rounded=0;orthogonalLoop=1;jettySize=auto;html=1;fillColor=#d5e8d4;strokeColor=#82b366;" edge="1" parent="1" source="F5btuEF4g0F6uqBdUG4N-142" target="F5btuEF4g0F6uqBdUG4N-145">
          <mxGeometry relative="1" as="geometry" />
        </mxCell>
        <mxCell id="F5btuEF4g0F6uqBdUG4N-142" value="p" style="text;html=1;align=center;verticalAlign=middle;resizable=0;points=[];autosize=1;strokeColor=none;fillColor=none;" vertex="1" parent="1">
          <mxGeometry x="1250" y="1404.95" width="30" height="30" as="geometry" />
        </mxCell>
        <mxCell id="F5btuEF4g0F6uqBdUG4N-143" value="data" style="rounded=0;whiteSpace=wrap;html=1;" vertex="1" parent="1">
          <mxGeometry x="1280" y="1519.95" width="50" height="60" as="geometry" />
        </mxCell>
        <mxCell id="F5btuEF4g0F6uqBdUG4N-144" value="" style="verticalLabelPosition=bottom;verticalAlign=top;html=1;shape=mxgraph.basic.pie;startAngle=0.0015914963824541276;endAngle=0.4968173254495136;" vertex="1" parent="1">
          <mxGeometry x="1300" y="1519.95" width="60" height="60" as="geometry" />
        </mxCell>
        <mxCell id="F5btuEF4g0F6uqBdUG4N-145" value="" style="verticalLabelPosition=bottom;verticalAlign=top;html=1;shape=mxgraph.basic.pie;startAngle=0.0015914963824541276;endAngle=0.4968173254495136;rotation=-180;" vertex="1" parent="1">
          <mxGeometry x="1250" y="1519.95" width="60" height="60" as="geometry" />
        </mxCell>
        <mxCell id="F5btuEF4g0F6uqBdUG4N-447" style="edgeStyle=orthogonalEdgeStyle;rounded=0;orthogonalLoop=1;jettySize=auto;html=1;entryX=0.75;entryY=1;entryDx=0;entryDy=0;fillColor=#d5e8d4;strokeColor=#82b366;" edge="1" parent="1" source="F5btuEF4g0F6uqBdUG4N-146" target="F5btuEF4g0F6uqBdUG4N-137">
          <mxGeometry relative="1" as="geometry" />
        </mxCell>
        <mxCell id="F5btuEF4g0F6uqBdUG4N-146" value="n" style="text;html=1;align=center;verticalAlign=middle;resizable=0;points=[];autosize=1;strokeColor=none;fillColor=none;" vertex="1" parent="1">
          <mxGeometry x="1330" y="1534.95" width="30" height="30" as="geometry" />
        </mxCell>
        <mxCell id="F5btuEF4g0F6uqBdUG4N-449" style="edgeStyle=orthogonalEdgeStyle;rounded=0;orthogonalLoop=1;jettySize=auto;html=1;entryX=0;entryY=1;entryDx=0;entryDy=0;fillColor=#d5e8d4;strokeColor=#82b366;" edge="1" parent="1" source="F5btuEF4g0F6uqBdUG4N-148" target="F5btuEF4g0F6uqBdUG4N-130">
          <mxGeometry relative="1" as="geometry">
            <Array as="points">
              <mxPoint x="1230" y="1549.95" />
              <mxPoint x="1230" y="1839.95" />
              <mxPoint x="1280" y="1839.95" />
            </Array>
          </mxGeometry>
        </mxCell>
        <mxCell id="F5btuEF4g0F6uqBdUG4N-148" value="p" style="text;html=1;align=center;verticalAlign=middle;resizable=0;points=[];autosize=1;strokeColor=none;fillColor=none;" vertex="1" parent="1">
          <mxGeometry x="1250" y="1534.95" width="30" height="30" as="geometry" />
        </mxCell>
        <mxCell id="F5btuEF4g0F6uqBdUG4N-151" style="edgeStyle=orthogonalEdgeStyle;rounded=0;orthogonalLoop=1;jettySize=auto;html=1;entryX=0.5;entryY=0;entryDx=0;entryDy=0;entryPerimeter=0;" edge="1" parent="1" source="F5btuEF4g0F6uqBdUG4N-129" target="F5btuEF4g0F6uqBdUG4N-145">
          <mxGeometry relative="1" as="geometry" />
        </mxCell>
        <mxCell id="F5btuEF4g0F6uqBdUG4N-152" style="edgeStyle=orthogonalEdgeStyle;rounded=0;orthogonalLoop=1;jettySize=auto;html=1;entryX=0.5;entryY=0;entryDx=0;entryDy=0;entryPerimeter=0;" edge="1" parent="1" source="F5btuEF4g0F6uqBdUG4N-133" target="F5btuEF4g0F6uqBdUG4N-138">
          <mxGeometry relative="1" as="geometry">
            <Array as="points">
              <mxPoint x="1390" y="1789.95" />
              <mxPoint x="1390" y="1369.95" />
              <mxPoint x="1330" y="1369.95" />
            </Array>
          </mxGeometry>
        </mxCell>
        <mxCell id="F5btuEF4g0F6uqBdUG4N-156" value="" style="endArrow=classic;html=1;rounded=0;" edge="1" parent="1">
          <mxGeometry width="50" height="50" relative="1" as="geometry">
            <mxPoint x="1060" y="1419.75" as="sourcePoint" />
            <mxPoint x="1180" y="1419.75" as="targetPoint" />
          </mxGeometry>
        </mxCell>
        <mxCell id="F5btuEF4g0F6uqBdUG4N-157" value="first" style="edgeLabel;html=1;align=center;verticalAlign=middle;resizable=0;points=[];" vertex="1" connectable="0" parent="F5btuEF4g0F6uqBdUG4N-156">
          <mxGeometry x="-0.0533" y="2" relative="1" as="geometry">
            <mxPoint as="offset" />
          </mxGeometry>
        </mxCell>
        <mxCell id="F5btuEF4g0F6uqBdUG4N-158" value="" style="endArrow=classic;html=1;rounded=0;" edge="1" parent="1">
          <mxGeometry width="50" height="50" relative="1" as="geometry">
            <mxPoint x="1060" y="1549.75" as="sourcePoint" />
            <mxPoint x="1180" y="1549.75" as="targetPoint" />
          </mxGeometry>
        </mxCell>
        <mxCell id="F5btuEF4g0F6uqBdUG4N-159" value="sec" style="edgeLabel;html=1;align=center;verticalAlign=middle;resizable=0;points=[];" vertex="1" connectable="0" parent="F5btuEF4g0F6uqBdUG4N-158">
          <mxGeometry x="-0.0533" y="2" relative="1" as="geometry">
            <mxPoint as="offset" />
          </mxGeometry>
        </mxCell>
        <mxCell id="F5btuEF4g0F6uqBdUG4N-160" value="swap" style="text;html=1;align=center;verticalAlign=middle;resizable=0;points=[];autosize=1;strokeColor=none;fillColor=none;" vertex="1" parent="1">
          <mxGeometry x="1290" y="1250" width="50" height="30" as="geometry" />
        </mxCell>
        <mxCell id="F5btuEF4g0F6uqBdUG4N-161" value="&lt;div&gt;sec = first.n&lt;br&gt;&lt;/div&gt;&lt;div&gt;first.n &amp;lt;=&amp;gt; sec.n&lt;br&gt;&lt;/div&gt;&lt;div&gt;sec.p &amp;lt;=&amp;gt; first.p&lt;br&gt;&lt;/div&gt;" style="rounded=0;whiteSpace=wrap;html=1;" vertex="1" parent="1">
          <mxGeometry x="1420" y="1160" width="240" height="60" as="geometry" />
        </mxCell>
        <mxCell id="F5btuEF4g0F6uqBdUG4N-162" value="data" style="rounded=0;whiteSpace=wrap;html=1;" vertex="1" parent="1">
          <mxGeometry x="250" y="1560" width="50" height="60" as="geometry" />
        </mxCell>
        <mxCell id="F5btuEF4g0F6uqBdUG4N-163" value="" style="verticalLabelPosition=bottom;verticalAlign=top;html=1;shape=mxgraph.basic.pie;startAngle=0.0015914963824541276;endAngle=0.4968173254495136;" vertex="1" parent="1">
          <mxGeometry x="270" y="1560" width="60" height="60" as="geometry" />
        </mxCell>
        <mxCell id="F5btuEF4g0F6uqBdUG4N-164" value="" style="verticalLabelPosition=bottom;verticalAlign=top;html=1;shape=mxgraph.basic.pie;startAngle=0.0015914963824541276;endAngle=0.4968173254495136;rotation=-180;" vertex="1" parent="1">
          <mxGeometry x="220" y="1560" width="60" height="60" as="geometry" />
        </mxCell>
        <mxCell id="F5btuEF4g0F6uqBdUG4N-165" value="n" style="text;html=1;align=center;verticalAlign=middle;resizable=0;points=[];autosize=1;strokeColor=none;fillColor=none;" vertex="1" parent="1">
          <mxGeometry x="300" y="1575" width="30" height="30" as="geometry" />
        </mxCell>
        <mxCell id="F5btuEF4g0F6uqBdUG4N-166" value="p" style="text;html=1;align=center;verticalAlign=middle;resizable=0;points=[];autosize=1;strokeColor=none;fillColor=none;" vertex="1" parent="1">
          <mxGeometry x="220" y="1575" width="30" height="30" as="geometry" />
        </mxCell>
        <mxCell id="F5btuEF4g0F6uqBdUG4N-167" value="data" style="rounded=0;whiteSpace=wrap;html=1;" vertex="1" parent="1">
          <mxGeometry x="250" y="1690" width="50" height="60" as="geometry" />
        </mxCell>
        <mxCell id="F5btuEF4g0F6uqBdUG4N-168" value="" style="verticalLabelPosition=bottom;verticalAlign=top;html=1;shape=mxgraph.basic.pie;startAngle=0.0015914963824541276;endAngle=0.4968173254495136;" vertex="1" parent="1">
          <mxGeometry x="270" y="1690" width="60" height="60" as="geometry" />
        </mxCell>
        <mxCell id="F5btuEF4g0F6uqBdUG4N-169" value="" style="verticalLabelPosition=bottom;verticalAlign=top;html=1;shape=mxgraph.basic.pie;startAngle=0.0015914963824541276;endAngle=0.4968173254495136;rotation=-180;" vertex="1" parent="1">
          <mxGeometry x="220" y="1690" width="60" height="60" as="geometry" />
        </mxCell>
        <mxCell id="F5btuEF4g0F6uqBdUG4N-170" value="n" style="text;html=1;align=center;verticalAlign=middle;resizable=0;points=[];autosize=1;strokeColor=none;fillColor=none;" vertex="1" parent="1">
          <mxGeometry x="300" y="1705" width="30" height="30" as="geometry" />
        </mxCell>
        <mxCell id="F5btuEF4g0F6uqBdUG4N-171" style="edgeStyle=orthogonalEdgeStyle;rounded=0;orthogonalLoop=1;jettySize=auto;html=1;" edge="1" parent="1" source="F5btuEF4g0F6uqBdUG4N-172" target="F5btuEF4g0F6uqBdUG4N-164">
          <mxGeometry relative="1" as="geometry" />
        </mxCell>
        <mxCell id="F5btuEF4g0F6uqBdUG4N-172" value="p" style="text;html=1;align=center;verticalAlign=middle;resizable=0;points=[];autosize=1;strokeColor=none;fillColor=none;" vertex="1" parent="1">
          <mxGeometry x="220" y="1705" width="30" height="30" as="geometry" />
        </mxCell>
        <mxCell id="F5btuEF4g0F6uqBdUG4N-173" style="edgeStyle=orthogonalEdgeStyle;rounded=0;orthogonalLoop=1;jettySize=auto;html=1;entryX=0.493;entryY=0.013;entryDx=0;entryDy=0;entryPerimeter=0;" edge="1" parent="1" source="F5btuEF4g0F6uqBdUG4N-165" target="F5btuEF4g0F6uqBdUG4N-168">
          <mxGeometry relative="1" as="geometry" />
        </mxCell>
        <mxCell id="F5btuEF4g0F6uqBdUG4N-174" value="data" style="rounded=0;whiteSpace=wrap;html=1;" vertex="1" parent="1">
          <mxGeometry x="250" y="1320" width="50" height="60" as="geometry" />
        </mxCell>
        <mxCell id="F5btuEF4g0F6uqBdUG4N-175" value="" style="verticalLabelPosition=bottom;verticalAlign=top;html=1;shape=mxgraph.basic.pie;startAngle=0.0015914963824541276;endAngle=0.4968173254495136;" vertex="1" parent="1">
          <mxGeometry x="270" y="1320" width="60" height="60" as="geometry" />
        </mxCell>
        <mxCell id="F5btuEF4g0F6uqBdUG4N-176" value="" style="verticalLabelPosition=bottom;verticalAlign=top;html=1;shape=mxgraph.basic.pie;startAngle=0.0015914963824541276;endAngle=0.4968173254495136;rotation=-180;" vertex="1" parent="1">
          <mxGeometry x="220" y="1320" width="60" height="60" as="geometry" />
        </mxCell>
        <mxCell id="F5btuEF4g0F6uqBdUG4N-177" value="n" style="text;html=1;align=center;verticalAlign=middle;resizable=0;points=[];autosize=1;strokeColor=none;fillColor=none;" vertex="1" parent="1">
          <mxGeometry x="300" y="1335" width="30" height="30" as="geometry" />
        </mxCell>
        <mxCell id="F5btuEF4g0F6uqBdUG4N-178" style="edgeStyle=orthogonalEdgeStyle;rounded=0;orthogonalLoop=1;jettySize=auto;html=1;entryX=0;entryY=1;entryDx=0;entryDy=0;" edge="1" parent="1" source="F5btuEF4g0F6uqBdUG4N-179" target="F5btuEF4g0F6uqBdUG4N-167">
          <mxGeometry relative="1" as="geometry">
            <Array as="points">
              <mxPoint x="190" y="1350" />
              <mxPoint x="190" y="1770" />
              <mxPoint x="250" y="1770" />
            </Array>
          </mxGeometry>
        </mxCell>
        <mxCell id="F5btuEF4g0F6uqBdUG4N-179" value="p" style="text;html=1;align=center;verticalAlign=middle;resizable=0;points=[];autosize=1;strokeColor=none;fillColor=none;" vertex="1" parent="1">
          <mxGeometry x="220" y="1335" width="30" height="30" as="geometry" />
        </mxCell>
        <mxCell id="F5btuEF4g0F6uqBdUG4N-180" value="data" style="rounded=0;whiteSpace=wrap;html=1;" vertex="1" parent="1">
          <mxGeometry x="250" y="1450" width="50" height="60" as="geometry" />
        </mxCell>
        <mxCell id="F5btuEF4g0F6uqBdUG4N-181" value="" style="verticalLabelPosition=bottom;verticalAlign=top;html=1;shape=mxgraph.basic.pie;startAngle=0.0015914963824541276;endAngle=0.4968173254495136;" vertex="1" parent="1">
          <mxGeometry x="270" y="1450" width="60" height="60" as="geometry" />
        </mxCell>
        <mxCell id="F5btuEF4g0F6uqBdUG4N-182" value="" style="verticalLabelPosition=bottom;verticalAlign=top;html=1;shape=mxgraph.basic.pie;startAngle=0.0015914963824541276;endAngle=0.4968173254495136;rotation=-180;" vertex="1" parent="1">
          <mxGeometry x="220" y="1450" width="60" height="60" as="geometry" />
        </mxCell>
        <mxCell id="F5btuEF4g0F6uqBdUG4N-183" value="n" style="text;html=1;align=center;verticalAlign=middle;resizable=0;points=[];autosize=1;strokeColor=none;fillColor=none;" vertex="1" parent="1">
          <mxGeometry x="300" y="1465" width="30" height="30" as="geometry" />
        </mxCell>
        <mxCell id="F5btuEF4g0F6uqBdUG4N-184" style="edgeStyle=orthogonalEdgeStyle;rounded=0;orthogonalLoop=1;jettySize=auto;html=1;" edge="1" parent="1" source="F5btuEF4g0F6uqBdUG4N-185" target="F5btuEF4g0F6uqBdUG4N-176">
          <mxGeometry relative="1" as="geometry" />
        </mxCell>
        <mxCell id="F5btuEF4g0F6uqBdUG4N-185" value="p" style="text;html=1;align=center;verticalAlign=middle;resizable=0;points=[];autosize=1;strokeColor=none;fillColor=none;" vertex="1" parent="1">
          <mxGeometry x="220" y="1465" width="30" height="30" as="geometry" />
        </mxCell>
        <mxCell id="F5btuEF4g0F6uqBdUG4N-186" style="edgeStyle=orthogonalEdgeStyle;rounded=0;orthogonalLoop=1;jettySize=auto;html=1;entryX=0.493;entryY=0.013;entryDx=0;entryDy=0;entryPerimeter=0;" edge="1" parent="1" source="F5btuEF4g0F6uqBdUG4N-177" target="F5btuEF4g0F6uqBdUG4N-181">
          <mxGeometry relative="1" as="geometry" />
        </mxCell>
        <mxCell id="F5btuEF4g0F6uqBdUG4N-187" style="edgeStyle=orthogonalEdgeStyle;rounded=0;orthogonalLoop=1;jettySize=auto;html=1;entryX=0.5;entryY=0;entryDx=0;entryDy=0;entryPerimeter=0;" edge="1" parent="1" source="F5btuEF4g0F6uqBdUG4N-183" target="F5btuEF4g0F6uqBdUG4N-163">
          <mxGeometry relative="1" as="geometry" />
        </mxCell>
        <mxCell id="F5btuEF4g0F6uqBdUG4N-188" style="edgeStyle=orthogonalEdgeStyle;rounded=0;orthogonalLoop=1;jettySize=auto;html=1;entryX=0.5;entryY=0;entryDx=0;entryDy=0;entryPerimeter=0;" edge="1" parent="1" source="F5btuEF4g0F6uqBdUG4N-166" target="F5btuEF4g0F6uqBdUG4N-182">
          <mxGeometry relative="1" as="geometry" />
        </mxCell>
        <mxCell id="F5btuEF4g0F6uqBdUG4N-189" style="edgeStyle=orthogonalEdgeStyle;rounded=0;orthogonalLoop=1;jettySize=auto;html=1;entryX=0.5;entryY=0;entryDx=0;entryDy=0;entryPerimeter=0;" edge="1" parent="1" source="F5btuEF4g0F6uqBdUG4N-170" target="F5btuEF4g0F6uqBdUG4N-175">
          <mxGeometry relative="1" as="geometry">
            <Array as="points">
              <mxPoint x="360" y="1720" />
              <mxPoint x="360" y="1300" />
              <mxPoint x="300" y="1300" />
            </Array>
          </mxGeometry>
        </mxCell>
        <mxCell id="F5btuEF4g0F6uqBdUG4N-190" value="data" style="rounded=0;whiteSpace=wrap;html=1;" vertex="1" parent="1">
          <mxGeometry x="530" y="1560" width="50" height="60" as="geometry" />
        </mxCell>
        <mxCell id="F5btuEF4g0F6uqBdUG4N-191" value="" style="verticalLabelPosition=bottom;verticalAlign=top;html=1;shape=mxgraph.basic.pie;startAngle=0.0015914963824541276;endAngle=0.4968173254495136;" vertex="1" parent="1">
          <mxGeometry x="550" y="1560" width="60" height="60" as="geometry" />
        </mxCell>
        <mxCell id="F5btuEF4g0F6uqBdUG4N-192" value="" style="verticalLabelPosition=bottom;verticalAlign=top;html=1;shape=mxgraph.basic.pie;startAngle=0.0015914963824541276;endAngle=0.4968173254495136;rotation=-180;" vertex="1" parent="1">
          <mxGeometry x="500" y="1560" width="60" height="60" as="geometry" />
        </mxCell>
        <mxCell id="F5btuEF4g0F6uqBdUG4N-193" value="n" style="text;html=1;align=center;verticalAlign=middle;resizable=0;points=[];autosize=1;strokeColor=none;fillColor=none;" vertex="1" parent="1">
          <mxGeometry x="580" y="1575" width="30" height="30" as="geometry" />
        </mxCell>
        <mxCell id="F5btuEF4g0F6uqBdUG4N-194" value="p" style="text;html=1;align=center;verticalAlign=middle;resizable=0;points=[];autosize=1;strokeColor=none;fillColor=none;" vertex="1" parent="1">
          <mxGeometry x="500" y="1575" width="30" height="30" as="geometry" />
        </mxCell>
        <mxCell id="F5btuEF4g0F6uqBdUG4N-195" value="data" style="rounded=0;whiteSpace=wrap;html=1;" vertex="1" parent="1">
          <mxGeometry x="530" y="1690" width="50" height="60" as="geometry" />
        </mxCell>
        <mxCell id="F5btuEF4g0F6uqBdUG4N-196" value="" style="verticalLabelPosition=bottom;verticalAlign=top;html=1;shape=mxgraph.basic.pie;startAngle=0.0015914963824541276;endAngle=0.4968173254495136;" vertex="1" parent="1">
          <mxGeometry x="550" y="1690" width="60" height="60" as="geometry" />
        </mxCell>
        <mxCell id="F5btuEF4g0F6uqBdUG4N-197" value="" style="verticalLabelPosition=bottom;verticalAlign=top;html=1;shape=mxgraph.basic.pie;startAngle=0.0015914963824541276;endAngle=0.4968173254495136;rotation=-180;" vertex="1" parent="1">
          <mxGeometry x="500" y="1690" width="60" height="60" as="geometry" />
        </mxCell>
        <mxCell id="F5btuEF4g0F6uqBdUG4N-198" value="n" style="text;html=1;align=center;verticalAlign=middle;resizable=0;points=[];autosize=1;strokeColor=none;fillColor=none;" vertex="1" parent="1">
          <mxGeometry x="580" y="1705" width="30" height="30" as="geometry" />
        </mxCell>
        <mxCell id="F5btuEF4g0F6uqBdUG4N-199" style="edgeStyle=orthogonalEdgeStyle;rounded=0;orthogonalLoop=1;jettySize=auto;html=1;" edge="1" parent="1" source="F5btuEF4g0F6uqBdUG4N-200" target="F5btuEF4g0F6uqBdUG4N-192">
          <mxGeometry relative="1" as="geometry" />
        </mxCell>
        <mxCell id="F5btuEF4g0F6uqBdUG4N-200" value="p" style="text;html=1;align=center;verticalAlign=middle;resizable=0;points=[];autosize=1;strokeColor=none;fillColor=none;" vertex="1" parent="1">
          <mxGeometry x="500" y="1705" width="30" height="30" as="geometry" />
        </mxCell>
        <mxCell id="F5btuEF4g0F6uqBdUG4N-201" style="edgeStyle=orthogonalEdgeStyle;rounded=0;orthogonalLoop=1;jettySize=auto;html=1;entryX=0.493;entryY=0.013;entryDx=0;entryDy=0;entryPerimeter=0;" edge="1" parent="1" source="F5btuEF4g0F6uqBdUG4N-193" target="F5btuEF4g0F6uqBdUG4N-196">
          <mxGeometry relative="1" as="geometry" />
        </mxCell>
        <mxCell id="F5btuEF4g0F6uqBdUG4N-202" value="data" style="rounded=0;whiteSpace=wrap;html=1;" vertex="1" parent="1">
          <mxGeometry x="530" y="1320" width="50" height="60" as="geometry" />
        </mxCell>
        <mxCell id="F5btuEF4g0F6uqBdUG4N-203" value="" style="verticalLabelPosition=bottom;verticalAlign=top;html=1;shape=mxgraph.basic.pie;startAngle=0.0015914963824541276;endAngle=0.4968173254495136;" vertex="1" parent="1">
          <mxGeometry x="550" y="1320" width="60" height="60" as="geometry" />
        </mxCell>
        <mxCell id="F5btuEF4g0F6uqBdUG4N-204" value="" style="verticalLabelPosition=bottom;verticalAlign=top;html=1;shape=mxgraph.basic.pie;startAngle=0.0015914963824541276;endAngle=0.4968173254495136;rotation=-180;" vertex="1" parent="1">
          <mxGeometry x="500" y="1320" width="60" height="60" as="geometry" />
        </mxCell>
        <mxCell id="F5btuEF4g0F6uqBdUG4N-205" value="n" style="text;html=1;align=center;verticalAlign=middle;resizable=0;points=[];autosize=1;strokeColor=none;fillColor=none;" vertex="1" parent="1">
          <mxGeometry x="580" y="1335" width="30" height="30" as="geometry" />
        </mxCell>
        <mxCell id="F5btuEF4g0F6uqBdUG4N-206" style="edgeStyle=orthogonalEdgeStyle;rounded=0;orthogonalLoop=1;jettySize=auto;html=1;entryX=0;entryY=1;entryDx=0;entryDy=0;" edge="1" parent="1" source="F5btuEF4g0F6uqBdUG4N-207" target="F5btuEF4g0F6uqBdUG4N-195">
          <mxGeometry relative="1" as="geometry">
            <Array as="points">
              <mxPoint x="470" y="1350" />
              <mxPoint x="470" y="1770" />
              <mxPoint x="530" y="1770" />
            </Array>
          </mxGeometry>
        </mxCell>
        <mxCell id="F5btuEF4g0F6uqBdUG4N-207" value="p" style="text;html=1;align=center;verticalAlign=middle;resizable=0;points=[];autosize=1;strokeColor=none;fillColor=none;" vertex="1" parent="1">
          <mxGeometry x="500" y="1335" width="30" height="30" as="geometry" />
        </mxCell>
        <mxCell id="F5btuEF4g0F6uqBdUG4N-208" value="data" style="rounded=0;whiteSpace=wrap;html=1;" vertex="1" parent="1">
          <mxGeometry x="530" y="1450" width="50" height="60" as="geometry" />
        </mxCell>
        <mxCell id="F5btuEF4g0F6uqBdUG4N-209" value="" style="verticalLabelPosition=bottom;verticalAlign=top;html=1;shape=mxgraph.basic.pie;startAngle=0.0015914963824541276;endAngle=0.4968173254495136;" vertex="1" parent="1">
          <mxGeometry x="550" y="1450" width="60" height="60" as="geometry" />
        </mxCell>
        <mxCell id="F5btuEF4g0F6uqBdUG4N-210" value="" style="verticalLabelPosition=bottom;verticalAlign=top;html=1;shape=mxgraph.basic.pie;startAngle=0.0015914963824541276;endAngle=0.4968173254495136;rotation=-180;" vertex="1" parent="1">
          <mxGeometry x="500" y="1450" width="60" height="60" as="geometry" />
        </mxCell>
        <mxCell id="F5btuEF4g0F6uqBdUG4N-211" value="n" style="text;html=1;align=center;verticalAlign=middle;resizable=0;points=[];autosize=1;strokeColor=none;fillColor=none;" vertex="1" parent="1">
          <mxGeometry x="580" y="1465" width="30" height="30" as="geometry" />
        </mxCell>
        <mxCell id="F5btuEF4g0F6uqBdUG4N-212" style="edgeStyle=orthogonalEdgeStyle;rounded=0;orthogonalLoop=1;jettySize=auto;html=1;" edge="1" parent="1" source="F5btuEF4g0F6uqBdUG4N-213" target="F5btuEF4g0F6uqBdUG4N-204">
          <mxGeometry relative="1" as="geometry" />
        </mxCell>
        <mxCell id="F5btuEF4g0F6uqBdUG4N-213" value="p" style="text;html=1;align=center;verticalAlign=middle;resizable=0;points=[];autosize=1;strokeColor=none;fillColor=none;" vertex="1" parent="1">
          <mxGeometry x="500" y="1465" width="30" height="30" as="geometry" />
        </mxCell>
        <mxCell id="F5btuEF4g0F6uqBdUG4N-214" style="edgeStyle=orthogonalEdgeStyle;rounded=0;orthogonalLoop=1;jettySize=auto;html=1;entryX=0.493;entryY=0.013;entryDx=0;entryDy=0;entryPerimeter=0;" edge="1" parent="1" source="F5btuEF4g0F6uqBdUG4N-205" target="F5btuEF4g0F6uqBdUG4N-209">
          <mxGeometry relative="1" as="geometry" />
        </mxCell>
        <mxCell id="F5btuEF4g0F6uqBdUG4N-215" style="edgeStyle=orthogonalEdgeStyle;rounded=0;orthogonalLoop=1;jettySize=auto;html=1;entryX=0.5;entryY=0;entryDx=0;entryDy=0;entryPerimeter=0;" edge="1" parent="1" source="F5btuEF4g0F6uqBdUG4N-211" target="F5btuEF4g0F6uqBdUG4N-191">
          <mxGeometry relative="1" as="geometry" />
        </mxCell>
        <mxCell id="F5btuEF4g0F6uqBdUG4N-216" style="edgeStyle=orthogonalEdgeStyle;rounded=0;orthogonalLoop=1;jettySize=auto;html=1;entryX=0.5;entryY=0;entryDx=0;entryDy=0;entryPerimeter=0;" edge="1" parent="1" source="F5btuEF4g0F6uqBdUG4N-194" target="F5btuEF4g0F6uqBdUG4N-210">
          <mxGeometry relative="1" as="geometry" />
        </mxCell>
        <mxCell id="F5btuEF4g0F6uqBdUG4N-217" style="edgeStyle=orthogonalEdgeStyle;rounded=0;orthogonalLoop=1;jettySize=auto;html=1;entryX=0.5;entryY=0;entryDx=0;entryDy=0;entryPerimeter=0;" edge="1" parent="1" source="F5btuEF4g0F6uqBdUG4N-198" target="F5btuEF4g0F6uqBdUG4N-203">
          <mxGeometry relative="1" as="geometry">
            <Array as="points">
              <mxPoint x="640" y="1720" />
              <mxPoint x="640" y="1300" />
              <mxPoint x="580" y="1300" />
            </Array>
          </mxGeometry>
        </mxCell>
        <mxCell id="F5btuEF4g0F6uqBdUG4N-218" value="" style="endArrow=classic;html=1;rounded=0;" edge="1" parent="1">
          <mxGeometry width="50" height="50" relative="1" as="geometry">
            <mxPoint x="110" y="1349.8" as="sourcePoint" />
            <mxPoint x="180" y="1349.8" as="targetPoint" />
          </mxGeometry>
        </mxCell>
        <mxCell id="F5btuEF4g0F6uqBdUG4N-219" value="fa " style="edgeLabel;html=1;align=center;verticalAlign=middle;resizable=0;points=[];" vertex="1" connectable="0" parent="F5btuEF4g0F6uqBdUG4N-218">
          <mxGeometry x="-0.0533" y="2" relative="1" as="geometry">
            <mxPoint y="2" as="offset" />
          </mxGeometry>
        </mxCell>
        <mxCell id="F5btuEF4g0F6uqBdUG4N-220" value="setup" style="text;html=1;align=center;verticalAlign=middle;resizable=0;points=[];autosize=1;strokeColor=none;fillColor=none;" vertex="1" parent="1">
          <mxGeometry x="375" y="80" width="50" height="30" as="geometry" />
        </mxCell>
        <mxCell id="F5btuEF4g0F6uqBdUG4N-221" value="push" style="text;html=1;align=center;verticalAlign=middle;resizable=0;points=[];autosize=1;strokeColor=none;fillColor=none;" vertex="1" parent="1">
          <mxGeometry x="390" y="1250" width="50" height="30" as="geometry" />
        </mxCell>
        <mxCell id="F5btuEF4g0F6uqBdUG4N-222" value="&lt;div&gt;fa.p.n = fa.n&lt;/div&gt;&lt;div&gt;fa.n.p = fa.p &lt;br&gt;&lt;/div&gt;&lt;div&gt;fa.p = fb.p&lt;/div&gt;&lt;div&gt;fa.n = fb &amp;nbsp; &lt;br&gt;&lt;/div&gt;&lt;div&gt;fb.p.n = fa&lt;/div&gt;&lt;div&gt;fb.p = fa&lt;br&gt;&lt;/div&gt;" style="rounded=0;whiteSpace=wrap;html=1;" vertex="1" parent="1">
          <mxGeometry x="680" y="1130" width="120" height="135" as="geometry" />
        </mxCell>
        <mxCell id="F5btuEF4g0F6uqBdUG4N-223" value="" style="endArrow=classic;html=1;rounded=0;" edge="1" parent="1">
          <mxGeometry width="50" height="50" relative="1" as="geometry">
            <mxPoint x="390" y="1350" as="sourcePoint" />
            <mxPoint x="460" y="1350" as="targetPoint" />
          </mxGeometry>
        </mxCell>
        <mxCell id="F5btuEF4g0F6uqBdUG4N-224" value="fb " style="edgeLabel;html=1;align=center;verticalAlign=middle;resizable=0;points=[];" vertex="1" connectable="0" parent="F5btuEF4g0F6uqBdUG4N-223">
          <mxGeometry x="-0.0533" y="2" relative="1" as="geometry">
            <mxPoint y="2" as="offset" />
          </mxGeometry>
        </mxCell>
        <mxCell id="F5btuEF4g0F6uqBdUG4N-225" value="data" style="rounded=0;whiteSpace=wrap;html=1;" vertex="1" parent="1">
          <mxGeometry x="250.02999999999997" y="2090" width="50" height="60" as="geometry" />
        </mxCell>
        <mxCell id="F5btuEF4g0F6uqBdUG4N-226" value="" style="verticalLabelPosition=bottom;verticalAlign=top;html=1;shape=mxgraph.basic.pie;startAngle=0.0015914963824541276;endAngle=0.4968173254495136;" vertex="1" parent="1">
          <mxGeometry x="270.03" y="2090" width="60" height="60" as="geometry" />
        </mxCell>
        <mxCell id="F5btuEF4g0F6uqBdUG4N-227" value="" style="verticalLabelPosition=bottom;verticalAlign=top;html=1;shape=mxgraph.basic.pie;startAngle=0.0015914963824541276;endAngle=0.4968173254495136;rotation=-180;" vertex="1" parent="1">
          <mxGeometry x="220.02999999999997" y="2090" width="60" height="60" as="geometry" />
        </mxCell>
        <mxCell id="F5btuEF4g0F6uqBdUG4N-228" value="n" style="text;html=1;align=center;verticalAlign=middle;resizable=0;points=[];autosize=1;strokeColor=none;fillColor=none;" vertex="1" parent="1">
          <mxGeometry x="300.03" y="2105" width="30" height="30" as="geometry" />
        </mxCell>
        <mxCell id="F5btuEF4g0F6uqBdUG4N-229" value="p" style="text;html=1;align=center;verticalAlign=middle;resizable=0;points=[];autosize=1;strokeColor=none;fillColor=none;" vertex="1" parent="1">
          <mxGeometry x="220.02999999999997" y="2105" width="30" height="30" as="geometry" />
        </mxCell>
        <mxCell id="F5btuEF4g0F6uqBdUG4N-230" value="data" style="rounded=0;whiteSpace=wrap;html=1;" vertex="1" parent="1">
          <mxGeometry x="250.02999999999997" y="2220" width="50" height="60" as="geometry" />
        </mxCell>
        <mxCell id="F5btuEF4g0F6uqBdUG4N-231" value="" style="verticalLabelPosition=bottom;verticalAlign=top;html=1;shape=mxgraph.basic.pie;startAngle=0.0015914963824541276;endAngle=0.4968173254495136;" vertex="1" parent="1">
          <mxGeometry x="270.03" y="2220" width="60" height="60" as="geometry" />
        </mxCell>
        <mxCell id="F5btuEF4g0F6uqBdUG4N-232" value="" style="verticalLabelPosition=bottom;verticalAlign=top;html=1;shape=mxgraph.basic.pie;startAngle=0.0015914963824541276;endAngle=0.4968173254495136;rotation=-180;" vertex="1" parent="1">
          <mxGeometry x="220.02999999999997" y="2220" width="60" height="60" as="geometry" />
        </mxCell>
        <mxCell id="F5btuEF4g0F6uqBdUG4N-286" style="edgeStyle=orthogonalEdgeStyle;rounded=0;orthogonalLoop=1;jettySize=auto;html=1;entryX=0.75;entryY=0;entryDx=0;entryDy=0;fillColor=#d5e8d4;strokeColor=#82b366;" edge="1" parent="1" source="F5btuEF4g0F6uqBdUG4N-233" target="F5btuEF4g0F6uqBdUG4N-243">
          <mxGeometry relative="1" as="geometry">
            <Array as="points">
              <mxPoint x="370" y="2250" />
              <mxPoint x="370" y="1960" />
              <mxPoint x="288" y="1960" />
            </Array>
          </mxGeometry>
        </mxCell>
        <mxCell id="F5btuEF4g0F6uqBdUG4N-233" value="n" style="text;html=1;align=center;verticalAlign=middle;resizable=0;points=[];autosize=1;strokeColor=none;fillColor=none;" vertex="1" parent="1">
          <mxGeometry x="300.03" y="2235" width="30" height="30" as="geometry" />
        </mxCell>
        <mxCell id="F5btuEF4g0F6uqBdUG4N-234" style="edgeStyle=orthogonalEdgeStyle;rounded=0;orthogonalLoop=1;jettySize=auto;html=1;" edge="1" parent="1" source="F5btuEF4g0F6uqBdUG4N-235" target="F5btuEF4g0F6uqBdUG4N-227">
          <mxGeometry relative="1" as="geometry" />
        </mxCell>
        <mxCell id="F5btuEF4g0F6uqBdUG4N-235" value="p" style="text;html=1;align=center;verticalAlign=middle;resizable=0;points=[];autosize=1;strokeColor=none;fillColor=none;" vertex="1" parent="1">
          <mxGeometry x="220.02999999999997" y="2235" width="30" height="30" as="geometry" />
        </mxCell>
        <mxCell id="F5btuEF4g0F6uqBdUG4N-236" style="edgeStyle=orthogonalEdgeStyle;rounded=0;orthogonalLoop=1;jettySize=auto;html=1;entryX=0.493;entryY=0.013;entryDx=0;entryDy=0;entryPerimeter=0;" edge="1" parent="1" source="F5btuEF4g0F6uqBdUG4N-228" target="F5btuEF4g0F6uqBdUG4N-231">
          <mxGeometry relative="1" as="geometry" />
        </mxCell>
        <mxCell id="F5btuEF4g0F6uqBdUG4N-237" value="data" style="rounded=0;whiteSpace=wrap;html=1;" vertex="1" parent="1">
          <mxGeometry x="250.02999999999997" y="1850" width="50" height="60" as="geometry" />
        </mxCell>
        <mxCell id="F5btuEF4g0F6uqBdUG4N-238" value="" style="verticalLabelPosition=bottom;verticalAlign=top;html=1;shape=mxgraph.basic.pie;startAngle=0.0015914963824541276;endAngle=0.4968173254495136;" vertex="1" parent="1">
          <mxGeometry x="270.03" y="1850" width="60" height="60" as="geometry" />
        </mxCell>
        <mxCell id="F5btuEF4g0F6uqBdUG4N-239" value="" style="verticalLabelPosition=bottom;verticalAlign=top;html=1;shape=mxgraph.basic.pie;startAngle=0.0015914963824541276;endAngle=0.4968173254495136;rotation=-180;" vertex="1" parent="1">
          <mxGeometry x="220.02999999999997" y="1850" width="60" height="60" as="geometry" />
        </mxCell>
        <mxCell id="F5btuEF4g0F6uqBdUG4N-240" value="n" style="text;html=1;align=center;verticalAlign=middle;resizable=0;points=[];autosize=1;strokeColor=none;fillColor=none;" vertex="1" parent="1">
          <mxGeometry x="300.03" y="1865" width="30" height="30" as="geometry" />
        </mxCell>
        <mxCell id="F5btuEF4g0F6uqBdUG4N-241" style="edgeStyle=orthogonalEdgeStyle;rounded=0;orthogonalLoop=1;jettySize=auto;html=1;entryX=0;entryY=1;entryDx=0;entryDy=0;" edge="1" parent="1" source="F5btuEF4g0F6uqBdUG4N-242" target="F5btuEF4g0F6uqBdUG4N-230">
          <mxGeometry relative="1" as="geometry">
            <Array as="points">
              <mxPoint x="190.02999999999997" y="1880" />
              <mxPoint x="190.02999999999997" y="2300" />
              <mxPoint x="250.02999999999997" y="2300" />
            </Array>
          </mxGeometry>
        </mxCell>
        <mxCell id="F5btuEF4g0F6uqBdUG4N-242" value="p" style="text;html=1;align=center;verticalAlign=middle;resizable=0;points=[];autosize=1;strokeColor=none;fillColor=none;" vertex="1" parent="1">
          <mxGeometry x="220.02999999999997" y="1865" width="30" height="30" as="geometry" />
        </mxCell>
        <mxCell id="F5btuEF4g0F6uqBdUG4N-243" value="data" style="rounded=0;whiteSpace=wrap;html=1;" vertex="1" parent="1">
          <mxGeometry x="250.02999999999997" y="1980" width="50" height="60" as="geometry" />
        </mxCell>
        <mxCell id="F5btuEF4g0F6uqBdUG4N-244" value="" style="verticalLabelPosition=bottom;verticalAlign=top;html=1;shape=mxgraph.basic.pie;startAngle=0.0015914963824541276;endAngle=0.4968173254495136;" vertex="1" parent="1">
          <mxGeometry x="270.03" y="1980" width="60" height="60" as="geometry" />
        </mxCell>
        <mxCell id="F5btuEF4g0F6uqBdUG4N-245" value="" style="verticalLabelPosition=bottom;verticalAlign=top;html=1;shape=mxgraph.basic.pie;startAngle=0.0015914963824541276;endAngle=0.4968173254495136;rotation=-180;" vertex="1" parent="1">
          <mxGeometry x="220.02999999999997" y="1980" width="60" height="60" as="geometry" />
        </mxCell>
        <mxCell id="F5btuEF4g0F6uqBdUG4N-246" value="n" style="text;html=1;align=center;verticalAlign=middle;resizable=0;points=[];autosize=1;strokeColor=none;fillColor=none;" vertex="1" parent="1">
          <mxGeometry x="300.03" y="1995" width="30" height="30" as="geometry" />
        </mxCell>
        <mxCell id="F5btuEF4g0F6uqBdUG4N-247" style="edgeStyle=orthogonalEdgeStyle;rounded=0;orthogonalLoop=1;jettySize=auto;html=1;" edge="1" parent="1" source="F5btuEF4g0F6uqBdUG4N-248" target="F5btuEF4g0F6uqBdUG4N-239">
          <mxGeometry relative="1" as="geometry" />
        </mxCell>
        <mxCell id="F5btuEF4g0F6uqBdUG4N-248" value="p" style="text;html=1;align=center;verticalAlign=middle;resizable=0;points=[];autosize=1;strokeColor=none;fillColor=none;" vertex="1" parent="1">
          <mxGeometry x="220.02999999999997" y="1995" width="30" height="30" as="geometry" />
        </mxCell>
        <mxCell id="F5btuEF4g0F6uqBdUG4N-249" style="edgeStyle=orthogonalEdgeStyle;rounded=0;orthogonalLoop=1;jettySize=auto;html=1;entryX=0.493;entryY=0.013;entryDx=0;entryDy=0;entryPerimeter=0;" edge="1" parent="1" source="F5btuEF4g0F6uqBdUG4N-240" target="F5btuEF4g0F6uqBdUG4N-244">
          <mxGeometry relative="1" as="geometry" />
        </mxCell>
        <mxCell id="F5btuEF4g0F6uqBdUG4N-250" style="edgeStyle=orthogonalEdgeStyle;rounded=0;orthogonalLoop=1;jettySize=auto;html=1;entryX=0.5;entryY=0;entryDx=0;entryDy=0;entryPerimeter=0;" edge="1" parent="1" source="F5btuEF4g0F6uqBdUG4N-246" target="F5btuEF4g0F6uqBdUG4N-226">
          <mxGeometry relative="1" as="geometry" />
        </mxCell>
        <mxCell id="F5btuEF4g0F6uqBdUG4N-251" style="edgeStyle=orthogonalEdgeStyle;rounded=0;orthogonalLoop=1;jettySize=auto;html=1;entryX=0.5;entryY=0;entryDx=0;entryDy=0;entryPerimeter=0;" edge="1" parent="1" source="F5btuEF4g0F6uqBdUG4N-229" target="F5btuEF4g0F6uqBdUG4N-245">
          <mxGeometry relative="1" as="geometry" />
        </mxCell>
        <mxCell id="F5btuEF4g0F6uqBdUG4N-253" value="data" style="rounded=0;whiteSpace=wrap;html=1;" vertex="1" parent="1">
          <mxGeometry x="530.03" y="2090" width="50" height="60" as="geometry" />
        </mxCell>
        <mxCell id="F5btuEF4g0F6uqBdUG4N-254" value="" style="verticalLabelPosition=bottom;verticalAlign=top;html=1;shape=mxgraph.basic.pie;startAngle=0.0015914963824541276;endAngle=0.4968173254495136;" vertex="1" parent="1">
          <mxGeometry x="550.03" y="2090" width="60" height="60" as="geometry" />
        </mxCell>
        <mxCell id="F5btuEF4g0F6uqBdUG4N-255" value="" style="verticalLabelPosition=bottom;verticalAlign=top;html=1;shape=mxgraph.basic.pie;startAngle=0.0015914963824541276;endAngle=0.4968173254495136;rotation=-180;" vertex="1" parent="1">
          <mxGeometry x="500.03" y="2090" width="60" height="60" as="geometry" />
        </mxCell>
        <mxCell id="F5btuEF4g0F6uqBdUG4N-256" value="n" style="text;html=1;align=center;verticalAlign=middle;resizable=0;points=[];autosize=1;strokeColor=none;fillColor=none;" vertex="1" parent="1">
          <mxGeometry x="580.03" y="2105" width="30" height="30" as="geometry" />
        </mxCell>
        <mxCell id="F5btuEF4g0F6uqBdUG4N-257" value="p" style="text;html=1;align=center;verticalAlign=middle;resizable=0;points=[];autosize=1;strokeColor=none;fillColor=none;" vertex="1" parent="1">
          <mxGeometry x="500.03" y="2105" width="30" height="30" as="geometry" />
        </mxCell>
        <mxCell id="F5btuEF4g0F6uqBdUG4N-258" value="data" style="rounded=0;whiteSpace=wrap;html=1;" vertex="1" parent="1">
          <mxGeometry x="530.03" y="2220" width="50" height="60" as="geometry" />
        </mxCell>
        <mxCell id="F5btuEF4g0F6uqBdUG4N-259" value="" style="verticalLabelPosition=bottom;verticalAlign=top;html=1;shape=mxgraph.basic.pie;startAngle=0.0015914963824541276;endAngle=0.4968173254495136;" vertex="1" parent="1">
          <mxGeometry x="550.03" y="2220" width="60" height="60" as="geometry" />
        </mxCell>
        <mxCell id="F5btuEF4g0F6uqBdUG4N-260" value="" style="verticalLabelPosition=bottom;verticalAlign=top;html=1;shape=mxgraph.basic.pie;startAngle=0.0015914963824541276;endAngle=0.4968173254495136;rotation=-180;" vertex="1" parent="1">
          <mxGeometry x="500.03" y="2220" width="60" height="60" as="geometry" />
        </mxCell>
        <mxCell id="F5btuEF4g0F6uqBdUG4N-261" value="n" style="text;html=1;align=center;verticalAlign=middle;resizable=0;points=[];autosize=1;strokeColor=none;fillColor=none;" vertex="1" parent="1">
          <mxGeometry x="580.03" y="2235" width="30" height="30" as="geometry" />
        </mxCell>
        <mxCell id="F5btuEF4g0F6uqBdUG4N-262" style="edgeStyle=orthogonalEdgeStyle;rounded=0;orthogonalLoop=1;jettySize=auto;html=1;" edge="1" parent="1" source="F5btuEF4g0F6uqBdUG4N-263" target="F5btuEF4g0F6uqBdUG4N-255">
          <mxGeometry relative="1" as="geometry" />
        </mxCell>
        <mxCell id="F5btuEF4g0F6uqBdUG4N-263" value="p" style="text;html=1;align=center;verticalAlign=middle;resizable=0;points=[];autosize=1;strokeColor=none;fillColor=none;" vertex="1" parent="1">
          <mxGeometry x="500.03" y="2235" width="30" height="30" as="geometry" />
        </mxCell>
        <mxCell id="F5btuEF4g0F6uqBdUG4N-264" style="edgeStyle=orthogonalEdgeStyle;rounded=0;orthogonalLoop=1;jettySize=auto;html=1;entryX=0.493;entryY=0.013;entryDx=0;entryDy=0;entryPerimeter=0;" edge="1" parent="1" source="F5btuEF4g0F6uqBdUG4N-256" target="F5btuEF4g0F6uqBdUG4N-259">
          <mxGeometry relative="1" as="geometry" />
        </mxCell>
        <mxCell id="F5btuEF4g0F6uqBdUG4N-265" value="data" style="rounded=0;whiteSpace=wrap;html=1;" vertex="1" parent="1">
          <mxGeometry x="530.03" y="1850" width="50" height="60" as="geometry" />
        </mxCell>
        <mxCell id="F5btuEF4g0F6uqBdUG4N-266" value="" style="verticalLabelPosition=bottom;verticalAlign=top;html=1;shape=mxgraph.basic.pie;startAngle=0.0015914963824541276;endAngle=0.4968173254495136;" vertex="1" parent="1">
          <mxGeometry x="550.03" y="1850" width="60" height="60" as="geometry" />
        </mxCell>
        <mxCell id="F5btuEF4g0F6uqBdUG4N-267" value="" style="verticalLabelPosition=bottom;verticalAlign=top;html=1;shape=mxgraph.basic.pie;startAngle=0.0015914963824541276;endAngle=0.4968173254495136;rotation=-180;" vertex="1" parent="1">
          <mxGeometry x="500.03" y="1850" width="60" height="60" as="geometry" />
        </mxCell>
        <mxCell id="F5btuEF4g0F6uqBdUG4N-268" value="n" style="text;html=1;align=center;verticalAlign=middle;resizable=0;points=[];autosize=1;strokeColor=none;fillColor=none;" vertex="1" parent="1">
          <mxGeometry x="580.03" y="1865" width="30" height="30" as="geometry" />
        </mxCell>
        <mxCell id="F5btuEF4g0F6uqBdUG4N-269" style="edgeStyle=orthogonalEdgeStyle;rounded=0;orthogonalLoop=1;jettySize=auto;html=1;entryX=0;entryY=1;entryDx=0;entryDy=0;" edge="1" parent="1" source="F5btuEF4g0F6uqBdUG4N-270" target="F5btuEF4g0F6uqBdUG4N-258">
          <mxGeometry relative="1" as="geometry">
            <Array as="points">
              <mxPoint x="470.03" y="1880" />
              <mxPoint x="470.03" y="2300" />
              <mxPoint x="530.03" y="2300" />
            </Array>
          </mxGeometry>
        </mxCell>
        <mxCell id="F5btuEF4g0F6uqBdUG4N-270" value="p" style="text;html=1;align=center;verticalAlign=middle;resizable=0;points=[];autosize=1;strokeColor=none;fillColor=none;" vertex="1" parent="1">
          <mxGeometry x="500.03" y="1865" width="30" height="30" as="geometry" />
        </mxCell>
        <mxCell id="F5btuEF4g0F6uqBdUG4N-271" value="data" style="rounded=0;whiteSpace=wrap;html=1;" vertex="1" parent="1">
          <mxGeometry x="530.03" y="1980" width="50" height="60" as="geometry" />
        </mxCell>
        <mxCell id="F5btuEF4g0F6uqBdUG4N-272" value="" style="verticalLabelPosition=bottom;verticalAlign=top;html=1;shape=mxgraph.basic.pie;startAngle=0.0015914963824541276;endAngle=0.4968173254495136;" vertex="1" parent="1">
          <mxGeometry x="550.03" y="1980" width="60" height="60" as="geometry" />
        </mxCell>
        <mxCell id="F5btuEF4g0F6uqBdUG4N-273" value="" style="verticalLabelPosition=bottom;verticalAlign=top;html=1;shape=mxgraph.basic.pie;startAngle=0.0015914963824541276;endAngle=0.4968173254495136;rotation=-180;" vertex="1" parent="1">
          <mxGeometry x="500.03" y="1980" width="60" height="60" as="geometry" />
        </mxCell>
        <mxCell id="F5btuEF4g0F6uqBdUG4N-274" value="n" style="text;html=1;align=center;verticalAlign=middle;resizable=0;points=[];autosize=1;strokeColor=none;fillColor=none;" vertex="1" parent="1">
          <mxGeometry x="580.03" y="1995" width="30" height="30" as="geometry" />
        </mxCell>
        <mxCell id="F5btuEF4g0F6uqBdUG4N-275" style="edgeStyle=orthogonalEdgeStyle;rounded=0;orthogonalLoop=1;jettySize=auto;html=1;" edge="1" parent="1" source="F5btuEF4g0F6uqBdUG4N-276" target="F5btuEF4g0F6uqBdUG4N-267">
          <mxGeometry relative="1" as="geometry" />
        </mxCell>
        <mxCell id="F5btuEF4g0F6uqBdUG4N-276" value="p" style="text;html=1;align=center;verticalAlign=middle;resizable=0;points=[];autosize=1;strokeColor=none;fillColor=none;" vertex="1" parent="1">
          <mxGeometry x="500.03" y="1995" width="30" height="30" as="geometry" />
        </mxCell>
        <mxCell id="F5btuEF4g0F6uqBdUG4N-277" style="edgeStyle=orthogonalEdgeStyle;rounded=0;orthogonalLoop=1;jettySize=auto;html=1;entryX=0.493;entryY=0.013;entryDx=0;entryDy=0;entryPerimeter=0;" edge="1" parent="1" source="F5btuEF4g0F6uqBdUG4N-268" target="F5btuEF4g0F6uqBdUG4N-272">
          <mxGeometry relative="1" as="geometry" />
        </mxCell>
        <mxCell id="F5btuEF4g0F6uqBdUG4N-278" style="edgeStyle=orthogonalEdgeStyle;rounded=0;orthogonalLoop=1;jettySize=auto;html=1;entryX=0.5;entryY=0;entryDx=0;entryDy=0;entryPerimeter=0;" edge="1" parent="1" source="F5btuEF4g0F6uqBdUG4N-274" target="F5btuEF4g0F6uqBdUG4N-254">
          <mxGeometry relative="1" as="geometry" />
        </mxCell>
        <mxCell id="F5btuEF4g0F6uqBdUG4N-279" style="edgeStyle=orthogonalEdgeStyle;rounded=0;orthogonalLoop=1;jettySize=auto;html=1;entryX=0.5;entryY=0;entryDx=0;entryDy=0;entryPerimeter=0;" edge="1" parent="1" source="F5btuEF4g0F6uqBdUG4N-257" target="F5btuEF4g0F6uqBdUG4N-273">
          <mxGeometry relative="1" as="geometry" />
        </mxCell>
        <mxCell id="F5btuEF4g0F6uqBdUG4N-280" style="edgeStyle=orthogonalEdgeStyle;rounded=0;orthogonalLoop=1;jettySize=auto;html=1;entryX=0.5;entryY=0;entryDx=0;entryDy=0;entryPerimeter=0;" edge="1" parent="1" source="F5btuEF4g0F6uqBdUG4N-261" target="F5btuEF4g0F6uqBdUG4N-266">
          <mxGeometry relative="1" as="geometry">
            <Array as="points">
              <mxPoint x="640.03" y="2250" />
              <mxPoint x="640.03" y="1830" />
              <mxPoint x="580.03" y="1830" />
            </Array>
          </mxGeometry>
        </mxCell>
        <mxCell id="F5btuEF4g0F6uqBdUG4N-287" value="data" style="rounded=0;whiteSpace=wrap;html=1;" vertex="1" parent="1">
          <mxGeometry x="249.99999999999997" y="2630" width="50" height="60" as="geometry" />
        </mxCell>
        <mxCell id="F5btuEF4g0F6uqBdUG4N-288" value="" style="verticalLabelPosition=bottom;verticalAlign=top;html=1;shape=mxgraph.basic.pie;startAngle=0.0015914963824541276;endAngle=0.4968173254495136;" vertex="1" parent="1">
          <mxGeometry x="270" y="2630" width="60" height="60" as="geometry" />
        </mxCell>
        <mxCell id="F5btuEF4g0F6uqBdUG4N-289" value="" style="verticalLabelPosition=bottom;verticalAlign=top;html=1;shape=mxgraph.basic.pie;startAngle=0.0015914963824541276;endAngle=0.4968173254495136;rotation=-180;" vertex="1" parent="1">
          <mxGeometry x="219.99999999999997" y="2630" width="60" height="60" as="geometry" />
        </mxCell>
        <mxCell id="F5btuEF4g0F6uqBdUG4N-290" value="n" style="text;html=1;align=center;verticalAlign=middle;resizable=0;points=[];autosize=1;strokeColor=none;fillColor=none;" vertex="1" parent="1">
          <mxGeometry x="300" y="2645" width="30" height="30" as="geometry" />
        </mxCell>
        <mxCell id="F5btuEF4g0F6uqBdUG4N-291" value="p" style="text;html=1;align=center;verticalAlign=middle;resizable=0;points=[];autosize=1;strokeColor=none;fillColor=none;" vertex="1" parent="1">
          <mxGeometry x="219.99999999999997" y="2645" width="30" height="30" as="geometry" />
        </mxCell>
        <mxCell id="F5btuEF4g0F6uqBdUG4N-292" value="data" style="rounded=0;whiteSpace=wrap;html=1;" vertex="1" parent="1">
          <mxGeometry x="249.99999999999997" y="2760" width="50" height="60" as="geometry" />
        </mxCell>
        <mxCell id="F5btuEF4g0F6uqBdUG4N-293" value="" style="verticalLabelPosition=bottom;verticalAlign=top;html=1;shape=mxgraph.basic.pie;startAngle=0.0015914963824541276;endAngle=0.4968173254495136;" vertex="1" parent="1">
          <mxGeometry x="270" y="2760" width="60" height="60" as="geometry" />
        </mxCell>
        <mxCell id="F5btuEF4g0F6uqBdUG4N-294" value="" style="verticalLabelPosition=bottom;verticalAlign=top;html=1;shape=mxgraph.basic.pie;startAngle=0.0015914963824541276;endAngle=0.4968173254495136;rotation=-180;" vertex="1" parent="1">
          <mxGeometry x="219.99999999999997" y="2760" width="60" height="60" as="geometry" />
        </mxCell>
        <mxCell id="F5btuEF4g0F6uqBdUG4N-296" value="n" style="text;html=1;align=center;verticalAlign=middle;resizable=0;points=[];autosize=1;strokeColor=none;fillColor=none;" vertex="1" parent="1">
          <mxGeometry x="300" y="2775" width="30" height="30" as="geometry" />
        </mxCell>
        <mxCell id="F5btuEF4g0F6uqBdUG4N-297" style="edgeStyle=orthogonalEdgeStyle;rounded=0;orthogonalLoop=1;jettySize=auto;html=1;" edge="1" parent="1" source="F5btuEF4g0F6uqBdUG4N-298" target="F5btuEF4g0F6uqBdUG4N-289">
          <mxGeometry relative="1" as="geometry" />
        </mxCell>
        <mxCell id="F5btuEF4g0F6uqBdUG4N-298" value="p" style="text;html=1;align=center;verticalAlign=middle;resizable=0;points=[];autosize=1;strokeColor=none;fillColor=none;" vertex="1" parent="1">
          <mxGeometry x="219.99999999999997" y="2775" width="30" height="30" as="geometry" />
        </mxCell>
        <mxCell id="F5btuEF4g0F6uqBdUG4N-299" style="edgeStyle=orthogonalEdgeStyle;rounded=0;orthogonalLoop=1;jettySize=auto;html=1;entryX=0.493;entryY=0.013;entryDx=0;entryDy=0;entryPerimeter=0;" edge="1" parent="1" source="F5btuEF4g0F6uqBdUG4N-290" target="F5btuEF4g0F6uqBdUG4N-293">
          <mxGeometry relative="1" as="geometry" />
        </mxCell>
        <mxCell id="F5btuEF4g0F6uqBdUG4N-300" value="data" style="rounded=0;whiteSpace=wrap;html=1;" vertex="1" parent="1">
          <mxGeometry x="249.99999999999997" y="2390" width="50" height="60" as="geometry" />
        </mxCell>
        <mxCell id="F5btuEF4g0F6uqBdUG4N-301" value="" style="verticalLabelPosition=bottom;verticalAlign=top;html=1;shape=mxgraph.basic.pie;startAngle=0.0015914963824541276;endAngle=0.4968173254495136;" vertex="1" parent="1">
          <mxGeometry x="270" y="2390" width="60" height="60" as="geometry" />
        </mxCell>
        <mxCell id="F5btuEF4g0F6uqBdUG4N-302" value="" style="verticalLabelPosition=bottom;verticalAlign=top;html=1;shape=mxgraph.basic.pie;startAngle=0.0015914963824541276;endAngle=0.4968173254495136;rotation=-180;" vertex="1" parent="1">
          <mxGeometry x="219.99999999999997" y="2390" width="60" height="60" as="geometry" />
        </mxCell>
        <mxCell id="F5btuEF4g0F6uqBdUG4N-303" value="n" style="text;html=1;align=center;verticalAlign=middle;resizable=0;points=[];autosize=1;strokeColor=none;fillColor=none;" vertex="1" parent="1">
          <mxGeometry x="300" y="2405" width="30" height="30" as="geometry" />
        </mxCell>
        <mxCell id="F5btuEF4g0F6uqBdUG4N-304" style="edgeStyle=orthogonalEdgeStyle;rounded=0;orthogonalLoop=1;jettySize=auto;html=1;entryX=0;entryY=1;entryDx=0;entryDy=0;" edge="1" parent="1" source="F5btuEF4g0F6uqBdUG4N-305" target="F5btuEF4g0F6uqBdUG4N-292">
          <mxGeometry relative="1" as="geometry">
            <Array as="points">
              <mxPoint x="189.99999999999997" y="2420" />
              <mxPoint x="189.99999999999997" y="2840" />
              <mxPoint x="249.99999999999997" y="2840" />
            </Array>
          </mxGeometry>
        </mxCell>
        <mxCell id="F5btuEF4g0F6uqBdUG4N-305" value="p" style="text;html=1;align=center;verticalAlign=middle;resizable=0;points=[];autosize=1;strokeColor=none;fillColor=none;" vertex="1" parent="1">
          <mxGeometry x="219.99999999999997" y="2405" width="30" height="30" as="geometry" />
        </mxCell>
        <mxCell id="F5btuEF4g0F6uqBdUG4N-306" value="data" style="rounded=0;whiteSpace=wrap;html=1;" vertex="1" parent="1">
          <mxGeometry x="249.99999999999997" y="2520" width="50" height="60" as="geometry" />
        </mxCell>
        <mxCell id="F5btuEF4g0F6uqBdUG4N-307" value="" style="verticalLabelPosition=bottom;verticalAlign=top;html=1;shape=mxgraph.basic.pie;startAngle=0.0015914963824541276;endAngle=0.4968173254495136;" vertex="1" parent="1">
          <mxGeometry x="270" y="2520" width="60" height="60" as="geometry" />
        </mxCell>
        <mxCell id="F5btuEF4g0F6uqBdUG4N-308" value="" style="verticalLabelPosition=bottom;verticalAlign=top;html=1;shape=mxgraph.basic.pie;startAngle=0.0015914963824541276;endAngle=0.4968173254495136;rotation=-180;" vertex="1" parent="1">
          <mxGeometry x="219.99999999999997" y="2520" width="60" height="60" as="geometry" />
        </mxCell>
        <mxCell id="F5btuEF4g0F6uqBdUG4N-309" value="n" style="text;html=1;align=center;verticalAlign=middle;resizable=0;points=[];autosize=1;strokeColor=none;fillColor=none;" vertex="1" parent="1">
          <mxGeometry x="300" y="2535" width="30" height="30" as="geometry" />
        </mxCell>
        <mxCell id="F5btuEF4g0F6uqBdUG4N-347" style="edgeStyle=orthogonalEdgeStyle;rounded=0;orthogonalLoop=1;jettySize=auto;html=1;entryX=0.5;entryY=1;entryDx=0;entryDy=0;fillColor=#d5e8d4;strokeColor=#82b366;" edge="1" parent="1" source="F5btuEF4g0F6uqBdUG4N-311" target="F5btuEF4g0F6uqBdUG4N-292">
          <mxGeometry relative="1" as="geometry">
            <Array as="points">
              <mxPoint x="170" y="2550" />
              <mxPoint x="170" y="2860" />
              <mxPoint x="275" y="2860" />
            </Array>
          </mxGeometry>
        </mxCell>
        <mxCell id="F5btuEF4g0F6uqBdUG4N-311" value="p" style="text;html=1;align=center;verticalAlign=middle;resizable=0;points=[];autosize=1;strokeColor=none;fillColor=none;" vertex="1" parent="1">
          <mxGeometry x="219.99999999999997" y="2535" width="30" height="30" as="geometry" />
        </mxCell>
        <mxCell id="F5btuEF4g0F6uqBdUG4N-312" style="edgeStyle=orthogonalEdgeStyle;rounded=0;orthogonalLoop=1;jettySize=auto;html=1;entryX=0.493;entryY=0.013;entryDx=0;entryDy=0;entryPerimeter=0;" edge="1" parent="1" source="F5btuEF4g0F6uqBdUG4N-303" target="F5btuEF4g0F6uqBdUG4N-307">
          <mxGeometry relative="1" as="geometry" />
        </mxCell>
        <mxCell id="F5btuEF4g0F6uqBdUG4N-313" style="edgeStyle=orthogonalEdgeStyle;rounded=0;orthogonalLoop=1;jettySize=auto;html=1;entryX=0.5;entryY=0;entryDx=0;entryDy=0;entryPerimeter=0;" edge="1" parent="1" source="F5btuEF4g0F6uqBdUG4N-309" target="F5btuEF4g0F6uqBdUG4N-288">
          <mxGeometry relative="1" as="geometry" />
        </mxCell>
        <mxCell id="F5btuEF4g0F6uqBdUG4N-314" style="edgeStyle=orthogonalEdgeStyle;rounded=0;orthogonalLoop=1;jettySize=auto;html=1;entryX=0.5;entryY=0;entryDx=0;entryDy=0;entryPerimeter=0;" edge="1" parent="1" source="F5btuEF4g0F6uqBdUG4N-291" target="F5btuEF4g0F6uqBdUG4N-308">
          <mxGeometry relative="1" as="geometry" />
        </mxCell>
        <mxCell id="F5btuEF4g0F6uqBdUG4N-315" value="data" style="rounded=0;whiteSpace=wrap;html=1;" vertex="1" parent="1">
          <mxGeometry x="530" y="2630" width="50" height="60" as="geometry" />
        </mxCell>
        <mxCell id="F5btuEF4g0F6uqBdUG4N-316" value="" style="verticalLabelPosition=bottom;verticalAlign=top;html=1;shape=mxgraph.basic.pie;startAngle=0.0015914963824541276;endAngle=0.4968173254495136;" vertex="1" parent="1">
          <mxGeometry x="550" y="2630" width="60" height="60" as="geometry" />
        </mxCell>
        <mxCell id="F5btuEF4g0F6uqBdUG4N-317" value="" style="verticalLabelPosition=bottom;verticalAlign=top;html=1;shape=mxgraph.basic.pie;startAngle=0.0015914963824541276;endAngle=0.4968173254495136;rotation=-180;" vertex="1" parent="1">
          <mxGeometry x="500" y="2630" width="60" height="60" as="geometry" />
        </mxCell>
        <mxCell id="F5btuEF4g0F6uqBdUG4N-318" value="n" style="text;html=1;align=center;verticalAlign=middle;resizable=0;points=[];autosize=1;strokeColor=none;fillColor=none;" vertex="1" parent="1">
          <mxGeometry x="580" y="2645" width="30" height="30" as="geometry" />
        </mxCell>
        <mxCell id="F5btuEF4g0F6uqBdUG4N-319" value="p" style="text;html=1;align=center;verticalAlign=middle;resizable=0;points=[];autosize=1;strokeColor=none;fillColor=none;" vertex="1" parent="1">
          <mxGeometry x="500" y="2645" width="30" height="30" as="geometry" />
        </mxCell>
        <mxCell id="F5btuEF4g0F6uqBdUG4N-320" value="data" style="rounded=0;whiteSpace=wrap;html=1;" vertex="1" parent="1">
          <mxGeometry x="530" y="2760" width="50" height="60" as="geometry" />
        </mxCell>
        <mxCell id="F5btuEF4g0F6uqBdUG4N-321" value="" style="verticalLabelPosition=bottom;verticalAlign=top;html=1;shape=mxgraph.basic.pie;startAngle=0.0015914963824541276;endAngle=0.4968173254495136;" vertex="1" parent="1">
          <mxGeometry x="550" y="2760" width="60" height="60" as="geometry" />
        </mxCell>
        <mxCell id="F5btuEF4g0F6uqBdUG4N-322" value="" style="verticalLabelPosition=bottom;verticalAlign=top;html=1;shape=mxgraph.basic.pie;startAngle=0.0015914963824541276;endAngle=0.4968173254495136;rotation=-180;" vertex="1" parent="1">
          <mxGeometry x="500" y="2760" width="60" height="60" as="geometry" />
        </mxCell>
        <mxCell id="F5btuEF4g0F6uqBdUG4N-323" value="n" style="text;html=1;align=center;verticalAlign=middle;resizable=0;points=[];autosize=1;strokeColor=none;fillColor=none;" vertex="1" parent="1">
          <mxGeometry x="580" y="2775" width="30" height="30" as="geometry" />
        </mxCell>
        <mxCell id="F5btuEF4g0F6uqBdUG4N-324" style="edgeStyle=orthogonalEdgeStyle;rounded=0;orthogonalLoop=1;jettySize=auto;html=1;" edge="1" parent="1" source="F5btuEF4g0F6uqBdUG4N-325" target="F5btuEF4g0F6uqBdUG4N-317">
          <mxGeometry relative="1" as="geometry" />
        </mxCell>
        <mxCell id="F5btuEF4g0F6uqBdUG4N-325" value="p" style="text;html=1;align=center;verticalAlign=middle;resizable=0;points=[];autosize=1;strokeColor=none;fillColor=none;" vertex="1" parent="1">
          <mxGeometry x="500" y="2775" width="30" height="30" as="geometry" />
        </mxCell>
        <mxCell id="F5btuEF4g0F6uqBdUG4N-326" style="edgeStyle=orthogonalEdgeStyle;rounded=0;orthogonalLoop=1;jettySize=auto;html=1;entryX=0.493;entryY=0.013;entryDx=0;entryDy=0;entryPerimeter=0;" edge="1" parent="1" source="F5btuEF4g0F6uqBdUG4N-318" target="F5btuEF4g0F6uqBdUG4N-321">
          <mxGeometry relative="1" as="geometry" />
        </mxCell>
        <mxCell id="F5btuEF4g0F6uqBdUG4N-327" value="data" style="rounded=0;whiteSpace=wrap;html=1;" vertex="1" parent="1">
          <mxGeometry x="530" y="2390" width="50" height="60" as="geometry" />
        </mxCell>
        <mxCell id="F5btuEF4g0F6uqBdUG4N-328" value="" style="verticalLabelPosition=bottom;verticalAlign=top;html=1;shape=mxgraph.basic.pie;startAngle=0.0015914963824541276;endAngle=0.4968173254495136;" vertex="1" parent="1">
          <mxGeometry x="550" y="2390" width="60" height="60" as="geometry" />
        </mxCell>
        <mxCell id="F5btuEF4g0F6uqBdUG4N-329" value="" style="verticalLabelPosition=bottom;verticalAlign=top;html=1;shape=mxgraph.basic.pie;startAngle=0.0015914963824541276;endAngle=0.4968173254495136;rotation=-180;" vertex="1" parent="1">
          <mxGeometry x="500" y="2390" width="60" height="60" as="geometry" />
        </mxCell>
        <mxCell id="F5btuEF4g0F6uqBdUG4N-330" value="n" style="text;html=1;align=center;verticalAlign=middle;resizable=0;points=[];autosize=1;strokeColor=none;fillColor=none;" vertex="1" parent="1">
          <mxGeometry x="580" y="2405" width="30" height="30" as="geometry" />
        </mxCell>
        <mxCell id="F5btuEF4g0F6uqBdUG4N-331" style="edgeStyle=orthogonalEdgeStyle;rounded=0;orthogonalLoop=1;jettySize=auto;html=1;entryX=0;entryY=1;entryDx=0;entryDy=0;" edge="1" parent="1" source="F5btuEF4g0F6uqBdUG4N-332" target="F5btuEF4g0F6uqBdUG4N-320">
          <mxGeometry relative="1" as="geometry">
            <Array as="points">
              <mxPoint x="470" y="2420" />
              <mxPoint x="470" y="2840" />
              <mxPoint x="530" y="2840" />
            </Array>
          </mxGeometry>
        </mxCell>
        <mxCell id="F5btuEF4g0F6uqBdUG4N-332" value="p" style="text;html=1;align=center;verticalAlign=middle;resizable=0;points=[];autosize=1;strokeColor=none;fillColor=none;" vertex="1" parent="1">
          <mxGeometry x="500" y="2405" width="30" height="30" as="geometry" />
        </mxCell>
        <mxCell id="F5btuEF4g0F6uqBdUG4N-333" value="data" style="rounded=0;whiteSpace=wrap;html=1;" vertex="1" parent="1">
          <mxGeometry x="530" y="2520" width="50" height="60" as="geometry" />
        </mxCell>
        <mxCell id="F5btuEF4g0F6uqBdUG4N-334" value="" style="verticalLabelPosition=bottom;verticalAlign=top;html=1;shape=mxgraph.basic.pie;startAngle=0.0015914963824541276;endAngle=0.4968173254495136;" vertex="1" parent="1">
          <mxGeometry x="550" y="2520" width="60" height="60" as="geometry" />
        </mxCell>
        <mxCell id="F5btuEF4g0F6uqBdUG4N-335" value="" style="verticalLabelPosition=bottom;verticalAlign=top;html=1;shape=mxgraph.basic.pie;startAngle=0.0015914963824541276;endAngle=0.4968173254495136;rotation=-180;" vertex="1" parent="1">
          <mxGeometry x="500" y="2520" width="60" height="60" as="geometry" />
        </mxCell>
        <mxCell id="F5btuEF4g0F6uqBdUG4N-336" value="n" style="text;html=1;align=center;verticalAlign=middle;resizable=0;points=[];autosize=1;strokeColor=none;fillColor=none;" vertex="1" parent="1">
          <mxGeometry x="580" y="2535" width="30" height="30" as="geometry" />
        </mxCell>
        <mxCell id="F5btuEF4g0F6uqBdUG4N-337" style="edgeStyle=orthogonalEdgeStyle;rounded=0;orthogonalLoop=1;jettySize=auto;html=1;" edge="1" parent="1" source="F5btuEF4g0F6uqBdUG4N-338" target="F5btuEF4g0F6uqBdUG4N-329">
          <mxGeometry relative="1" as="geometry" />
        </mxCell>
        <mxCell id="F5btuEF4g0F6uqBdUG4N-338" value="p" style="text;html=1;align=center;verticalAlign=middle;resizable=0;points=[];autosize=1;strokeColor=none;fillColor=none;" vertex="1" parent="1">
          <mxGeometry x="500" y="2535" width="30" height="30" as="geometry" />
        </mxCell>
        <mxCell id="F5btuEF4g0F6uqBdUG4N-339" style="edgeStyle=orthogonalEdgeStyle;rounded=0;orthogonalLoop=1;jettySize=auto;html=1;entryX=0.493;entryY=0.013;entryDx=0;entryDy=0;entryPerimeter=0;" edge="1" parent="1" source="F5btuEF4g0F6uqBdUG4N-330" target="F5btuEF4g0F6uqBdUG4N-334">
          <mxGeometry relative="1" as="geometry" />
        </mxCell>
        <mxCell id="F5btuEF4g0F6uqBdUG4N-340" style="edgeStyle=orthogonalEdgeStyle;rounded=0;orthogonalLoop=1;jettySize=auto;html=1;entryX=0.5;entryY=0;entryDx=0;entryDy=0;entryPerimeter=0;" edge="1" parent="1" source="F5btuEF4g0F6uqBdUG4N-336" target="F5btuEF4g0F6uqBdUG4N-316">
          <mxGeometry relative="1" as="geometry" />
        </mxCell>
        <mxCell id="F5btuEF4g0F6uqBdUG4N-341" style="edgeStyle=orthogonalEdgeStyle;rounded=0;orthogonalLoop=1;jettySize=auto;html=1;entryX=0.5;entryY=0;entryDx=0;entryDy=0;entryPerimeter=0;" edge="1" parent="1" source="F5btuEF4g0F6uqBdUG4N-319" target="F5btuEF4g0F6uqBdUG4N-335">
          <mxGeometry relative="1" as="geometry" />
        </mxCell>
        <mxCell id="F5btuEF4g0F6uqBdUG4N-342" style="edgeStyle=orthogonalEdgeStyle;rounded=0;orthogonalLoop=1;jettySize=auto;html=1;entryX=0.5;entryY=0;entryDx=0;entryDy=0;entryPerimeter=0;" edge="1" parent="1" source="F5btuEF4g0F6uqBdUG4N-323" target="F5btuEF4g0F6uqBdUG4N-328">
          <mxGeometry relative="1" as="geometry">
            <Array as="points">
              <mxPoint x="640" y="2790" />
              <mxPoint x="640" y="2370" />
              <mxPoint x="580" y="2370" />
            </Array>
          </mxGeometry>
        </mxCell>
        <mxCell id="F5btuEF4g0F6uqBdUG4N-349" value="data" style="rounded=0;whiteSpace=wrap;html=1;" vertex="1" parent="1">
          <mxGeometry x="250" y="3180" width="50" height="60" as="geometry" />
        </mxCell>
        <mxCell id="F5btuEF4g0F6uqBdUG4N-350" value="" style="verticalLabelPosition=bottom;verticalAlign=top;html=1;shape=mxgraph.basic.pie;startAngle=0.0015914963824541276;endAngle=0.4968173254495136;" vertex="1" parent="1">
          <mxGeometry x="270" y="3180" width="60" height="60" as="geometry" />
        </mxCell>
        <mxCell id="F5btuEF4g0F6uqBdUG4N-351" value="" style="verticalLabelPosition=bottom;verticalAlign=top;html=1;shape=mxgraph.basic.pie;startAngle=0.0015914963824541276;endAngle=0.4968173254495136;rotation=-180;" vertex="1" parent="1">
          <mxGeometry x="219.99999999999997" y="3180" width="60" height="60" as="geometry" />
        </mxCell>
        <mxCell id="F5btuEF4g0F6uqBdUG4N-352" value="n" style="text;html=1;align=center;verticalAlign=middle;resizable=0;points=[];autosize=1;strokeColor=none;fillColor=none;" vertex="1" parent="1">
          <mxGeometry x="300" y="3195" width="30" height="30" as="geometry" />
        </mxCell>
        <mxCell id="F5btuEF4g0F6uqBdUG4N-353" value="p" style="text;html=1;align=center;verticalAlign=middle;resizable=0;points=[];autosize=1;strokeColor=none;fillColor=none;" vertex="1" parent="1">
          <mxGeometry x="219.99999999999997" y="3195" width="30" height="30" as="geometry" />
        </mxCell>
        <mxCell id="F5btuEF4g0F6uqBdUG4N-354" value="data" style="rounded=0;whiteSpace=wrap;html=1;" vertex="1" parent="1">
          <mxGeometry x="250" y="3310" width="50" height="60" as="geometry" />
        </mxCell>
        <mxCell id="F5btuEF4g0F6uqBdUG4N-355" value="" style="verticalLabelPosition=bottom;verticalAlign=top;html=1;shape=mxgraph.basic.pie;startAngle=0.0015914963824541276;endAngle=0.4968173254495136;" vertex="1" parent="1">
          <mxGeometry x="270" y="3310" width="60" height="60" as="geometry" />
        </mxCell>
        <mxCell id="F5btuEF4g0F6uqBdUG4N-356" value="" style="verticalLabelPosition=bottom;verticalAlign=top;html=1;shape=mxgraph.basic.pie;startAngle=0.0015914963824541276;endAngle=0.4968173254495136;rotation=-180;" vertex="1" parent="1">
          <mxGeometry x="219.99999999999997" y="3310" width="60" height="60" as="geometry" />
        </mxCell>
        <mxCell id="F5btuEF4g0F6uqBdUG4N-357" style="edgeStyle=orthogonalEdgeStyle;rounded=0;orthogonalLoop=1;jettySize=auto;html=1;entryX=0.75;entryY=0;entryDx=0;entryDy=0;" edge="1" parent="1" source="F5btuEF4g0F6uqBdUG4N-358" target="F5btuEF4g0F6uqBdUG4N-368">
          <mxGeometry relative="1" as="geometry">
            <Array as="points">
              <mxPoint x="370" y="3340" />
              <mxPoint x="370" y="3050" />
              <mxPoint x="288" y="3050" />
            </Array>
          </mxGeometry>
        </mxCell>
        <mxCell id="F5btuEF4g0F6uqBdUG4N-358" value="n" style="text;html=1;align=center;verticalAlign=middle;resizable=0;points=[];autosize=1;strokeColor=none;fillColor=none;" vertex="1" parent="1">
          <mxGeometry x="300" y="3325" width="30" height="30" as="geometry" />
        </mxCell>
        <mxCell id="F5btuEF4g0F6uqBdUG4N-359" style="edgeStyle=orthogonalEdgeStyle;rounded=0;orthogonalLoop=1;jettySize=auto;html=1;" edge="1" parent="1" source="F5btuEF4g0F6uqBdUG4N-360" target="F5btuEF4g0F6uqBdUG4N-351">
          <mxGeometry relative="1" as="geometry" />
        </mxCell>
        <mxCell id="F5btuEF4g0F6uqBdUG4N-360" value="p" style="text;html=1;align=center;verticalAlign=middle;resizable=0;points=[];autosize=1;strokeColor=none;fillColor=none;" vertex="1" parent="1">
          <mxGeometry x="219.99999999999997" y="3325" width="30" height="30" as="geometry" />
        </mxCell>
        <mxCell id="F5btuEF4g0F6uqBdUG4N-361" style="edgeStyle=orthogonalEdgeStyle;rounded=0;orthogonalLoop=1;jettySize=auto;html=1;entryX=0.493;entryY=0.013;entryDx=0;entryDy=0;entryPerimeter=0;" edge="1" parent="1" source="F5btuEF4g0F6uqBdUG4N-352" target="F5btuEF4g0F6uqBdUG4N-355">
          <mxGeometry relative="1" as="geometry" />
        </mxCell>
        <mxCell id="F5btuEF4g0F6uqBdUG4N-362" value="data" style="rounded=0;whiteSpace=wrap;html=1;" vertex="1" parent="1">
          <mxGeometry x="250" y="2940" width="50" height="60" as="geometry" />
        </mxCell>
        <mxCell id="F5btuEF4g0F6uqBdUG4N-363" value="" style="verticalLabelPosition=bottom;verticalAlign=top;html=1;shape=mxgraph.basic.pie;startAngle=0.0015914963824541276;endAngle=0.4968173254495136;" vertex="1" parent="1">
          <mxGeometry x="270" y="2940" width="60" height="60" as="geometry" />
        </mxCell>
        <mxCell id="F5btuEF4g0F6uqBdUG4N-364" value="" style="verticalLabelPosition=bottom;verticalAlign=top;html=1;shape=mxgraph.basic.pie;startAngle=0.0015914963824541276;endAngle=0.4968173254495136;rotation=-180;" vertex="1" parent="1">
          <mxGeometry x="219.99999999999997" y="2940" width="60" height="60" as="geometry" />
        </mxCell>
        <mxCell id="F5btuEF4g0F6uqBdUG4N-365" value="n" style="text;html=1;align=center;verticalAlign=middle;resizable=0;points=[];autosize=1;strokeColor=none;fillColor=none;" vertex="1" parent="1">
          <mxGeometry x="300" y="2955" width="30" height="30" as="geometry" />
        </mxCell>
        <mxCell id="F5btuEF4g0F6uqBdUG4N-409" style="edgeStyle=orthogonalEdgeStyle;rounded=0;orthogonalLoop=1;jettySize=auto;html=1;entryX=0.5;entryY=1;entryDx=0;entryDy=0;fillColor=#d5e8d4;strokeColor=#82b366;" edge="1" parent="1" source="F5btuEF4g0F6uqBdUG4N-367" target="F5btuEF4g0F6uqBdUG4N-382">
          <mxGeometry relative="1" as="geometry">
            <Array as="points">
              <mxPoint x="235" y="3020" />
              <mxPoint x="400" y="3020" />
              <mxPoint x="400" y="3410" />
              <mxPoint x="555" y="3410" />
            </Array>
          </mxGeometry>
        </mxCell>
        <mxCell id="F5btuEF4g0F6uqBdUG4N-367" value="p" style="text;html=1;align=center;verticalAlign=middle;resizable=0;points=[];autosize=1;strokeColor=none;fillColor=none;" vertex="1" parent="1">
          <mxGeometry x="219.99999999999997" y="2955" width="30" height="30" as="geometry" />
        </mxCell>
        <mxCell id="F5btuEF4g0F6uqBdUG4N-368" value="data" style="rounded=0;whiteSpace=wrap;html=1;" vertex="1" parent="1">
          <mxGeometry x="250" y="3070" width="50" height="60" as="geometry" />
        </mxCell>
        <mxCell id="F5btuEF4g0F6uqBdUG4N-369" value="" style="verticalLabelPosition=bottom;verticalAlign=top;html=1;shape=mxgraph.basic.pie;startAngle=0.0015914963824541276;endAngle=0.4968173254495136;" vertex="1" parent="1">
          <mxGeometry x="270" y="3070" width="60" height="60" as="geometry" />
        </mxCell>
        <mxCell id="F5btuEF4g0F6uqBdUG4N-370" value="" style="verticalLabelPosition=bottom;verticalAlign=top;html=1;shape=mxgraph.basic.pie;startAngle=0.0015914963824541276;endAngle=0.4968173254495136;rotation=-180;" vertex="1" parent="1">
          <mxGeometry x="219.99999999999997" y="3070" width="60" height="60" as="geometry" />
        </mxCell>
        <mxCell id="F5btuEF4g0F6uqBdUG4N-371" value="n" style="text;html=1;align=center;verticalAlign=middle;resizable=0;points=[];autosize=1;strokeColor=none;fillColor=none;" vertex="1" parent="1">
          <mxGeometry x="300" y="3085" width="30" height="30" as="geometry" />
        </mxCell>
        <mxCell id="F5btuEF4g0F6uqBdUG4N-372" style="edgeStyle=orthogonalEdgeStyle;rounded=0;orthogonalLoop=1;jettySize=auto;html=1;entryX=0.5;entryY=1;entryDx=0;entryDy=0;" edge="1" parent="1" source="F5btuEF4g0F6uqBdUG4N-373" target="F5btuEF4g0F6uqBdUG4N-354">
          <mxGeometry relative="1" as="geometry">
            <Array as="points">
              <mxPoint x="170" y="3100" />
              <mxPoint x="170" y="3410" />
              <mxPoint x="275" y="3410" />
            </Array>
          </mxGeometry>
        </mxCell>
        <mxCell id="F5btuEF4g0F6uqBdUG4N-373" value="p" style="text;html=1;align=center;verticalAlign=middle;resizable=0;points=[];autosize=1;strokeColor=none;fillColor=none;" vertex="1" parent="1">
          <mxGeometry x="219.99999999999997" y="3085" width="30" height="30" as="geometry" />
        </mxCell>
        <mxCell id="F5btuEF4g0F6uqBdUG4N-374" style="edgeStyle=orthogonalEdgeStyle;rounded=0;orthogonalLoop=1;jettySize=auto;html=1;entryX=0.493;entryY=0.013;entryDx=0;entryDy=0;entryPerimeter=0;" edge="1" parent="1" source="F5btuEF4g0F6uqBdUG4N-365" target="F5btuEF4g0F6uqBdUG4N-369">
          <mxGeometry relative="1" as="geometry" />
        </mxCell>
        <mxCell id="F5btuEF4g0F6uqBdUG4N-375" style="edgeStyle=orthogonalEdgeStyle;rounded=0;orthogonalLoop=1;jettySize=auto;html=1;entryX=0.5;entryY=0;entryDx=0;entryDy=0;entryPerimeter=0;" edge="1" parent="1" source="F5btuEF4g0F6uqBdUG4N-371" target="F5btuEF4g0F6uqBdUG4N-350">
          <mxGeometry relative="1" as="geometry" />
        </mxCell>
        <mxCell id="F5btuEF4g0F6uqBdUG4N-376" style="edgeStyle=orthogonalEdgeStyle;rounded=0;orthogonalLoop=1;jettySize=auto;html=1;entryX=0.5;entryY=0;entryDx=0;entryDy=0;entryPerimeter=0;" edge="1" parent="1" source="F5btuEF4g0F6uqBdUG4N-353" target="F5btuEF4g0F6uqBdUG4N-370">
          <mxGeometry relative="1" as="geometry" />
        </mxCell>
        <mxCell id="F5btuEF4g0F6uqBdUG4N-377" value="data" style="rounded=0;whiteSpace=wrap;html=1;" vertex="1" parent="1">
          <mxGeometry x="530" y="3180" width="50" height="60" as="geometry" />
        </mxCell>
        <mxCell id="F5btuEF4g0F6uqBdUG4N-378" value="" style="verticalLabelPosition=bottom;verticalAlign=top;html=1;shape=mxgraph.basic.pie;startAngle=0.0015914963824541276;endAngle=0.4968173254495136;" vertex="1" parent="1">
          <mxGeometry x="550" y="3180" width="60" height="60" as="geometry" />
        </mxCell>
        <mxCell id="F5btuEF4g0F6uqBdUG4N-379" value="" style="verticalLabelPosition=bottom;verticalAlign=top;html=1;shape=mxgraph.basic.pie;startAngle=0.0015914963824541276;endAngle=0.4968173254495136;rotation=-180;" vertex="1" parent="1">
          <mxGeometry x="500" y="3180" width="60" height="60" as="geometry" />
        </mxCell>
        <mxCell id="F5btuEF4g0F6uqBdUG4N-380" value="n" style="text;html=1;align=center;verticalAlign=middle;resizable=0;points=[];autosize=1;strokeColor=none;fillColor=none;" vertex="1" parent="1">
          <mxGeometry x="580" y="3195" width="30" height="30" as="geometry" />
        </mxCell>
        <mxCell id="F5btuEF4g0F6uqBdUG4N-381" value="p" style="text;html=1;align=center;verticalAlign=middle;resizable=0;points=[];autosize=1;strokeColor=none;fillColor=none;" vertex="1" parent="1">
          <mxGeometry x="500" y="3195" width="30" height="30" as="geometry" />
        </mxCell>
        <mxCell id="F5btuEF4g0F6uqBdUG4N-382" value="data" style="rounded=0;whiteSpace=wrap;html=1;" vertex="1" parent="1">
          <mxGeometry x="530" y="3310" width="50" height="60" as="geometry" />
        </mxCell>
        <mxCell id="F5btuEF4g0F6uqBdUG4N-383" value="" style="verticalLabelPosition=bottom;verticalAlign=top;html=1;shape=mxgraph.basic.pie;startAngle=0.0015914963824541276;endAngle=0.4968173254495136;" vertex="1" parent="1">
          <mxGeometry x="550" y="3310" width="60" height="60" as="geometry" />
        </mxCell>
        <mxCell id="F5btuEF4g0F6uqBdUG4N-384" value="" style="verticalLabelPosition=bottom;verticalAlign=top;html=1;shape=mxgraph.basic.pie;startAngle=0.0015914963824541276;endAngle=0.4968173254495136;rotation=-180;" vertex="1" parent="1">
          <mxGeometry x="500" y="3310" width="60" height="60" as="geometry" />
        </mxCell>
        <mxCell id="F5btuEF4g0F6uqBdUG4N-385" value="n" style="text;html=1;align=center;verticalAlign=middle;resizable=0;points=[];autosize=1;strokeColor=none;fillColor=none;" vertex="1" parent="1">
          <mxGeometry x="580" y="3325" width="30" height="30" as="geometry" />
        </mxCell>
        <mxCell id="F5btuEF4g0F6uqBdUG4N-386" style="edgeStyle=orthogonalEdgeStyle;rounded=0;orthogonalLoop=1;jettySize=auto;html=1;" edge="1" parent="1" source="F5btuEF4g0F6uqBdUG4N-387" target="F5btuEF4g0F6uqBdUG4N-379">
          <mxGeometry relative="1" as="geometry" />
        </mxCell>
        <mxCell id="F5btuEF4g0F6uqBdUG4N-387" value="p" style="text;html=1;align=center;verticalAlign=middle;resizable=0;points=[];autosize=1;strokeColor=none;fillColor=none;" vertex="1" parent="1">
          <mxGeometry x="500" y="3325" width="30" height="30" as="geometry" />
        </mxCell>
        <mxCell id="F5btuEF4g0F6uqBdUG4N-388" style="edgeStyle=orthogonalEdgeStyle;rounded=0;orthogonalLoop=1;jettySize=auto;html=1;entryX=0.493;entryY=0.013;entryDx=0;entryDy=0;entryPerimeter=0;" edge="1" parent="1" source="F5btuEF4g0F6uqBdUG4N-380" target="F5btuEF4g0F6uqBdUG4N-383">
          <mxGeometry relative="1" as="geometry" />
        </mxCell>
        <mxCell id="F5btuEF4g0F6uqBdUG4N-389" value="data" style="rounded=0;whiteSpace=wrap;html=1;" vertex="1" parent="1">
          <mxGeometry x="530" y="2940" width="50" height="60" as="geometry" />
        </mxCell>
        <mxCell id="F5btuEF4g0F6uqBdUG4N-390" value="" style="verticalLabelPosition=bottom;verticalAlign=top;html=1;shape=mxgraph.basic.pie;startAngle=0.0015914963824541276;endAngle=0.4968173254495136;" vertex="1" parent="1">
          <mxGeometry x="550" y="2940" width="60" height="60" as="geometry" />
        </mxCell>
        <mxCell id="F5btuEF4g0F6uqBdUG4N-391" value="" style="verticalLabelPosition=bottom;verticalAlign=top;html=1;shape=mxgraph.basic.pie;startAngle=0.0015914963824541276;endAngle=0.4968173254495136;rotation=-180;" vertex="1" parent="1">
          <mxGeometry x="500" y="2940" width="60" height="60" as="geometry" />
        </mxCell>
        <mxCell id="F5btuEF4g0F6uqBdUG4N-392" value="n" style="text;html=1;align=center;verticalAlign=middle;resizable=0;points=[];autosize=1;strokeColor=none;fillColor=none;" vertex="1" parent="1">
          <mxGeometry x="580" y="2955" width="30" height="30" as="geometry" />
        </mxCell>
        <mxCell id="F5btuEF4g0F6uqBdUG4N-393" style="edgeStyle=orthogonalEdgeStyle;rounded=0;orthogonalLoop=1;jettySize=auto;html=1;entryX=0;entryY=1;entryDx=0;entryDy=0;" edge="1" parent="1" source="F5btuEF4g0F6uqBdUG4N-394" target="F5btuEF4g0F6uqBdUG4N-382">
          <mxGeometry relative="1" as="geometry">
            <Array as="points">
              <mxPoint x="470" y="2970" />
              <mxPoint x="470" y="3390" />
              <mxPoint x="530" y="3390" />
            </Array>
          </mxGeometry>
        </mxCell>
        <mxCell id="F5btuEF4g0F6uqBdUG4N-394" value="p" style="text;html=1;align=center;verticalAlign=middle;resizable=0;points=[];autosize=1;strokeColor=none;fillColor=none;" vertex="1" parent="1">
          <mxGeometry x="500" y="2955" width="30" height="30" as="geometry" />
        </mxCell>
        <mxCell id="F5btuEF4g0F6uqBdUG4N-395" value="data" style="rounded=0;whiteSpace=wrap;html=1;" vertex="1" parent="1">
          <mxGeometry x="530" y="3070" width="50" height="60" as="geometry" />
        </mxCell>
        <mxCell id="F5btuEF4g0F6uqBdUG4N-396" value="" style="verticalLabelPosition=bottom;verticalAlign=top;html=1;shape=mxgraph.basic.pie;startAngle=0.0015914963824541276;endAngle=0.4968173254495136;" vertex="1" parent="1">
          <mxGeometry x="550" y="3070" width="60" height="60" as="geometry" />
        </mxCell>
        <mxCell id="F5btuEF4g0F6uqBdUG4N-397" value="" style="verticalLabelPosition=bottom;verticalAlign=top;html=1;shape=mxgraph.basic.pie;startAngle=0.0015914963824541276;endAngle=0.4968173254495136;rotation=-180;" vertex="1" parent="1">
          <mxGeometry x="500" y="3070" width="60" height="60" as="geometry" />
        </mxCell>
        <mxCell id="F5btuEF4g0F6uqBdUG4N-398" value="n" style="text;html=1;align=center;verticalAlign=middle;resizable=0;points=[];autosize=1;strokeColor=none;fillColor=none;" vertex="1" parent="1">
          <mxGeometry x="580" y="3085" width="30" height="30" as="geometry" />
        </mxCell>
        <mxCell id="F5btuEF4g0F6uqBdUG4N-399" style="edgeStyle=orthogonalEdgeStyle;rounded=0;orthogonalLoop=1;jettySize=auto;html=1;" edge="1" parent="1" source="F5btuEF4g0F6uqBdUG4N-400" target="F5btuEF4g0F6uqBdUG4N-391">
          <mxGeometry relative="1" as="geometry" />
        </mxCell>
        <mxCell id="F5btuEF4g0F6uqBdUG4N-400" value="p" style="text;html=1;align=center;verticalAlign=middle;resizable=0;points=[];autosize=1;strokeColor=none;fillColor=none;" vertex="1" parent="1">
          <mxGeometry x="500" y="3085" width="30" height="30" as="geometry" />
        </mxCell>
        <mxCell id="F5btuEF4g0F6uqBdUG4N-401" style="edgeStyle=orthogonalEdgeStyle;rounded=0;orthogonalLoop=1;jettySize=auto;html=1;entryX=0.493;entryY=0.013;entryDx=0;entryDy=0;entryPerimeter=0;" edge="1" parent="1" source="F5btuEF4g0F6uqBdUG4N-392" target="F5btuEF4g0F6uqBdUG4N-396">
          <mxGeometry relative="1" as="geometry" />
        </mxCell>
        <mxCell id="F5btuEF4g0F6uqBdUG4N-402" style="edgeStyle=orthogonalEdgeStyle;rounded=0;orthogonalLoop=1;jettySize=auto;html=1;entryX=0.5;entryY=0;entryDx=0;entryDy=0;entryPerimeter=0;" edge="1" parent="1" source="F5btuEF4g0F6uqBdUG4N-398" target="F5btuEF4g0F6uqBdUG4N-378">
          <mxGeometry relative="1" as="geometry" />
        </mxCell>
        <mxCell id="F5btuEF4g0F6uqBdUG4N-403" style="edgeStyle=orthogonalEdgeStyle;rounded=0;orthogonalLoop=1;jettySize=auto;html=1;entryX=0.5;entryY=0;entryDx=0;entryDy=0;entryPerimeter=0;" edge="1" parent="1" source="F5btuEF4g0F6uqBdUG4N-381" target="F5btuEF4g0F6uqBdUG4N-397">
          <mxGeometry relative="1" as="geometry" />
        </mxCell>
        <mxCell id="F5btuEF4g0F6uqBdUG4N-404" style="edgeStyle=orthogonalEdgeStyle;rounded=0;orthogonalLoop=1;jettySize=auto;html=1;entryX=0.5;entryY=0;entryDx=0;entryDy=0;entryPerimeter=0;" edge="1" parent="1" source="F5btuEF4g0F6uqBdUG4N-385" target="F5btuEF4g0F6uqBdUG4N-390">
          <mxGeometry relative="1" as="geometry">
            <Array as="points">
              <mxPoint x="640" y="3340" />
              <mxPoint x="640" y="2920" />
              <mxPoint x="580" y="2920" />
            </Array>
          </mxGeometry>
        </mxCell>
        <mxCell id="F5btuEF4g0F6uqBdUG4N-448" style="edgeStyle=orthogonalEdgeStyle;rounded=0;orthogonalLoop=1;jettySize=auto;html=1;entryX=0.679;entryY=0;entryDx=0;entryDy=0;entryPerimeter=0;fillColor=#d5e8d4;strokeColor=#82b366;" edge="1" parent="1" source="F5btuEF4g0F6uqBdUG4N-140" target="F5btuEF4g0F6uqBdUG4N-125">
          <mxGeometry relative="1" as="geometry">
            <Array as="points">
              <mxPoint x="1370" y="1419.95" />
              <mxPoint x="1370" y="1589.95" />
              <mxPoint x="1314" y="1589.95" />
            </Array>
          </mxGeometry>
        </mxCell>
        <mxCell id="F5btuEF4g0F6uqBdUG4N-451" style="edgeStyle=orthogonalEdgeStyle;rounded=0;orthogonalLoop=1;jettySize=auto;html=1;entryX=0.75;entryY=0;entryDx=0;entryDy=0;" edge="1" parent="1">
          <mxGeometry relative="1" as="geometry">
            <mxPoint x="332" y="2790" as="sourcePoint" />
            <mxPoint x="290" y="2520" as="targetPoint" />
            <Array as="points">
              <mxPoint x="372" y="2790" />
              <mxPoint x="372" y="2500" />
              <mxPoint x="290" y="2500" />
            </Array>
          </mxGeometry>
        </mxCell>
        <mxCell id="F5btuEF4g0F6uqBdUG4N-452" value="data" style="rounded=0;whiteSpace=wrap;html=1;" vertex="1" parent="1">
          <mxGeometry x="250" y="3760" width="50" height="60" as="geometry" />
        </mxCell>
        <mxCell id="F5btuEF4g0F6uqBdUG4N-453" value="" style="verticalLabelPosition=bottom;verticalAlign=top;html=1;shape=mxgraph.basic.pie;startAngle=0.0015914963824541276;endAngle=0.4968173254495136;" vertex="1" parent="1">
          <mxGeometry x="270" y="3760" width="60" height="60" as="geometry" />
        </mxCell>
        <mxCell id="F5btuEF4g0F6uqBdUG4N-454" value="" style="verticalLabelPosition=bottom;verticalAlign=top;html=1;shape=mxgraph.basic.pie;startAngle=0.0015914963824541276;endAngle=0.4968173254495136;rotation=-180;" vertex="1" parent="1">
          <mxGeometry x="219.99999999999997" y="3760" width="60" height="60" as="geometry" />
        </mxCell>
        <mxCell id="F5btuEF4g0F6uqBdUG4N-455" value="n" style="text;html=1;align=center;verticalAlign=middle;resizable=0;points=[];autosize=1;strokeColor=none;fillColor=none;" vertex="1" parent="1">
          <mxGeometry x="300" y="3775" width="30" height="30" as="geometry" />
        </mxCell>
        <mxCell id="F5btuEF4g0F6uqBdUG4N-456" value="p" style="text;html=1;align=center;verticalAlign=middle;resizable=0;points=[];autosize=1;strokeColor=none;fillColor=none;" vertex="1" parent="1">
          <mxGeometry x="219.99999999999997" y="3775" width="30" height="30" as="geometry" />
        </mxCell>
        <mxCell id="F5btuEF4g0F6uqBdUG4N-457" value="data" style="rounded=0;whiteSpace=wrap;html=1;" vertex="1" parent="1">
          <mxGeometry x="250" y="3890" width="50" height="60" as="geometry" />
        </mxCell>
        <mxCell id="F5btuEF4g0F6uqBdUG4N-458" value="" style="verticalLabelPosition=bottom;verticalAlign=top;html=1;shape=mxgraph.basic.pie;startAngle=0.0015914963824541276;endAngle=0.4968173254495136;" vertex="1" parent="1">
          <mxGeometry x="270" y="3890" width="60" height="60" as="geometry" />
        </mxCell>
        <mxCell id="F5btuEF4g0F6uqBdUG4N-459" value="" style="verticalLabelPosition=bottom;verticalAlign=top;html=1;shape=mxgraph.basic.pie;startAngle=0.0015914963824541276;endAngle=0.4968173254495136;rotation=-180;" vertex="1" parent="1">
          <mxGeometry x="219.99999999999997" y="3890" width="60" height="60" as="geometry" />
        </mxCell>
        <mxCell id="F5btuEF4g0F6uqBdUG4N-460" style="edgeStyle=orthogonalEdgeStyle;rounded=0;orthogonalLoop=1;jettySize=auto;html=1;entryX=0.75;entryY=0;entryDx=0;entryDy=0;" edge="1" parent="1" source="F5btuEF4g0F6uqBdUG4N-461" target="F5btuEF4g0F6uqBdUG4N-471">
          <mxGeometry relative="1" as="geometry">
            <Array as="points">
              <mxPoint x="370" y="3920" />
              <mxPoint x="370" y="3630" />
              <mxPoint x="288" y="3630" />
            </Array>
          </mxGeometry>
        </mxCell>
        <mxCell id="F5btuEF4g0F6uqBdUG4N-461" value="n" style="text;html=1;align=center;verticalAlign=middle;resizable=0;points=[];autosize=1;strokeColor=none;fillColor=none;" vertex="1" parent="1">
          <mxGeometry x="300" y="3905" width="30" height="30" as="geometry" />
        </mxCell>
        <mxCell id="F5btuEF4g0F6uqBdUG4N-462" style="edgeStyle=orthogonalEdgeStyle;rounded=0;orthogonalLoop=1;jettySize=auto;html=1;" edge="1" parent="1" source="F5btuEF4g0F6uqBdUG4N-463" target="F5btuEF4g0F6uqBdUG4N-454">
          <mxGeometry relative="1" as="geometry" />
        </mxCell>
        <mxCell id="F5btuEF4g0F6uqBdUG4N-463" value="p" style="text;html=1;align=center;verticalAlign=middle;resizable=0;points=[];autosize=1;strokeColor=none;fillColor=none;" vertex="1" parent="1">
          <mxGeometry x="219.99999999999997" y="3905" width="30" height="30" as="geometry" />
        </mxCell>
        <mxCell id="F5btuEF4g0F6uqBdUG4N-464" style="edgeStyle=orthogonalEdgeStyle;rounded=0;orthogonalLoop=1;jettySize=auto;html=1;entryX=0.493;entryY=0.013;entryDx=0;entryDy=0;entryPerimeter=0;" edge="1" parent="1" source="F5btuEF4g0F6uqBdUG4N-455" target="F5btuEF4g0F6uqBdUG4N-458">
          <mxGeometry relative="1" as="geometry" />
        </mxCell>
        <mxCell id="F5btuEF4g0F6uqBdUG4N-465" value="data" style="rounded=0;whiteSpace=wrap;html=1;" vertex="1" parent="1">
          <mxGeometry x="250" y="3520" width="50" height="60" as="geometry" />
        </mxCell>
        <mxCell id="F5btuEF4g0F6uqBdUG4N-466" value="" style="verticalLabelPosition=bottom;verticalAlign=top;html=1;shape=mxgraph.basic.pie;startAngle=0.0015914963824541276;endAngle=0.4968173254495136;" vertex="1" parent="1">
          <mxGeometry x="270" y="3520" width="60" height="60" as="geometry" />
        </mxCell>
        <mxCell id="F5btuEF4g0F6uqBdUG4N-467" value="" style="verticalLabelPosition=bottom;verticalAlign=top;html=1;shape=mxgraph.basic.pie;startAngle=0.0015914963824541276;endAngle=0.4968173254495136;rotation=-180;" vertex="1" parent="1">
          <mxGeometry x="219.99999999999997" y="3520" width="60" height="60" as="geometry" />
        </mxCell>
        <mxCell id="F5btuEF4g0F6uqBdUG4N-508" style="edgeStyle=orthogonalEdgeStyle;rounded=0;orthogonalLoop=1;jettySize=auto;html=1;fillColor=#d5e8d4;strokeColor=#82b366;" edge="1" parent="1" source="F5btuEF4g0F6uqBdUG4N-468" target="F5btuEF4g0F6uqBdUG4N-494">
          <mxGeometry relative="1" as="geometry">
            <Array as="points">
              <mxPoint x="380" y="3550" />
              <mxPoint x="380" y="3490" />
              <mxPoint x="530" y="3490" />
            </Array>
          </mxGeometry>
        </mxCell>
        <mxCell id="F5btuEF4g0F6uqBdUG4N-468" value="n" style="text;html=1;align=center;verticalAlign=middle;resizable=0;points=[];autosize=1;strokeColor=none;fillColor=none;" vertex="1" parent="1">
          <mxGeometry x="300" y="3535" width="30" height="30" as="geometry" />
        </mxCell>
        <mxCell id="F5btuEF4g0F6uqBdUG4N-469" style="edgeStyle=orthogonalEdgeStyle;rounded=0;orthogonalLoop=1;jettySize=auto;html=1;entryX=0.5;entryY=1;entryDx=0;entryDy=0;" edge="1" parent="1" source="F5btuEF4g0F6uqBdUG4N-470" target="F5btuEF4g0F6uqBdUG4N-485">
          <mxGeometry relative="1" as="geometry">
            <Array as="points">
              <mxPoint x="235" y="3600" />
              <mxPoint x="420" y="3600" />
              <mxPoint x="420" y="3990" />
              <mxPoint x="555" y="3990" />
            </Array>
          </mxGeometry>
        </mxCell>
        <mxCell id="F5btuEF4g0F6uqBdUG4N-470" value="p" style="text;html=1;align=center;verticalAlign=middle;resizable=0;points=[];autosize=1;strokeColor=none;fillColor=none;" vertex="1" parent="1">
          <mxGeometry x="219.99999999999997" y="3535" width="30" height="30" as="geometry" />
        </mxCell>
        <mxCell id="F5btuEF4g0F6uqBdUG4N-471" value="data" style="rounded=0;whiteSpace=wrap;html=1;" vertex="1" parent="1">
          <mxGeometry x="250" y="3650" width="50" height="60" as="geometry" />
        </mxCell>
        <mxCell id="F5btuEF4g0F6uqBdUG4N-472" value="" style="verticalLabelPosition=bottom;verticalAlign=top;html=1;shape=mxgraph.basic.pie;startAngle=0.0015914963824541276;endAngle=0.4968173254495136;" vertex="1" parent="1">
          <mxGeometry x="270" y="3650" width="60" height="60" as="geometry" />
        </mxCell>
        <mxCell id="F5btuEF4g0F6uqBdUG4N-473" value="" style="verticalLabelPosition=bottom;verticalAlign=top;html=1;shape=mxgraph.basic.pie;startAngle=0.0015914963824541276;endAngle=0.4968173254495136;rotation=-180;" vertex="1" parent="1">
          <mxGeometry x="219.99999999999997" y="3650" width="60" height="60" as="geometry" />
        </mxCell>
        <mxCell id="F5btuEF4g0F6uqBdUG4N-474" value="n" style="text;html=1;align=center;verticalAlign=middle;resizable=0;points=[];autosize=1;strokeColor=none;fillColor=none;" vertex="1" parent="1">
          <mxGeometry x="300" y="3665" width="30" height="30" as="geometry" />
        </mxCell>
        <mxCell id="F5btuEF4g0F6uqBdUG4N-475" style="edgeStyle=orthogonalEdgeStyle;rounded=0;orthogonalLoop=1;jettySize=auto;html=1;entryX=0.5;entryY=1;entryDx=0;entryDy=0;" edge="1" parent="1" source="F5btuEF4g0F6uqBdUG4N-476" target="F5btuEF4g0F6uqBdUG4N-457">
          <mxGeometry relative="1" as="geometry">
            <Array as="points">
              <mxPoint x="170" y="3680" />
              <mxPoint x="170" y="3980" />
              <mxPoint x="275" y="3980" />
            </Array>
          </mxGeometry>
        </mxCell>
        <mxCell id="F5btuEF4g0F6uqBdUG4N-476" value="p" style="text;html=1;align=center;verticalAlign=middle;resizable=0;points=[];autosize=1;strokeColor=none;fillColor=none;" vertex="1" parent="1">
          <mxGeometry x="219.99999999999997" y="3665" width="30" height="30" as="geometry" />
        </mxCell>
        <mxCell id="F5btuEF4g0F6uqBdUG4N-478" style="edgeStyle=orthogonalEdgeStyle;rounded=0;orthogonalLoop=1;jettySize=auto;html=1;entryX=0.5;entryY=0;entryDx=0;entryDy=0;entryPerimeter=0;" edge="1" parent="1" source="F5btuEF4g0F6uqBdUG4N-474" target="F5btuEF4g0F6uqBdUG4N-453">
          <mxGeometry relative="1" as="geometry" />
        </mxCell>
        <mxCell id="F5btuEF4g0F6uqBdUG4N-479" style="edgeStyle=orthogonalEdgeStyle;rounded=0;orthogonalLoop=1;jettySize=auto;html=1;entryX=0.5;entryY=0;entryDx=0;entryDy=0;entryPerimeter=0;" edge="1" parent="1" source="F5btuEF4g0F6uqBdUG4N-456" target="F5btuEF4g0F6uqBdUG4N-473">
          <mxGeometry relative="1" as="geometry" />
        </mxCell>
        <mxCell id="F5btuEF4g0F6uqBdUG4N-480" value="data" style="rounded=0;whiteSpace=wrap;html=1;" vertex="1" parent="1">
          <mxGeometry x="530" y="3760" width="50" height="60" as="geometry" />
        </mxCell>
        <mxCell id="F5btuEF4g0F6uqBdUG4N-481" value="" style="verticalLabelPosition=bottom;verticalAlign=top;html=1;shape=mxgraph.basic.pie;startAngle=0.0015914963824541276;endAngle=0.4968173254495136;" vertex="1" parent="1">
          <mxGeometry x="550" y="3760" width="60" height="60" as="geometry" />
        </mxCell>
        <mxCell id="F5btuEF4g0F6uqBdUG4N-482" value="" style="verticalLabelPosition=bottom;verticalAlign=top;html=1;shape=mxgraph.basic.pie;startAngle=0.0015914963824541276;endAngle=0.4968173254495136;rotation=-180;" vertex="1" parent="1">
          <mxGeometry x="500" y="3760" width="60" height="60" as="geometry" />
        </mxCell>
        <mxCell id="F5btuEF4g0F6uqBdUG4N-483" value="n" style="text;html=1;align=center;verticalAlign=middle;resizable=0;points=[];autosize=1;strokeColor=none;fillColor=none;" vertex="1" parent="1">
          <mxGeometry x="580" y="3775" width="30" height="30" as="geometry" />
        </mxCell>
        <mxCell id="F5btuEF4g0F6uqBdUG4N-484" value="p" style="text;html=1;align=center;verticalAlign=middle;resizable=0;points=[];autosize=1;strokeColor=none;fillColor=none;" vertex="1" parent="1">
          <mxGeometry x="500" y="3775" width="30" height="30" as="geometry" />
        </mxCell>
        <mxCell id="F5btuEF4g0F6uqBdUG4N-485" value="data" style="rounded=0;whiteSpace=wrap;html=1;" vertex="1" parent="1">
          <mxGeometry x="530" y="3890" width="50" height="60" as="geometry" />
        </mxCell>
        <mxCell id="F5btuEF4g0F6uqBdUG4N-486" value="" style="verticalLabelPosition=bottom;verticalAlign=top;html=1;shape=mxgraph.basic.pie;startAngle=0.0015914963824541276;endAngle=0.4968173254495136;" vertex="1" parent="1">
          <mxGeometry x="550" y="3890" width="60" height="60" as="geometry" />
        </mxCell>
        <mxCell id="F5btuEF4g0F6uqBdUG4N-487" value="" style="verticalLabelPosition=bottom;verticalAlign=top;html=1;shape=mxgraph.basic.pie;startAngle=0.0015914963824541276;endAngle=0.4968173254495136;rotation=-180;" vertex="1" parent="1">
          <mxGeometry x="500" y="3890" width="60" height="60" as="geometry" />
        </mxCell>
        <mxCell id="F5btuEF4g0F6uqBdUG4N-488" value="n" style="text;html=1;align=center;verticalAlign=middle;resizable=0;points=[];autosize=1;strokeColor=none;fillColor=none;" vertex="1" parent="1">
          <mxGeometry x="580" y="3905" width="30" height="30" as="geometry" />
        </mxCell>
        <mxCell id="F5btuEF4g0F6uqBdUG4N-489" style="edgeStyle=orthogonalEdgeStyle;rounded=0;orthogonalLoop=1;jettySize=auto;html=1;" edge="1" parent="1" source="F5btuEF4g0F6uqBdUG4N-490" target="F5btuEF4g0F6uqBdUG4N-482">
          <mxGeometry relative="1" as="geometry" />
        </mxCell>
        <mxCell id="F5btuEF4g0F6uqBdUG4N-490" value="p" style="text;html=1;align=center;verticalAlign=middle;resizable=0;points=[];autosize=1;strokeColor=none;fillColor=none;" vertex="1" parent="1">
          <mxGeometry x="500" y="3905" width="30" height="30" as="geometry" />
        </mxCell>
        <mxCell id="F5btuEF4g0F6uqBdUG4N-491" style="edgeStyle=orthogonalEdgeStyle;rounded=0;orthogonalLoop=1;jettySize=auto;html=1;entryX=0.493;entryY=0.013;entryDx=0;entryDy=0;entryPerimeter=0;" edge="1" parent="1" source="F5btuEF4g0F6uqBdUG4N-483" target="F5btuEF4g0F6uqBdUG4N-486">
          <mxGeometry relative="1" as="geometry" />
        </mxCell>
        <mxCell id="F5btuEF4g0F6uqBdUG4N-492" value="data" style="rounded=0;whiteSpace=wrap;html=1;" vertex="1" parent="1">
          <mxGeometry x="530" y="3520" width="50" height="60" as="geometry" />
        </mxCell>
        <mxCell id="F5btuEF4g0F6uqBdUG4N-493" value="" style="verticalLabelPosition=bottom;verticalAlign=top;html=1;shape=mxgraph.basic.pie;startAngle=0.0015914963824541276;endAngle=0.4968173254495136;" vertex="1" parent="1">
          <mxGeometry x="550" y="3520" width="60" height="60" as="geometry" />
        </mxCell>
        <mxCell id="F5btuEF4g0F6uqBdUG4N-494" value="" style="verticalLabelPosition=bottom;verticalAlign=top;html=1;shape=mxgraph.basic.pie;startAngle=0.0015914963824541276;endAngle=0.4968173254495136;rotation=-180;" vertex="1" parent="1">
          <mxGeometry x="500" y="3520" width="60" height="60" as="geometry" />
        </mxCell>
        <mxCell id="F5btuEF4g0F6uqBdUG4N-495" value="n" style="text;html=1;align=center;verticalAlign=middle;resizable=0;points=[];autosize=1;strokeColor=none;fillColor=none;" vertex="1" parent="1">
          <mxGeometry x="580" y="3535" width="30" height="30" as="geometry" />
        </mxCell>
        <mxCell id="F5btuEF4g0F6uqBdUG4N-496" style="edgeStyle=orthogonalEdgeStyle;rounded=0;orthogonalLoop=1;jettySize=auto;html=1;entryX=0;entryY=1;entryDx=0;entryDy=0;" edge="1" parent="1" source="F5btuEF4g0F6uqBdUG4N-497" target="F5btuEF4g0F6uqBdUG4N-485">
          <mxGeometry relative="1" as="geometry">
            <Array as="points">
              <mxPoint x="470" y="3550" />
              <mxPoint x="470" y="3970" />
              <mxPoint x="530" y="3970" />
            </Array>
          </mxGeometry>
        </mxCell>
        <mxCell id="F5btuEF4g0F6uqBdUG4N-497" value="p" style="text;html=1;align=center;verticalAlign=middle;resizable=0;points=[];autosize=1;strokeColor=none;fillColor=none;" vertex="1" parent="1">
          <mxGeometry x="500" y="3535" width="30" height="30" as="geometry" />
        </mxCell>
        <mxCell id="F5btuEF4g0F6uqBdUG4N-498" value="data" style="rounded=0;whiteSpace=wrap;html=1;" vertex="1" parent="1">
          <mxGeometry x="530" y="3650" width="50" height="60" as="geometry" />
        </mxCell>
        <mxCell id="F5btuEF4g0F6uqBdUG4N-499" value="" style="verticalLabelPosition=bottom;verticalAlign=top;html=1;shape=mxgraph.basic.pie;startAngle=0.0015914963824541276;endAngle=0.4968173254495136;" vertex="1" parent="1">
          <mxGeometry x="550" y="3650" width="60" height="60" as="geometry" />
        </mxCell>
        <mxCell id="F5btuEF4g0F6uqBdUG4N-500" value="" style="verticalLabelPosition=bottom;verticalAlign=top;html=1;shape=mxgraph.basic.pie;startAngle=0.0015914963824541276;endAngle=0.4968173254495136;rotation=-180;" vertex="1" parent="1">
          <mxGeometry x="500" y="3650" width="60" height="60" as="geometry" />
        </mxCell>
        <mxCell id="F5btuEF4g0F6uqBdUG4N-501" value="n" style="text;html=1;align=center;verticalAlign=middle;resizable=0;points=[];autosize=1;strokeColor=none;fillColor=none;" vertex="1" parent="1">
          <mxGeometry x="580" y="3665" width="30" height="30" as="geometry" />
        </mxCell>
        <mxCell id="F5btuEF4g0F6uqBdUG4N-502" style="edgeStyle=orthogonalEdgeStyle;rounded=0;orthogonalLoop=1;jettySize=auto;html=1;" edge="1" parent="1" source="F5btuEF4g0F6uqBdUG4N-503" target="F5btuEF4g0F6uqBdUG4N-494">
          <mxGeometry relative="1" as="geometry" />
        </mxCell>
        <mxCell id="F5btuEF4g0F6uqBdUG4N-503" value="p" style="text;html=1;align=center;verticalAlign=middle;resizable=0;points=[];autosize=1;strokeColor=none;fillColor=none;" vertex="1" parent="1">
          <mxGeometry x="500" y="3665" width="30" height="30" as="geometry" />
        </mxCell>
        <mxCell id="F5btuEF4g0F6uqBdUG4N-504" style="edgeStyle=orthogonalEdgeStyle;rounded=0;orthogonalLoop=1;jettySize=auto;html=1;entryX=0.493;entryY=0.013;entryDx=0;entryDy=0;entryPerimeter=0;" edge="1" parent="1" source="F5btuEF4g0F6uqBdUG4N-495" target="F5btuEF4g0F6uqBdUG4N-499">
          <mxGeometry relative="1" as="geometry" />
        </mxCell>
        <mxCell id="F5btuEF4g0F6uqBdUG4N-505" style="edgeStyle=orthogonalEdgeStyle;rounded=0;orthogonalLoop=1;jettySize=auto;html=1;entryX=0.5;entryY=0;entryDx=0;entryDy=0;entryPerimeter=0;" edge="1" parent="1" source="F5btuEF4g0F6uqBdUG4N-501" target="F5btuEF4g0F6uqBdUG4N-481">
          <mxGeometry relative="1" as="geometry" />
        </mxCell>
        <mxCell id="F5btuEF4g0F6uqBdUG4N-506" style="edgeStyle=orthogonalEdgeStyle;rounded=0;orthogonalLoop=1;jettySize=auto;html=1;entryX=0.5;entryY=0;entryDx=0;entryDy=0;entryPerimeter=0;" edge="1" parent="1" source="F5btuEF4g0F6uqBdUG4N-484" target="F5btuEF4g0F6uqBdUG4N-500">
          <mxGeometry relative="1" as="geometry" />
        </mxCell>
        <mxCell id="F5btuEF4g0F6uqBdUG4N-507" style="edgeStyle=orthogonalEdgeStyle;rounded=0;orthogonalLoop=1;jettySize=auto;html=1;entryX=0.5;entryY=0;entryDx=0;entryDy=0;entryPerimeter=0;" edge="1" parent="1" source="F5btuEF4g0F6uqBdUG4N-488" target="F5btuEF4g0F6uqBdUG4N-493">
          <mxGeometry relative="1" as="geometry">
            <Array as="points">
              <mxPoint x="640" y="3920" />
              <mxPoint x="640" y="3500" />
              <mxPoint x="580" y="3500" />
            </Array>
          </mxGeometry>
        </mxCell>
        <mxCell id="F5btuEF4g0F6uqBdUG4N-566" value="data" style="rounded=0;whiteSpace=wrap;html=1;" vertex="1" parent="1">
          <mxGeometry x="250" y="4350" width="50" height="60" as="geometry" />
        </mxCell>
        <mxCell id="F5btuEF4g0F6uqBdUG4N-567" value="" style="verticalLabelPosition=bottom;verticalAlign=top;html=1;shape=mxgraph.basic.pie;startAngle=0.0015914963824541276;endAngle=0.4968173254495136;" vertex="1" parent="1">
          <mxGeometry x="270" y="4350" width="60" height="60" as="geometry" />
        </mxCell>
        <mxCell id="F5btuEF4g0F6uqBdUG4N-568" value="" style="verticalLabelPosition=bottom;verticalAlign=top;html=1;shape=mxgraph.basic.pie;startAngle=0.0015914963824541276;endAngle=0.4968173254495136;rotation=-180;" vertex="1" parent="1">
          <mxGeometry x="219.99999999999997" y="4350" width="60" height="60" as="geometry" />
        </mxCell>
        <mxCell id="F5btuEF4g0F6uqBdUG4N-569" value="n" style="text;html=1;align=center;verticalAlign=middle;resizable=0;points=[];autosize=1;strokeColor=none;fillColor=none;" vertex="1" parent="1">
          <mxGeometry x="300" y="4365" width="30" height="30" as="geometry" />
        </mxCell>
        <mxCell id="F5btuEF4g0F6uqBdUG4N-570" value="p" style="text;html=1;align=center;verticalAlign=middle;resizable=0;points=[];autosize=1;strokeColor=none;fillColor=none;" vertex="1" parent="1">
          <mxGeometry x="219.99999999999997" y="4365" width="30" height="30" as="geometry" />
        </mxCell>
        <mxCell id="F5btuEF4g0F6uqBdUG4N-571" value="data" style="rounded=0;whiteSpace=wrap;html=1;" vertex="1" parent="1">
          <mxGeometry x="250" y="4480" width="50" height="60" as="geometry" />
        </mxCell>
        <mxCell id="F5btuEF4g0F6uqBdUG4N-572" value="" style="verticalLabelPosition=bottom;verticalAlign=top;html=1;shape=mxgraph.basic.pie;startAngle=0.0015914963824541276;endAngle=0.4968173254495136;" vertex="1" parent="1">
          <mxGeometry x="270" y="4480" width="60" height="60" as="geometry" />
        </mxCell>
        <mxCell id="F5btuEF4g0F6uqBdUG4N-573" value="" style="verticalLabelPosition=bottom;verticalAlign=top;html=1;shape=mxgraph.basic.pie;startAngle=0.0015914963824541276;endAngle=0.4968173254495136;rotation=-180;" vertex="1" parent="1">
          <mxGeometry x="219.99999999999997" y="4480" width="60" height="60" as="geometry" />
        </mxCell>
        <mxCell id="F5btuEF4g0F6uqBdUG4N-574" style="edgeStyle=orthogonalEdgeStyle;rounded=0;orthogonalLoop=1;jettySize=auto;html=1;entryX=0.75;entryY=0;entryDx=0;entryDy=0;" edge="1" parent="1" source="F5btuEF4g0F6uqBdUG4N-575" target="F5btuEF4g0F6uqBdUG4N-586">
          <mxGeometry relative="1" as="geometry">
            <Array as="points">
              <mxPoint x="370" y="4510" />
              <mxPoint x="370" y="4220" />
              <mxPoint x="288" y="4220" />
            </Array>
          </mxGeometry>
        </mxCell>
        <mxCell id="F5btuEF4g0F6uqBdUG4N-575" value="n" style="text;html=1;align=center;verticalAlign=middle;resizable=0;points=[];autosize=1;strokeColor=none;fillColor=none;" vertex="1" parent="1">
          <mxGeometry x="300" y="4495" width="30" height="30" as="geometry" />
        </mxCell>
        <mxCell id="F5btuEF4g0F6uqBdUG4N-576" style="edgeStyle=orthogonalEdgeStyle;rounded=0;orthogonalLoop=1;jettySize=auto;html=1;" edge="1" parent="1" source="F5btuEF4g0F6uqBdUG4N-577" target="F5btuEF4g0F6uqBdUG4N-568">
          <mxGeometry relative="1" as="geometry" />
        </mxCell>
        <mxCell id="F5btuEF4g0F6uqBdUG4N-577" value="p" style="text;html=1;align=center;verticalAlign=middle;resizable=0;points=[];autosize=1;strokeColor=none;fillColor=none;" vertex="1" parent="1">
          <mxGeometry x="219.99999999999997" y="4495" width="30" height="30" as="geometry" />
        </mxCell>
        <mxCell id="F5btuEF4g0F6uqBdUG4N-578" style="edgeStyle=orthogonalEdgeStyle;rounded=0;orthogonalLoop=1;jettySize=auto;html=1;entryX=0.493;entryY=0.013;entryDx=0;entryDy=0;entryPerimeter=0;" edge="1" parent="1" source="F5btuEF4g0F6uqBdUG4N-569" target="F5btuEF4g0F6uqBdUG4N-572">
          <mxGeometry relative="1" as="geometry" />
        </mxCell>
        <mxCell id="F5btuEF4g0F6uqBdUG4N-579" value="data" style="rounded=0;whiteSpace=wrap;html=1;" vertex="1" parent="1">
          <mxGeometry x="480.03" y="4100" width="50" height="60" as="geometry" />
        </mxCell>
        <mxCell id="F5btuEF4g0F6uqBdUG4N-580" value="" style="verticalLabelPosition=bottom;verticalAlign=top;html=1;shape=mxgraph.basic.pie;startAngle=0.0015914963824541276;endAngle=0.4968173254495136;" vertex="1" parent="1">
          <mxGeometry x="500.03" y="4100" width="60" height="60" as="geometry" />
        </mxCell>
        <mxCell id="F5btuEF4g0F6uqBdUG4N-581" value="" style="verticalLabelPosition=bottom;verticalAlign=top;html=1;shape=mxgraph.basic.pie;startAngle=0.0015914963824541276;endAngle=0.4968173254495136;rotation=-180;" vertex="1" parent="1">
          <mxGeometry x="450.03" y="4100" width="60" height="60" as="geometry" />
        </mxCell>
        <mxCell id="F5btuEF4g0F6uqBdUG4N-623" style="edgeStyle=orthogonalEdgeStyle;rounded=0;orthogonalLoop=1;jettySize=auto;html=1;entryX=1;entryY=0;entryDx=0;entryDy=0;" edge="1" parent="1" source="F5btuEF4g0F6uqBdUG4N-583" target="F5btuEF4g0F6uqBdUG4N-606">
          <mxGeometry relative="1" as="geometry" />
        </mxCell>
        <mxCell id="F5btuEF4g0F6uqBdUG4N-583" value="n" style="text;html=1;align=center;verticalAlign=middle;resizable=0;points=[];autosize=1;strokeColor=none;fillColor=none;" vertex="1" parent="1">
          <mxGeometry x="530.03" y="4115" width="30" height="30" as="geometry" />
        </mxCell>
        <mxCell id="F5btuEF4g0F6uqBdUG4N-584" style="edgeStyle=orthogonalEdgeStyle;rounded=0;orthogonalLoop=1;jettySize=auto;html=1;entryX=0.5;entryY=1;entryDx=0;entryDy=0;" edge="1" parent="1" source="F5btuEF4g0F6uqBdUG4N-585" target="F5btuEF4g0F6uqBdUG4N-599">
          <mxGeometry relative="1" as="geometry">
            <Array as="points">
              <mxPoint x="420" y="4130" />
              <mxPoint x="420" y="4680" />
              <mxPoint x="555" y="4680" />
            </Array>
          </mxGeometry>
        </mxCell>
        <mxCell id="F5btuEF4g0F6uqBdUG4N-585" value="p" style="text;html=1;align=center;verticalAlign=middle;resizable=0;points=[];autosize=1;strokeColor=none;fillColor=none;" vertex="1" parent="1">
          <mxGeometry x="450.03" y="4115" width="30" height="30" as="geometry" />
        </mxCell>
        <mxCell id="F5btuEF4g0F6uqBdUG4N-586" value="data" style="rounded=0;whiteSpace=wrap;html=1;" vertex="1" parent="1">
          <mxGeometry x="250" y="4240" width="50" height="60" as="geometry" />
        </mxCell>
        <mxCell id="F5btuEF4g0F6uqBdUG4N-587" value="" style="verticalLabelPosition=bottom;verticalAlign=top;html=1;shape=mxgraph.basic.pie;startAngle=0.0015914963824541276;endAngle=0.4968173254495136;" vertex="1" parent="1">
          <mxGeometry x="270" y="4240" width="60" height="60" as="geometry" />
        </mxCell>
        <mxCell id="F5btuEF4g0F6uqBdUG4N-588" value="" style="verticalLabelPosition=bottom;verticalAlign=top;html=1;shape=mxgraph.basic.pie;startAngle=0.0015914963824541276;endAngle=0.4968173254495136;rotation=-180;" vertex="1" parent="1">
          <mxGeometry x="219.99999999999997" y="4240" width="60" height="60" as="geometry" />
        </mxCell>
        <mxCell id="F5btuEF4g0F6uqBdUG4N-589" value="n" style="text;html=1;align=center;verticalAlign=middle;resizable=0;points=[];autosize=1;strokeColor=none;fillColor=none;" vertex="1" parent="1">
          <mxGeometry x="300" y="4255" width="30" height="30" as="geometry" />
        </mxCell>
        <mxCell id="F5btuEF4g0F6uqBdUG4N-590" style="edgeStyle=orthogonalEdgeStyle;rounded=0;orthogonalLoop=1;jettySize=auto;html=1;entryX=0.5;entryY=1;entryDx=0;entryDy=0;" edge="1" parent="1" source="F5btuEF4g0F6uqBdUG4N-591" target="F5btuEF4g0F6uqBdUG4N-571">
          <mxGeometry relative="1" as="geometry">
            <Array as="points">
              <mxPoint x="170" y="4270" />
              <mxPoint x="170" y="4570" />
              <mxPoint x="275" y="4570" />
            </Array>
          </mxGeometry>
        </mxCell>
        <mxCell id="F5btuEF4g0F6uqBdUG4N-591" value="p" style="text;html=1;align=center;verticalAlign=middle;resizable=0;points=[];autosize=1;strokeColor=none;fillColor=none;" vertex="1" parent="1">
          <mxGeometry x="219.99999999999997" y="4255" width="30" height="30" as="geometry" />
        </mxCell>
        <mxCell id="F5btuEF4g0F6uqBdUG4N-592" style="edgeStyle=orthogonalEdgeStyle;rounded=0;orthogonalLoop=1;jettySize=auto;html=1;entryX=0.5;entryY=0;entryDx=0;entryDy=0;entryPerimeter=0;" edge="1" parent="1" source="F5btuEF4g0F6uqBdUG4N-589" target="F5btuEF4g0F6uqBdUG4N-567">
          <mxGeometry relative="1" as="geometry" />
        </mxCell>
        <mxCell id="F5btuEF4g0F6uqBdUG4N-593" style="edgeStyle=orthogonalEdgeStyle;rounded=0;orthogonalLoop=1;jettySize=auto;html=1;entryX=0.5;entryY=0;entryDx=0;entryDy=0;entryPerimeter=0;" edge="1" parent="1" source="F5btuEF4g0F6uqBdUG4N-570" target="F5btuEF4g0F6uqBdUG4N-588">
          <mxGeometry relative="1" as="geometry" />
        </mxCell>
        <mxCell id="F5btuEF4g0F6uqBdUG4N-594" value="data" style="rounded=0;whiteSpace=wrap;html=1;" vertex="1" parent="1">
          <mxGeometry x="530.03" y="4440" width="50" height="60" as="geometry" />
        </mxCell>
        <mxCell id="F5btuEF4g0F6uqBdUG4N-595" value="" style="verticalLabelPosition=bottom;verticalAlign=top;html=1;shape=mxgraph.basic.pie;startAngle=0.0015914963824541276;endAngle=0.4968173254495136;" vertex="1" parent="1">
          <mxGeometry x="550.03" y="4440" width="60" height="60" as="geometry" />
        </mxCell>
        <mxCell id="F5btuEF4g0F6uqBdUG4N-596" value="" style="verticalLabelPosition=bottom;verticalAlign=top;html=1;shape=mxgraph.basic.pie;startAngle=0.0015914963824541276;endAngle=0.4968173254495136;rotation=-180;" vertex="1" parent="1">
          <mxGeometry x="500.03" y="4440" width="60" height="60" as="geometry" />
        </mxCell>
        <mxCell id="F5btuEF4g0F6uqBdUG4N-597" value="n" style="text;html=1;align=center;verticalAlign=middle;resizable=0;points=[];autosize=1;strokeColor=none;fillColor=none;" vertex="1" parent="1">
          <mxGeometry x="580.03" y="4455" width="30" height="30" as="geometry" />
        </mxCell>
        <mxCell id="F5btuEF4g0F6uqBdUG4N-598" value="p" style="text;html=1;align=center;verticalAlign=middle;resizable=0;points=[];autosize=1;strokeColor=none;fillColor=none;" vertex="1" parent="1">
          <mxGeometry x="500.03" y="4455" width="30" height="30" as="geometry" />
        </mxCell>
        <mxCell id="F5btuEF4g0F6uqBdUG4N-599" value="data" style="rounded=0;whiteSpace=wrap;html=1;" vertex="1" parent="1">
          <mxGeometry x="530.03" y="4570" width="50" height="60" as="geometry" />
        </mxCell>
        <mxCell id="F5btuEF4g0F6uqBdUG4N-600" value="" style="verticalLabelPosition=bottom;verticalAlign=top;html=1;shape=mxgraph.basic.pie;startAngle=0.0015914963824541276;endAngle=0.4968173254495136;" vertex="1" parent="1">
          <mxGeometry x="550.03" y="4570" width="60" height="60" as="geometry" />
        </mxCell>
        <mxCell id="F5btuEF4g0F6uqBdUG4N-601" value="" style="verticalLabelPosition=bottom;verticalAlign=top;html=1;shape=mxgraph.basic.pie;startAngle=0.0015914963824541276;endAngle=0.4968173254495136;rotation=-180;" vertex="1" parent="1">
          <mxGeometry x="500.03" y="4570" width="60" height="60" as="geometry" />
        </mxCell>
        <mxCell id="F5btuEF4g0F6uqBdUG4N-622" style="edgeStyle=orthogonalEdgeStyle;rounded=0;orthogonalLoop=1;jettySize=auto;html=1;entryX=0.75;entryY=0;entryDx=0;entryDy=0;fillColor=#d5e8d4;strokeColor=#82b366;" edge="1" parent="1" source="F5btuEF4g0F6uqBdUG4N-602" target="F5btuEF4g0F6uqBdUG4N-579">
          <mxGeometry relative="1" as="geometry">
            <Array as="points">
              <mxPoint x="595" y="4510" />
              <mxPoint x="640" y="4510" />
              <mxPoint x="640" y="4080" />
              <mxPoint x="520" y="4080" />
              <mxPoint x="520" y="4100" />
            </Array>
          </mxGeometry>
        </mxCell>
        <mxCell id="F5btuEF4g0F6uqBdUG4N-602" value="n" style="text;html=1;align=center;verticalAlign=middle;resizable=0;points=[];autosize=1;strokeColor=none;fillColor=none;" vertex="1" parent="1">
          <mxGeometry x="580.03" y="4585" width="30" height="30" as="geometry" />
        </mxCell>
        <mxCell id="F5btuEF4g0F6uqBdUG4N-603" style="edgeStyle=orthogonalEdgeStyle;rounded=0;orthogonalLoop=1;jettySize=auto;html=1;" edge="1" parent="1" source="F5btuEF4g0F6uqBdUG4N-604" target="F5btuEF4g0F6uqBdUG4N-596">
          <mxGeometry relative="1" as="geometry" />
        </mxCell>
        <mxCell id="F5btuEF4g0F6uqBdUG4N-604" value="p" style="text;html=1;align=center;verticalAlign=middle;resizable=0;points=[];autosize=1;strokeColor=none;fillColor=none;" vertex="1" parent="1">
          <mxGeometry x="500.03" y="4585" width="30" height="30" as="geometry" />
        </mxCell>
        <mxCell id="F5btuEF4g0F6uqBdUG4N-605" style="edgeStyle=orthogonalEdgeStyle;rounded=0;orthogonalLoop=1;jettySize=auto;html=1;entryX=0.493;entryY=0.013;entryDx=0;entryDy=0;entryPerimeter=0;" edge="1" parent="1" source="F5btuEF4g0F6uqBdUG4N-597" target="F5btuEF4g0F6uqBdUG4N-600">
          <mxGeometry relative="1" as="geometry" />
        </mxCell>
        <mxCell id="F5btuEF4g0F6uqBdUG4N-606" value="data" style="rounded=0;whiteSpace=wrap;html=1;" vertex="1" parent="1">
          <mxGeometry x="530.03" y="4200" width="50" height="60" as="geometry" />
        </mxCell>
        <mxCell id="F5btuEF4g0F6uqBdUG4N-607" value="" style="verticalLabelPosition=bottom;verticalAlign=top;html=1;shape=mxgraph.basic.pie;startAngle=0.0015914963824541276;endAngle=0.4968173254495136;" vertex="1" parent="1">
          <mxGeometry x="550.03" y="4200" width="60" height="60" as="geometry" />
        </mxCell>
        <mxCell id="F5btuEF4g0F6uqBdUG4N-608" value="" style="verticalLabelPosition=bottom;verticalAlign=top;html=1;shape=mxgraph.basic.pie;startAngle=0.0015914963824541276;endAngle=0.4968173254495136;rotation=-180;" vertex="1" parent="1">
          <mxGeometry x="500.03" y="4200" width="60" height="60" as="geometry" />
        </mxCell>
        <mxCell id="F5btuEF4g0F6uqBdUG4N-609" value="n" style="text;html=1;align=center;verticalAlign=middle;resizable=0;points=[];autosize=1;strokeColor=none;fillColor=none;" vertex="1" parent="1">
          <mxGeometry x="580.03" y="4215" width="30" height="30" as="geometry" />
        </mxCell>
        <mxCell id="F5btuEF4g0F6uqBdUG4N-610" style="edgeStyle=orthogonalEdgeStyle;rounded=0;orthogonalLoop=1;jettySize=auto;html=1;entryX=0;entryY=1;entryDx=0;entryDy=0;" edge="1" parent="1" source="F5btuEF4g0F6uqBdUG4N-611" target="F5btuEF4g0F6uqBdUG4N-599">
          <mxGeometry relative="1" as="geometry">
            <Array as="points">
              <mxPoint x="470.03" y="4230" />
              <mxPoint x="470.03" y="4650" />
              <mxPoint x="530.03" y="4650" />
            </Array>
          </mxGeometry>
        </mxCell>
        <mxCell id="F5btuEF4g0F6uqBdUG4N-611" value="p" style="text;html=1;align=center;verticalAlign=middle;resizable=0;points=[];autosize=1;strokeColor=none;fillColor=none;" vertex="1" parent="1">
          <mxGeometry x="500.03" y="4215" width="30" height="30" as="geometry" />
        </mxCell>
        <mxCell id="F5btuEF4g0F6uqBdUG4N-612" value="data" style="rounded=0;whiteSpace=wrap;html=1;" vertex="1" parent="1">
          <mxGeometry x="530.03" y="4330" width="50" height="60" as="geometry" />
        </mxCell>
        <mxCell id="F5btuEF4g0F6uqBdUG4N-613" value="" style="verticalLabelPosition=bottom;verticalAlign=top;html=1;shape=mxgraph.basic.pie;startAngle=0.0015914963824541276;endAngle=0.4968173254495136;" vertex="1" parent="1">
          <mxGeometry x="550.03" y="4330" width="60" height="60" as="geometry" />
        </mxCell>
        <mxCell id="F5btuEF4g0F6uqBdUG4N-614" value="" style="verticalLabelPosition=bottom;verticalAlign=top;html=1;shape=mxgraph.basic.pie;startAngle=0.0015914963824541276;endAngle=0.4968173254495136;rotation=-180;" vertex="1" parent="1">
          <mxGeometry x="500.03" y="4330" width="60" height="60" as="geometry" />
        </mxCell>
        <mxCell id="F5btuEF4g0F6uqBdUG4N-615" value="n" style="text;html=1;align=center;verticalAlign=middle;resizable=0;points=[];autosize=1;strokeColor=none;fillColor=none;" vertex="1" parent="1">
          <mxGeometry x="580.03" y="4345" width="30" height="30" as="geometry" />
        </mxCell>
        <mxCell id="F5btuEF4g0F6uqBdUG4N-616" style="edgeStyle=orthogonalEdgeStyle;rounded=0;orthogonalLoop=1;jettySize=auto;html=1;" edge="1" parent="1" source="F5btuEF4g0F6uqBdUG4N-617" target="F5btuEF4g0F6uqBdUG4N-608">
          <mxGeometry relative="1" as="geometry" />
        </mxCell>
        <mxCell id="F5btuEF4g0F6uqBdUG4N-617" value="p" style="text;html=1;align=center;verticalAlign=middle;resizable=0;points=[];autosize=1;strokeColor=none;fillColor=none;" vertex="1" parent="1">
          <mxGeometry x="500.03" y="4345" width="30" height="30" as="geometry" />
        </mxCell>
        <mxCell id="F5btuEF4g0F6uqBdUG4N-618" style="edgeStyle=orthogonalEdgeStyle;rounded=0;orthogonalLoop=1;jettySize=auto;html=1;entryX=0.493;entryY=0.013;entryDx=0;entryDy=0;entryPerimeter=0;" edge="1" parent="1" source="F5btuEF4g0F6uqBdUG4N-609" target="F5btuEF4g0F6uqBdUG4N-613">
          <mxGeometry relative="1" as="geometry" />
        </mxCell>
        <mxCell id="F5btuEF4g0F6uqBdUG4N-619" style="edgeStyle=orthogonalEdgeStyle;rounded=0;orthogonalLoop=1;jettySize=auto;html=1;entryX=0.5;entryY=0;entryDx=0;entryDy=0;entryPerimeter=0;" edge="1" parent="1" source="F5btuEF4g0F6uqBdUG4N-615" target="F5btuEF4g0F6uqBdUG4N-595">
          <mxGeometry relative="1" as="geometry" />
        </mxCell>
        <mxCell id="F5btuEF4g0F6uqBdUG4N-620" style="edgeStyle=orthogonalEdgeStyle;rounded=0;orthogonalLoop=1;jettySize=auto;html=1;entryX=0.5;entryY=0;entryDx=0;entryDy=0;entryPerimeter=0;" edge="1" parent="1" source="F5btuEF4g0F6uqBdUG4N-598" target="F5btuEF4g0F6uqBdUG4N-614">
          <mxGeometry relative="1" as="geometry" />
        </mxCell>
        <mxCell id="F5btuEF4g0F6uqBdUG4N-624" value="data" style="rounded=0;whiteSpace=wrap;html=1;" vertex="1" parent="1">
          <mxGeometry x="215.03" y="5025" width="50" height="60" as="geometry" />
        </mxCell>
        <mxCell id="F5btuEF4g0F6uqBdUG4N-625" value="" style="verticalLabelPosition=bottom;verticalAlign=top;html=1;shape=mxgraph.basic.pie;startAngle=0.0015914963824541276;endAngle=0.4968173254495136;" vertex="1" parent="1">
          <mxGeometry x="235.03" y="5025" width="60" height="60" as="geometry" />
        </mxCell>
        <mxCell id="F5btuEF4g0F6uqBdUG4N-626" value="" style="verticalLabelPosition=bottom;verticalAlign=top;html=1;shape=mxgraph.basic.pie;startAngle=0.0015914963824541276;endAngle=0.4968173254495136;rotation=-180;" vertex="1" parent="1">
          <mxGeometry x="185.02999999999997" y="5025" width="60" height="60" as="geometry" />
        </mxCell>
        <mxCell id="F5btuEF4g0F6uqBdUG4N-627" value="n" style="text;html=1;align=center;verticalAlign=middle;resizable=0;points=[];autosize=1;strokeColor=none;fillColor=none;" vertex="1" parent="1">
          <mxGeometry x="265.03" y="5040" width="30" height="30" as="geometry" />
        </mxCell>
        <mxCell id="F5btuEF4g0F6uqBdUG4N-628" value="p" style="text;html=1;align=center;verticalAlign=middle;resizable=0;points=[];autosize=1;strokeColor=none;fillColor=none;" vertex="1" parent="1">
          <mxGeometry x="185.02999999999997" y="5040" width="30" height="30" as="geometry" />
        </mxCell>
        <mxCell id="F5btuEF4g0F6uqBdUG4N-629" value="data" style="rounded=0;whiteSpace=wrap;html=1;" vertex="1" parent="1">
          <mxGeometry x="215.03" y="5155" width="50" height="60" as="geometry" />
        </mxCell>
        <mxCell id="F5btuEF4g0F6uqBdUG4N-630" value="" style="verticalLabelPosition=bottom;verticalAlign=top;html=1;shape=mxgraph.basic.pie;startAngle=0.0015914963824541276;endAngle=0.4968173254495136;" vertex="1" parent="1">
          <mxGeometry x="235.03" y="5155" width="60" height="60" as="geometry" />
        </mxCell>
        <mxCell id="F5btuEF4g0F6uqBdUG4N-631" value="" style="verticalLabelPosition=bottom;verticalAlign=top;html=1;shape=mxgraph.basic.pie;startAngle=0.0015914963824541276;endAngle=0.4968173254495136;rotation=-180;" vertex="1" parent="1">
          <mxGeometry x="185.02999999999997" y="5155" width="60" height="60" as="geometry" />
        </mxCell>
        <mxCell id="F5btuEF4g0F6uqBdUG4N-632" style="edgeStyle=orthogonalEdgeStyle;rounded=0;orthogonalLoop=1;jettySize=auto;html=1;entryX=0.75;entryY=0;entryDx=0;entryDy=0;" edge="1" parent="1" source="F5btuEF4g0F6uqBdUG4N-633" target="F5btuEF4g0F6uqBdUG4N-644">
          <mxGeometry relative="1" as="geometry">
            <Array as="points">
              <mxPoint x="335.03" y="5185" />
              <mxPoint x="335.03" y="4895" />
              <mxPoint x="253.03" y="4895" />
            </Array>
          </mxGeometry>
        </mxCell>
        <mxCell id="F5btuEF4g0F6uqBdUG4N-633" value="n" style="text;html=1;align=center;verticalAlign=middle;resizable=0;points=[];autosize=1;strokeColor=none;fillColor=none;" vertex="1" parent="1">
          <mxGeometry x="265.03" y="5170" width="30" height="30" as="geometry" />
        </mxCell>
        <mxCell id="F5btuEF4g0F6uqBdUG4N-634" style="edgeStyle=orthogonalEdgeStyle;rounded=0;orthogonalLoop=1;jettySize=auto;html=1;" edge="1" parent="1" source="F5btuEF4g0F6uqBdUG4N-635" target="F5btuEF4g0F6uqBdUG4N-626">
          <mxGeometry relative="1" as="geometry" />
        </mxCell>
        <mxCell id="F5btuEF4g0F6uqBdUG4N-635" value="p" style="text;html=1;align=center;verticalAlign=middle;resizable=0;points=[];autosize=1;strokeColor=none;fillColor=none;" vertex="1" parent="1">
          <mxGeometry x="185.02999999999997" y="5170" width="30" height="30" as="geometry" />
        </mxCell>
        <mxCell id="F5btuEF4g0F6uqBdUG4N-636" style="edgeStyle=orthogonalEdgeStyle;rounded=0;orthogonalLoop=1;jettySize=auto;html=1;entryX=0.493;entryY=0.013;entryDx=0;entryDy=0;entryPerimeter=0;" edge="1" parent="1" source="F5btuEF4g0F6uqBdUG4N-627" target="F5btuEF4g0F6uqBdUG4N-630">
          <mxGeometry relative="1" as="geometry" />
        </mxCell>
        <mxCell id="F5btuEF4g0F6uqBdUG4N-637" value="data" style="rounded=0;whiteSpace=wrap;html=1;" vertex="1" parent="1">
          <mxGeometry x="480.03" y="4780" width="50" height="60" as="geometry" />
        </mxCell>
        <mxCell id="F5btuEF4g0F6uqBdUG4N-638" value="" style="verticalLabelPosition=bottom;verticalAlign=top;html=1;shape=mxgraph.basic.pie;startAngle=0.0015914963824541276;endAngle=0.4968173254495136;" vertex="1" parent="1">
          <mxGeometry x="500.03" y="4780" width="60" height="60" as="geometry" />
        </mxCell>
        <mxCell id="F5btuEF4g0F6uqBdUG4N-639" value="" style="verticalLabelPosition=bottom;verticalAlign=top;html=1;shape=mxgraph.basic.pie;startAngle=0.0015914963824541276;endAngle=0.4968173254495136;rotation=-180;" vertex="1" parent="1">
          <mxGeometry x="450.03" y="4780" width="60" height="60" as="geometry" />
        </mxCell>
        <mxCell id="F5btuEF4g0F6uqBdUG4N-640" style="edgeStyle=orthogonalEdgeStyle;rounded=0;orthogonalLoop=1;jettySize=auto;html=1;entryX=1;entryY=0;entryDx=0;entryDy=0;" edge="1" parent="1" source="F5btuEF4g0F6uqBdUG4N-641" target="F5btuEF4g0F6uqBdUG4N-665">
          <mxGeometry relative="1" as="geometry" />
        </mxCell>
        <mxCell id="F5btuEF4g0F6uqBdUG4N-641" value="n" style="text;html=1;align=center;verticalAlign=middle;resizable=0;points=[];autosize=1;strokeColor=none;fillColor=none;" vertex="1" parent="1">
          <mxGeometry x="530.03" y="4795" width="30" height="30" as="geometry" />
        </mxCell>
        <mxCell id="F5btuEF4g0F6uqBdUG4N-642" style="edgeStyle=orthogonalEdgeStyle;rounded=0;orthogonalLoop=1;jettySize=auto;html=1;entryX=0.5;entryY=1;entryDx=0;entryDy=0;" edge="1" parent="1" source="F5btuEF4g0F6uqBdUG4N-643" target="F5btuEF4g0F6uqBdUG4N-657">
          <mxGeometry relative="1" as="geometry">
            <Array as="points">
              <mxPoint x="420" y="4810" />
              <mxPoint x="420" y="5360" />
              <mxPoint x="555" y="5360" />
            </Array>
          </mxGeometry>
        </mxCell>
        <mxCell id="F5btuEF4g0F6uqBdUG4N-643" value="p" style="text;html=1;align=center;verticalAlign=middle;resizable=0;points=[];autosize=1;strokeColor=none;fillColor=none;" vertex="1" parent="1">
          <mxGeometry x="450.03" y="4795" width="30" height="30" as="geometry" />
        </mxCell>
        <mxCell id="F5btuEF4g0F6uqBdUG4N-644" value="data" style="rounded=0;whiteSpace=wrap;html=1;" vertex="1" parent="1">
          <mxGeometry x="215.03" y="4915" width="50" height="60" as="geometry" />
        </mxCell>
        <mxCell id="F5btuEF4g0F6uqBdUG4N-645" value="" style="verticalLabelPosition=bottom;verticalAlign=top;html=1;shape=mxgraph.basic.pie;startAngle=0.0015914963824541276;endAngle=0.4968173254495136;" vertex="1" parent="1">
          <mxGeometry x="235.03" y="4915" width="60" height="60" as="geometry" />
        </mxCell>
        <mxCell id="F5btuEF4g0F6uqBdUG4N-646" value="" style="verticalLabelPosition=bottom;verticalAlign=top;html=1;shape=mxgraph.basic.pie;startAngle=0.0015914963824541276;endAngle=0.4968173254495136;rotation=-180;" vertex="1" parent="1">
          <mxGeometry x="185.02999999999997" y="4915" width="60" height="60" as="geometry" />
        </mxCell>
        <mxCell id="F5btuEF4g0F6uqBdUG4N-647" value="n" style="text;html=1;align=center;verticalAlign=middle;resizable=0;points=[];autosize=1;strokeColor=none;fillColor=none;" vertex="1" parent="1">
          <mxGeometry x="265.03" y="4930" width="30" height="30" as="geometry" />
        </mxCell>
        <mxCell id="F5btuEF4g0F6uqBdUG4N-648" style="edgeStyle=orthogonalEdgeStyle;rounded=0;orthogonalLoop=1;jettySize=auto;html=1;entryX=0.5;entryY=1;entryDx=0;entryDy=0;" edge="1" parent="1" source="F5btuEF4g0F6uqBdUG4N-649" target="F5btuEF4g0F6uqBdUG4N-629">
          <mxGeometry relative="1" as="geometry">
            <Array as="points">
              <mxPoint x="135.03" y="4945" />
              <mxPoint x="135.03" y="5245" />
              <mxPoint x="240.03" y="5245" />
            </Array>
          </mxGeometry>
        </mxCell>
        <mxCell id="F5btuEF4g0F6uqBdUG4N-649" value="p" style="text;html=1;align=center;verticalAlign=middle;resizable=0;points=[];autosize=1;strokeColor=none;fillColor=none;" vertex="1" parent="1">
          <mxGeometry x="185.02999999999997" y="4930" width="30" height="30" as="geometry" />
        </mxCell>
        <mxCell id="F5btuEF4g0F6uqBdUG4N-650" style="edgeStyle=orthogonalEdgeStyle;rounded=0;orthogonalLoop=1;jettySize=auto;html=1;entryX=0.5;entryY=0;entryDx=0;entryDy=0;entryPerimeter=0;" edge="1" parent="1" source="F5btuEF4g0F6uqBdUG4N-647" target="F5btuEF4g0F6uqBdUG4N-625">
          <mxGeometry relative="1" as="geometry" />
        </mxCell>
        <mxCell id="F5btuEF4g0F6uqBdUG4N-651" style="edgeStyle=orthogonalEdgeStyle;rounded=0;orthogonalLoop=1;jettySize=auto;html=1;entryX=0.5;entryY=0;entryDx=0;entryDy=0;entryPerimeter=0;" edge="1" parent="1" source="F5btuEF4g0F6uqBdUG4N-628" target="F5btuEF4g0F6uqBdUG4N-646">
          <mxGeometry relative="1" as="geometry" />
        </mxCell>
        <mxCell id="F5btuEF4g0F6uqBdUG4N-652" value="data" style="rounded=0;whiteSpace=wrap;html=1;" vertex="1" parent="1">
          <mxGeometry x="530.03" y="5120" width="50" height="60" as="geometry" />
        </mxCell>
        <mxCell id="F5btuEF4g0F6uqBdUG4N-653" value="" style="verticalLabelPosition=bottom;verticalAlign=top;html=1;shape=mxgraph.basic.pie;startAngle=0.0015914963824541276;endAngle=0.4968173254495136;" vertex="1" parent="1">
          <mxGeometry x="550.03" y="5120" width="60" height="60" as="geometry" />
        </mxCell>
        <mxCell id="F5btuEF4g0F6uqBdUG4N-654" value="" style="verticalLabelPosition=bottom;verticalAlign=top;html=1;shape=mxgraph.basic.pie;startAngle=0.0015914963824541276;endAngle=0.4968173254495136;rotation=-180;" vertex="1" parent="1">
          <mxGeometry x="500.03" y="5120" width="60" height="60" as="geometry" />
        </mxCell>
        <mxCell id="F5btuEF4g0F6uqBdUG4N-655" value="n" style="text;html=1;align=center;verticalAlign=middle;resizable=0;points=[];autosize=1;strokeColor=none;fillColor=none;" vertex="1" parent="1">
          <mxGeometry x="580.03" y="5135" width="30" height="30" as="geometry" />
        </mxCell>
        <mxCell id="F5btuEF4g0F6uqBdUG4N-656" value="p" style="text;html=1;align=center;verticalAlign=middle;resizable=0;points=[];autosize=1;strokeColor=none;fillColor=none;" vertex="1" parent="1">
          <mxGeometry x="500.03" y="5135" width="30" height="30" as="geometry" />
        </mxCell>
        <mxCell id="F5btuEF4g0F6uqBdUG4N-657" value="data" style="rounded=0;whiteSpace=wrap;html=1;" vertex="1" parent="1">
          <mxGeometry x="530.03" y="5250" width="50" height="60" as="geometry" />
        </mxCell>
        <mxCell id="F5btuEF4g0F6uqBdUG4N-658" value="" style="verticalLabelPosition=bottom;verticalAlign=top;html=1;shape=mxgraph.basic.pie;startAngle=0.0015914963824541276;endAngle=0.4968173254495136;" vertex="1" parent="1">
          <mxGeometry x="550.03" y="5250" width="60" height="60" as="geometry" />
        </mxCell>
        <mxCell id="F5btuEF4g0F6uqBdUG4N-659" value="" style="verticalLabelPosition=bottom;verticalAlign=top;html=1;shape=mxgraph.basic.pie;startAngle=0.0015914963824541276;endAngle=0.4968173254495136;rotation=-180;" vertex="1" parent="1">
          <mxGeometry x="500.03" y="5250" width="60" height="60" as="geometry" />
        </mxCell>
        <mxCell id="F5btuEF4g0F6uqBdUG4N-660" style="edgeStyle=orthogonalEdgeStyle;rounded=0;orthogonalLoop=1;jettySize=auto;html=1;entryX=0.75;entryY=0;entryDx=0;entryDy=0;" edge="1" parent="1" source="F5btuEF4g0F6uqBdUG4N-661" target="F5btuEF4g0F6uqBdUG4N-637">
          <mxGeometry relative="1" as="geometry">
            <Array as="points">
              <mxPoint x="595" y="5190" />
              <mxPoint x="640" y="5190" />
              <mxPoint x="640" y="4760" />
              <mxPoint x="520" y="4760" />
              <mxPoint x="520" y="4780" />
            </Array>
          </mxGeometry>
        </mxCell>
        <mxCell id="F5btuEF4g0F6uqBdUG4N-661" value="n" style="text;html=1;align=center;verticalAlign=middle;resizable=0;points=[];autosize=1;strokeColor=none;fillColor=none;" vertex="1" parent="1">
          <mxGeometry x="580.03" y="5265" width="30" height="30" as="geometry" />
        </mxCell>
        <mxCell id="F5btuEF4g0F6uqBdUG4N-662" style="edgeStyle=orthogonalEdgeStyle;rounded=0;orthogonalLoop=1;jettySize=auto;html=1;" edge="1" parent="1" source="F5btuEF4g0F6uqBdUG4N-663" target="F5btuEF4g0F6uqBdUG4N-654">
          <mxGeometry relative="1" as="geometry" />
        </mxCell>
        <mxCell id="F5btuEF4g0F6uqBdUG4N-663" value="p" style="text;html=1;align=center;verticalAlign=middle;resizable=0;points=[];autosize=1;strokeColor=none;fillColor=none;" vertex="1" parent="1">
          <mxGeometry x="500.03" y="5265" width="30" height="30" as="geometry" />
        </mxCell>
        <mxCell id="F5btuEF4g0F6uqBdUG4N-664" style="edgeStyle=orthogonalEdgeStyle;rounded=0;orthogonalLoop=1;jettySize=auto;html=1;entryX=0.493;entryY=0.013;entryDx=0;entryDy=0;entryPerimeter=0;" edge="1" parent="1" source="F5btuEF4g0F6uqBdUG4N-655" target="F5btuEF4g0F6uqBdUG4N-658">
          <mxGeometry relative="1" as="geometry" />
        </mxCell>
        <mxCell id="F5btuEF4g0F6uqBdUG4N-665" value="data" style="rounded=0;whiteSpace=wrap;html=1;" vertex="1" parent="1">
          <mxGeometry x="530.03" y="4880" width="50" height="60" as="geometry" />
        </mxCell>
        <mxCell id="F5btuEF4g0F6uqBdUG4N-666" value="" style="verticalLabelPosition=bottom;verticalAlign=top;html=1;shape=mxgraph.basic.pie;startAngle=0.0015914963824541276;endAngle=0.4968173254495136;" vertex="1" parent="1">
          <mxGeometry x="550.03" y="4880" width="60" height="60" as="geometry" />
        </mxCell>
        <mxCell id="F5btuEF4g0F6uqBdUG4N-667" value="" style="verticalLabelPosition=bottom;verticalAlign=top;html=1;shape=mxgraph.basic.pie;startAngle=0.0015914963824541276;endAngle=0.4968173254495136;rotation=-180;" vertex="1" parent="1">
          <mxGeometry x="500.03" y="4880" width="60" height="60" as="geometry" />
        </mxCell>
        <mxCell id="F5btuEF4g0F6uqBdUG4N-668" value="n" style="text;html=1;align=center;verticalAlign=middle;resizable=0;points=[];autosize=1;strokeColor=none;fillColor=none;" vertex="1" parent="1">
          <mxGeometry x="580.03" y="4895" width="30" height="30" as="geometry" />
        </mxCell>
        <mxCell id="F5btuEF4g0F6uqBdUG4N-680" style="edgeStyle=orthogonalEdgeStyle;rounded=0;orthogonalLoop=1;jettySize=auto;html=1;entryX=0.25;entryY=1;entryDx=0;entryDy=0;fillColor=#d5e8d4;strokeColor=#82b366;" edge="1" parent="1" source="F5btuEF4g0F6uqBdUG4N-670" target="F5btuEF4g0F6uqBdUG4N-637">
          <mxGeometry relative="1" as="geometry" />
        </mxCell>
        <mxCell id="F5btuEF4g0F6uqBdUG4N-670" value="p" style="text;html=1;align=center;verticalAlign=middle;resizable=0;points=[];autosize=1;strokeColor=none;fillColor=none;" vertex="1" parent="1">
          <mxGeometry x="500.03" y="4895" width="30" height="30" as="geometry" />
        </mxCell>
        <mxCell id="F5btuEF4g0F6uqBdUG4N-671" value="data" style="rounded=0;whiteSpace=wrap;html=1;" vertex="1" parent="1">
          <mxGeometry x="530.03" y="5010" width="50" height="60" as="geometry" />
        </mxCell>
        <mxCell id="F5btuEF4g0F6uqBdUG4N-672" value="" style="verticalLabelPosition=bottom;verticalAlign=top;html=1;shape=mxgraph.basic.pie;startAngle=0.0015914963824541276;endAngle=0.4968173254495136;" vertex="1" parent="1">
          <mxGeometry x="550.03" y="5010" width="60" height="60" as="geometry" />
        </mxCell>
        <mxCell id="F5btuEF4g0F6uqBdUG4N-673" value="" style="verticalLabelPosition=bottom;verticalAlign=top;html=1;shape=mxgraph.basic.pie;startAngle=0.0015914963824541276;endAngle=0.4968173254495136;rotation=-180;" vertex="1" parent="1">
          <mxGeometry x="500.03" y="5010" width="60" height="60" as="geometry" />
        </mxCell>
        <mxCell id="F5btuEF4g0F6uqBdUG4N-674" value="n" style="text;html=1;align=center;verticalAlign=middle;resizable=0;points=[];autosize=1;strokeColor=none;fillColor=none;" vertex="1" parent="1">
          <mxGeometry x="580.03" y="5025" width="30" height="30" as="geometry" />
        </mxCell>
        <mxCell id="F5btuEF4g0F6uqBdUG4N-675" style="edgeStyle=orthogonalEdgeStyle;rounded=0;orthogonalLoop=1;jettySize=auto;html=1;" edge="1" parent="1" source="F5btuEF4g0F6uqBdUG4N-676" target="F5btuEF4g0F6uqBdUG4N-667">
          <mxGeometry relative="1" as="geometry" />
        </mxCell>
        <mxCell id="F5btuEF4g0F6uqBdUG4N-676" value="p" style="text;html=1;align=center;verticalAlign=middle;resizable=0;points=[];autosize=1;strokeColor=none;fillColor=none;" vertex="1" parent="1">
          <mxGeometry x="500.03" y="5025" width="30" height="30" as="geometry" />
        </mxCell>
        <mxCell id="F5btuEF4g0F6uqBdUG4N-677" style="edgeStyle=orthogonalEdgeStyle;rounded=0;orthogonalLoop=1;jettySize=auto;html=1;entryX=0.493;entryY=0.013;entryDx=0;entryDy=0;entryPerimeter=0;" edge="1" parent="1" source="F5btuEF4g0F6uqBdUG4N-668" target="F5btuEF4g0F6uqBdUG4N-672">
          <mxGeometry relative="1" as="geometry" />
        </mxCell>
        <mxCell id="F5btuEF4g0F6uqBdUG4N-678" style="edgeStyle=orthogonalEdgeStyle;rounded=0;orthogonalLoop=1;jettySize=auto;html=1;entryX=0.5;entryY=0;entryDx=0;entryDy=0;entryPerimeter=0;" edge="1" parent="1" source="F5btuEF4g0F6uqBdUG4N-674" target="F5btuEF4g0F6uqBdUG4N-653">
          <mxGeometry relative="1" as="geometry" />
        </mxCell>
        <mxCell id="F5btuEF4g0F6uqBdUG4N-679" style="edgeStyle=orthogonalEdgeStyle;rounded=0;orthogonalLoop=1;jettySize=auto;html=1;entryX=0.5;entryY=0;entryDx=0;entryDy=0;entryPerimeter=0;" edge="1" parent="1" source="F5btuEF4g0F6uqBdUG4N-656" target="F5btuEF4g0F6uqBdUG4N-673">
          <mxGeometry relative="1" as="geometry" />
        </mxCell>
        <mxCell id="F5btuEF4g0F6uqBdUG4N-681" value="data" style="rounded=0;whiteSpace=wrap;html=1;" vertex="1" parent="1">
          <mxGeometry x="2110" y="1605.05" width="50" height="60" as="geometry" />
        </mxCell>
        <mxCell id="F5btuEF4g0F6uqBdUG4N-682" value="" style="verticalLabelPosition=bottom;verticalAlign=top;html=1;shape=mxgraph.basic.pie;startAngle=0.0015914963824541276;endAngle=0.4968173254495136;" vertex="1" parent="1">
          <mxGeometry x="2130" y="1605.05" width="60" height="60" as="geometry" />
        </mxCell>
        <mxCell id="F5btuEF4g0F6uqBdUG4N-683" value="" style="verticalLabelPosition=bottom;verticalAlign=top;html=1;shape=mxgraph.basic.pie;startAngle=0.0015914963824541276;endAngle=0.4968173254495136;rotation=-180;" vertex="1" parent="1">
          <mxGeometry x="2080" y="1605.05" width="60" height="60" as="geometry" />
        </mxCell>
        <mxCell id="F5btuEF4g0F6uqBdUG4N-684" value="n" style="text;html=1;align=center;verticalAlign=middle;resizable=0;points=[];autosize=1;strokeColor=none;fillColor=none;" vertex="1" parent="1">
          <mxGeometry x="2160" y="1620.05" width="30" height="30" as="geometry" />
        </mxCell>
        <mxCell id="F5btuEF4g0F6uqBdUG4N-685" value="p" style="text;html=1;align=center;verticalAlign=middle;resizable=0;points=[];autosize=1;strokeColor=none;fillColor=none;" vertex="1" parent="1">
          <mxGeometry x="2080" y="1620.05" width="30" height="30" as="geometry" />
        </mxCell>
        <mxCell id="F5btuEF4g0F6uqBdUG4N-686" value="data" style="rounded=0;whiteSpace=wrap;html=1;" vertex="1" parent="1">
          <mxGeometry x="2110" y="1735.05" width="50" height="60" as="geometry" />
        </mxCell>
        <mxCell id="F5btuEF4g0F6uqBdUG4N-687" value="" style="verticalLabelPosition=bottom;verticalAlign=top;html=1;shape=mxgraph.basic.pie;startAngle=0.0015914963824541276;endAngle=0.4968173254495136;" vertex="1" parent="1">
          <mxGeometry x="2130" y="1735.05" width="60" height="60" as="geometry" />
        </mxCell>
        <mxCell id="F5btuEF4g0F6uqBdUG4N-688" value="" style="verticalLabelPosition=bottom;verticalAlign=top;html=1;shape=mxgraph.basic.pie;startAngle=0.0015914963824541276;endAngle=0.4968173254495136;rotation=-180;" vertex="1" parent="1">
          <mxGeometry x="2080" y="1735.05" width="60" height="60" as="geometry" />
        </mxCell>
        <mxCell id="F5btuEF4g0F6uqBdUG4N-689" value="n" style="text;html=1;align=center;verticalAlign=middle;resizable=0;points=[];autosize=1;strokeColor=none;fillColor=none;" vertex="1" parent="1">
          <mxGeometry x="2160" y="1750.05" width="30" height="30" as="geometry" />
        </mxCell>
        <mxCell id="F5btuEF4g0F6uqBdUG4N-690" style="edgeStyle=orthogonalEdgeStyle;rounded=0;orthogonalLoop=1;jettySize=auto;html=1;" edge="1" parent="1" source="F5btuEF4g0F6uqBdUG4N-691" target="F5btuEF4g0F6uqBdUG4N-683">
          <mxGeometry relative="1" as="geometry" />
        </mxCell>
        <mxCell id="F5btuEF4g0F6uqBdUG4N-691" value="p" style="text;html=1;align=center;verticalAlign=middle;resizable=0;points=[];autosize=1;strokeColor=none;fillColor=none;" vertex="1" parent="1">
          <mxGeometry x="2080" y="1750.05" width="30" height="30" as="geometry" />
        </mxCell>
        <mxCell id="F5btuEF4g0F6uqBdUG4N-692" style="edgeStyle=orthogonalEdgeStyle;rounded=0;orthogonalLoop=1;jettySize=auto;html=1;entryX=0.493;entryY=0.013;entryDx=0;entryDy=0;entryPerimeter=0;" edge="1" parent="1" source="F5btuEF4g0F6uqBdUG4N-684" target="F5btuEF4g0F6uqBdUG4N-687">
          <mxGeometry relative="1" as="geometry" />
        </mxCell>
        <mxCell id="F5btuEF4g0F6uqBdUG4N-693" value="data" style="rounded=0;whiteSpace=wrap;html=1;" vertex="1" parent="1">
          <mxGeometry x="2110" y="1365.05" width="50" height="60" as="geometry" />
        </mxCell>
        <mxCell id="F5btuEF4g0F6uqBdUG4N-694" value="" style="verticalLabelPosition=bottom;verticalAlign=top;html=1;shape=mxgraph.basic.pie;startAngle=0.0015914963824541276;endAngle=0.4968173254495136;" vertex="1" parent="1">
          <mxGeometry x="2130" y="1365.05" width="60" height="60" as="geometry" />
        </mxCell>
        <mxCell id="F5btuEF4g0F6uqBdUG4N-695" value="" style="verticalLabelPosition=bottom;verticalAlign=top;html=1;shape=mxgraph.basic.pie;startAngle=0.0015914963824541276;endAngle=0.4968173254495136;rotation=-180;" vertex="1" parent="1">
          <mxGeometry x="2080" y="1365.05" width="60" height="60" as="geometry" />
        </mxCell>
        <mxCell id="F5btuEF4g0F6uqBdUG4N-696" value="n" style="text;html=1;align=center;verticalAlign=middle;resizable=0;points=[];autosize=1;strokeColor=none;fillColor=none;" vertex="1" parent="1">
          <mxGeometry x="2160" y="1380.05" width="30" height="30" as="geometry" />
        </mxCell>
        <mxCell id="F5btuEF4g0F6uqBdUG4N-697" style="edgeStyle=orthogonalEdgeStyle;rounded=0;orthogonalLoop=1;jettySize=auto;html=1;entryX=0;entryY=1;entryDx=0;entryDy=0;" edge="1" parent="1" source="F5btuEF4g0F6uqBdUG4N-698" target="F5btuEF4g0F6uqBdUG4N-686">
          <mxGeometry relative="1" as="geometry">
            <Array as="points">
              <mxPoint x="2050" y="1395.05" />
              <mxPoint x="2050" y="1815.05" />
              <mxPoint x="2110" y="1815.05" />
            </Array>
          </mxGeometry>
        </mxCell>
        <mxCell id="F5btuEF4g0F6uqBdUG4N-698" value="p" style="text;html=1;align=center;verticalAlign=middle;resizable=0;points=[];autosize=1;strokeColor=none;fillColor=none;" vertex="1" parent="1">
          <mxGeometry x="2080" y="1380.05" width="30" height="30" as="geometry" />
        </mxCell>
        <mxCell id="F5btuEF4g0F6uqBdUG4N-699" value="data" style="rounded=0;whiteSpace=wrap;html=1;" vertex="1" parent="1">
          <mxGeometry x="2110" y="1495.05" width="50" height="60" as="geometry" />
        </mxCell>
        <mxCell id="F5btuEF4g0F6uqBdUG4N-700" value="" style="verticalLabelPosition=bottom;verticalAlign=top;html=1;shape=mxgraph.basic.pie;startAngle=0.0015914963824541276;endAngle=0.4968173254495136;" vertex="1" parent="1">
          <mxGeometry x="2130" y="1495.05" width="60" height="60" as="geometry" />
        </mxCell>
        <mxCell id="F5btuEF4g0F6uqBdUG4N-701" value="" style="verticalLabelPosition=bottom;verticalAlign=top;html=1;shape=mxgraph.basic.pie;startAngle=0.0015914963824541276;endAngle=0.4968173254495136;rotation=-180;" vertex="1" parent="1">
          <mxGeometry x="2080" y="1495.05" width="60" height="60" as="geometry" />
        </mxCell>
        <mxCell id="F5btuEF4g0F6uqBdUG4N-702" value="n" style="text;html=1;align=center;verticalAlign=middle;resizable=0;points=[];autosize=1;strokeColor=none;fillColor=none;" vertex="1" parent="1">
          <mxGeometry x="2160" y="1510.05" width="30" height="30" as="geometry" />
        </mxCell>
        <mxCell id="F5btuEF4g0F6uqBdUG4N-703" style="edgeStyle=orthogonalEdgeStyle;rounded=0;orthogonalLoop=1;jettySize=auto;html=1;" edge="1" parent="1" source="F5btuEF4g0F6uqBdUG4N-704" target="F5btuEF4g0F6uqBdUG4N-695">
          <mxGeometry relative="1" as="geometry" />
        </mxCell>
        <mxCell id="F5btuEF4g0F6uqBdUG4N-704" value="p" style="text;html=1;align=center;verticalAlign=middle;resizable=0;points=[];autosize=1;strokeColor=none;fillColor=none;" vertex="1" parent="1">
          <mxGeometry x="2080" y="1510.05" width="30" height="30" as="geometry" />
        </mxCell>
        <mxCell id="F5btuEF4g0F6uqBdUG4N-705" style="edgeStyle=orthogonalEdgeStyle;rounded=0;orthogonalLoop=1;jettySize=auto;html=1;entryX=0.493;entryY=0.013;entryDx=0;entryDy=0;entryPerimeter=0;" edge="1" parent="1" source="F5btuEF4g0F6uqBdUG4N-696" target="F5btuEF4g0F6uqBdUG4N-700">
          <mxGeometry relative="1" as="geometry" />
        </mxCell>
        <mxCell id="F5btuEF4g0F6uqBdUG4N-706" style="edgeStyle=orthogonalEdgeStyle;rounded=0;orthogonalLoop=1;jettySize=auto;html=1;entryX=0.5;entryY=0;entryDx=0;entryDy=0;entryPerimeter=0;" edge="1" parent="1" source="F5btuEF4g0F6uqBdUG4N-702" target="F5btuEF4g0F6uqBdUG4N-682">
          <mxGeometry relative="1" as="geometry" />
        </mxCell>
        <mxCell id="F5btuEF4g0F6uqBdUG4N-707" style="edgeStyle=orthogonalEdgeStyle;rounded=0;orthogonalLoop=1;jettySize=auto;html=1;entryX=0.5;entryY=0;entryDx=0;entryDy=0;entryPerimeter=0;" edge="1" parent="1" source="F5btuEF4g0F6uqBdUG4N-685" target="F5btuEF4g0F6uqBdUG4N-701">
          <mxGeometry relative="1" as="geometry" />
        </mxCell>
        <mxCell id="F5btuEF4g0F6uqBdUG4N-708" style="edgeStyle=orthogonalEdgeStyle;rounded=0;orthogonalLoop=1;jettySize=auto;html=1;entryX=0.5;entryY=0;entryDx=0;entryDy=0;entryPerimeter=0;" edge="1" parent="1" source="F5btuEF4g0F6uqBdUG4N-689" target="F5btuEF4g0F6uqBdUG4N-694">
          <mxGeometry relative="1" as="geometry">
            <Array as="points">
              <mxPoint x="2220" y="1765.05" />
              <mxPoint x="2220" y="1345.05" />
              <mxPoint x="2160" y="1345.05" />
            </Array>
          </mxGeometry>
        </mxCell>
        <mxCell id="F5btuEF4g0F6uqBdUG4N-709" value="" style="endArrow=classic;html=1;rounded=0;" edge="1" parent="1">
          <mxGeometry width="50" height="50" relative="1" as="geometry">
            <mxPoint x="1970" y="1394.85" as="sourcePoint" />
            <mxPoint x="2040" y="1394.85" as="targetPoint" />
          </mxGeometry>
        </mxCell>
        <mxCell id="F5btuEF4g0F6uqBdUG4N-710" value="fa " style="edgeLabel;html=1;align=center;verticalAlign=middle;resizable=0;points=[];" vertex="1" connectable="0" parent="F5btuEF4g0F6uqBdUG4N-709">
          <mxGeometry x="-0.0533" y="2" relative="1" as="geometry">
            <mxPoint y="2" as="offset" />
          </mxGeometry>
        </mxCell>
      </root>
    </mxGraphModel>
  </diagram>
</mxfile>
